<svg width="257" height="381" viewBox="0 0 257 381" fill="none" xmlns="http://www.w3.org/2000/svg">
<path d="M253.175 252.557C254.509 248.471 254.05 243.995 251.917 240.279C248.71 234.579 242.262 231.646 235.966 233.026C233.164 229.805 229.14 227.973 224.92 227.999C218.484 227.984 212.773 232.214 210.793 238.466C206.658 239.33 203.089 241.972 201 245.717C197.769 251.402 198.506 258.568 202.823 263.443C201.489 267.529 201.948 272.005 204.081 275.721C207.288 281.421 213.736 284.354 220.032 282.974C222.832 286.195 226.858 288.027 231.078 287.999C237.518 288.016 243.23 283.782 245.211 277.525C249.345 276.66 252.915 274.018 255.003 270.274C258.231 264.589 257.492 257.428 253.177 252.553L253.175 252.557ZM231.081 284.078C228.504 284.082 226.008 283.161 224.029 281.475C224.119 281.427 224.276 281.339 224.377 281.275L236.081 274.375C236.68 274.028 237.048 273.377 237.044 272.674V255.831L241.991 258.746C242.044 258.772 242.079 258.825 242.086 258.885V272.833C242.079 279.036 237.158 284.065 231.081 284.078ZM207.415 273.76C206.123 271.483 205.659 268.815 206.101 266.226C206.188 266.278 206.34 266.374 206.449 266.438L218.153 273.338C218.747 273.692 219.481 273.692 220.076 273.338L234.366 264.915V270.746C234.369 270.806 234.342 270.865 234.296 270.902L222.464 277.875C217.194 280.973 210.464 279.132 207.417 273.76H207.415ZM204.334 247.68C205.62 245.4 207.65 243.656 210.067 242.75C210.067 242.853 210.062 243.035 210.062 243.163V256.965C210.058 257.666 210.425 258.317 211.022 258.664L225.312 267.085L220.365 270C220.315 270.034 220.253 270.04 220.198 270.015L208.364 263.036C203.105 259.927 201.302 253.059 204.333 247.682L204.334 247.68ZM244.977 257.334L230.688 248.912L235.635 245.998C235.685 245.964 235.747 245.958 235.802 245.983L247.635 252.956C252.904 256.063 254.709 262.943 251.665 268.32C250.378 270.596 248.35 272.34 245.934 273.248V259.033C245.94 258.332 245.574 257.683 244.979 257.334H244.977ZM249.9 249.77C249.814 249.716 249.661 249.622 249.553 249.559L237.848 242.658C237.255 242.304 236.52 242.304 235.925 242.658L221.636 251.081V245.25C221.632 245.19 221.66 245.132 221.706 245.094L233.537 238.126C238.807 235.023 245.545 236.87 248.583 242.251C249.867 244.524 250.332 247.185 249.897 249.77H249.9ZM218.947 260.164L213.998 257.248C213.945 257.222 213.91 257.169 213.903 257.109V243.161C213.906 236.951 218.842 231.918 224.926 231.922C227.499 231.922 229.99 232.844 231.969 234.524C231.879 234.573 231.724 234.661 231.621 234.725L219.917 241.625C219.318 241.972 218.95 242.621 218.954 243.324L218.947 260.16V260.164ZM221.634 254.25L227.999 250.498L234.364 254.248V261.75L227.999 265.5L221.634 261.75V254.25Z" fill="#FF6900"/>
<path d="M39.745 229.829L24.0017 245.669H39.745V229.829ZM39.745 229.829V234.166M23.9652 227.499L23.9652 287.499M39.745 261.506L24.0017 245.666M39.745 261.506V284.214L24.0017 268.374M39.745 261.506L24 245.666M39.745 261.506L39.7434 268.282H46.5L46.5 245.666H24M24.0017 245.666L24.0017 268.374M24.0017 245.666L8.25663 261.506M24.0017 268.374L8.25663 284.214L8.25663 261.506M8.25663 261.506L8.25497 268.282H1.5L1.5 245.666H24M8.25663 261.506L24 245.666M24 245.669L8.25497 229.829L8.25497 245.669H24Z" stroke="#FF6900" stroke-width="2" stroke-miterlimit="10"/>
<mask id="path-3-outside-1_318_50" maskUnits="userSpaceOnUse" x="1.8125" y="335.999" width="45" height="45" fill="black">
<rect fill="white" x="1.8125" y="335.999" width="45" height="45"/>
<path d="M40.8398 351.19C41.7083 353.318 42.1875 355.648 42.1875 358.093H45C45 355.277 44.4474 352.587 43.4438 350.127L40.8398 351.19ZM42.1875 358.093C42.1875 359.392 42.0523 360.657 41.7956 361.877L44.5478 362.456C44.8444 361.047 45 359.588 45 358.093H42.1875ZM41.7956 361.877C40.3104 368.935 34.749 374.497 27.6908 375.982L28.2699 378.734C36.4191 377.02 42.8331 370.606 44.5478 362.456L41.7956 361.877ZM27.6908 375.982C26.4709 376.239 25.2051 376.374 23.9063 376.374V379.187C25.401 379.187 26.8607 379.031 28.2699 378.734L27.6908 375.982ZM23.9063 376.374C22.6073 376.374 21.3416 376.239 20.1217 375.982L19.5425 378.734C20.9516 379.031 22.4115 379.187 23.9063 379.187V376.374ZM5.625 358.093C5.625 355.646 6.10502 353.314 6.97474 351.185L4.37104 350.122C3.36581 352.583 2.8125 355.275 2.8125 358.093H5.625ZM20.1217 375.982C13.0636 374.497 7.5021 368.935 6.01693 361.877L3.2647 362.456C4.97946 370.606 11.3934 377.02 19.5425 378.734L20.1217 375.982ZM6.01693 361.877C5.76024 360.657 5.625 359.392 5.625 358.093H2.8125C2.8125 359.588 2.96818 361.047 3.2647 362.456L6.01693 361.877ZM6.97474 351.185C9.23826 345.643 14.1446 341.461 20.1217 340.203L19.5425 337.451C12.6381 338.904 6.98192 343.729 4.37104 350.122L6.97474 351.185ZM20.1217 340.203C21.3416 339.947 22.6073 339.812 23.9062 339.812V336.999C22.4115 336.999 20.9516 337.155 19.5425 337.451L20.1217 340.203ZM23.9062 339.812C25.2051 339.812 26.4709 339.947 27.6908 340.203L28.2699 337.451C26.8607 337.155 25.401 336.999 23.9062 336.999V339.812ZM27.6908 340.203C33.6696 341.462 38.5772 345.646 40.8398 351.19L43.4438 350.127C40.8339 343.732 35.1765 338.904 28.2699 337.451L27.6908 340.203ZM26.6407 339.255C27.1841 340.958 29.1966 347.511 30.0216 353.533L32.808 353.151C31.9481 346.874 29.8712 340.127 29.3201 338.4L26.6407 339.255ZM30.0216 353.533C30.2428 355.148 30.375 356.699 30.375 358.093H33.1875C33.1875 356.533 33.0403 354.847 32.808 353.151L30.0216 353.533ZM41.5729 349.379C39.411 350.034 35.3499 351.186 31.1597 351.959L31.6701 354.725C36.0086 353.924 40.1829 352.739 42.3892 352.07L41.5729 349.379ZM31.1597 351.959C28.6179 352.428 26.0773 352.749 23.9063 352.749V355.562C26.3201 355.562 29.0494 355.209 31.6701 354.725L31.1597 351.959ZM30.375 358.093C30.375 360.157 30.0851 362.557 29.6526 364.976L32.4212 365.471C32.8682 362.971 33.1875 360.39 33.1875 358.093H30.375ZM29.6526 364.976C28.7046 370.279 27.1119 375.454 26.6407 376.931L29.3201 377.786C29.8031 376.272 31.4402 370.958 32.4212 365.471L29.6526 364.976ZM42.7442 360.827C41.2674 361.298 36.0922 362.891 30.7894 363.839L31.2844 366.608C36.7712 365.627 42.0855 363.99 43.5992 363.507L42.7442 360.827ZM30.7894 363.839C28.3702 364.272 25.9704 364.562 23.9063 364.562V367.374C26.2035 367.374 28.7848 367.055 31.2844 366.608L30.7894 363.839ZM23.9063 364.562C21.8421 364.562 19.4423 364.272 17.0231 363.839L16.528 366.608C19.0276 367.055 21.609 367.374 23.9063 367.374V364.562ZM17.0231 363.839C11.7202 362.891 6.54499 361.298 5.06829 360.827L4.21335 363.507C5.72694 363.99 11.0414 365.627 16.528 366.608L17.0231 363.839ZM14.625 358.093C14.625 360.39 14.9444 362.971 15.3913 365.471L18.1599 364.976C17.7273 362.557 17.4375 360.157 17.4375 358.093H14.625ZM15.3913 365.471C16.3723 370.958 18.0094 376.272 18.4924 377.786L21.1718 376.931C20.7006 375.454 19.108 370.279 18.1599 364.976L15.3913 365.471ZM18.4924 338.4C17.9413 340.127 15.8644 346.874 15.0044 353.151L17.7909 353.533C18.6159 347.511 20.6284 340.958 21.1718 339.255L18.4924 338.4ZM15.0044 353.151C14.7721 354.847 14.625 356.533 14.625 358.093H17.4375C17.4375 356.699 17.5697 355.148 17.7909 353.533L15.0044 353.151ZM23.9063 352.749C21.7352 352.749 19.1946 352.428 16.6529 351.959L16.1424 354.725C18.7631 355.209 21.4924 355.562 23.9063 355.562V352.749ZM16.6529 351.959C12.461 351.186 8.39852 350.033 6.23732 349.378L5.42093 352.069C7.62656 352.738 11.8023 353.924 16.1424 354.725L16.6529 351.959ZM41.4937 349.411C41.5161 349.399 41.5434 349.388 41.5729 349.379L42.3892 352.07C42.5306 352.027 42.6636 351.972 42.7897 351.907L41.4937 349.411ZM4.93922 351.853C5.08729 351.943 5.2479 352.017 5.42093 352.069L6.23732 349.378C6.29968 349.397 6.35715 349.423 6.40656 349.454L4.93922 351.853Z"/>
</mask>
<path d="M28.2699 378.734L27.7807 378.837L28.7592 378.631L28.2699 378.734ZM19.5425 378.734L19.0533 378.631L20.0318 378.837L19.5425 378.734ZM3.2647 362.456L3.16173 361.967L3.36763 362.946L3.2647 362.456ZM28.2699 337.451L28.7592 337.554L27.7807 337.348L28.2699 337.451ZM5.42093 352.069L4.94245 351.924L5.8994 352.214L5.42093 352.069ZM16.0313 357.593H14.625V358.593H16.0313V357.593ZM31.7813 358.593H33.1875V357.593H31.7813V358.593ZM23.4063 365.968V367.374H24.4063V365.968H23.4063ZM27.4911 377.461L27.7806 378.837L28.7592 378.631L28.4697 377.255L27.4911 377.461ZM19.3428 377.255L19.0533 378.631L20.0318 378.837L20.3214 377.461L19.3428 377.255ZM5.86194 350.19L4.56009 349.659L4.18198 350.584L5.48383 351.116L5.86194 350.19ZM4.53788 361.678L3.16177 361.967L3.36763 362.946L4.74375 362.656L4.53788 361.678ZM20.3214 338.724L20.0318 337.348L19.0533 337.554L19.3428 338.93L20.3214 338.724ZM28.4697 338.93L28.7592 337.554L27.7806 337.348L27.4911 338.724L28.4697 338.93ZM41.5026 350.869L41.9108 352.215L42.8677 351.925L42.4595 350.579L41.5026 350.869ZM5.35066 350.578L4.94245 351.924L5.8994 352.214L6.3076 350.869L5.35066 350.578ZM42.1875 358.593H45V357.593H42.1875V358.593ZM43.2548 349.664L40.6508 350.727L41.0287 351.653L43.6327 350.59L43.2548 349.664ZM41.6927 362.367L44.4448 362.946L44.6507 361.967L41.8986 361.388L41.6927 362.367ZM27.2015 376.085L27.7807 378.837L28.7592 378.631L28.18 375.879L27.2015 376.085ZM23.4063 376.374V379.187H24.4063V376.374H23.4063ZM19.6324 375.879L19.0533 378.631L20.0318 378.837L20.611 376.085L19.6324 375.879ZM7.16379 350.722L4.56009 349.659L4.18198 350.584L6.78568 351.648L7.16379 350.722ZM2.8125 358.593H5.625V357.593H2.8125L2.8125 358.593ZM5.91396 361.388L3.16173 361.967L3.36767 362.946L6.1199 362.367L5.91396 361.388ZM20.6109 340.101L20.0318 337.348L19.0533 337.554L19.6324 340.306L20.6109 340.101ZM24.4062 339.812V336.999H23.4062V339.812H24.4062ZM28.18 340.306L28.7592 337.554L27.7807 337.348L27.2015 340.1L28.18 340.306ZM30.0894 354.029L32.8759 353.647L32.7401 352.656L29.9537 353.038L30.0894 354.029ZM30.375 358.593H33.1875V357.593H30.375V358.593ZM30.668 352.05L31.1784 354.816L32.1618 354.635L31.6514 351.869L30.668 352.05ZM42.8677 351.925L42.0513 349.233L41.0944 349.524L41.9108 352.215L42.8677 351.925ZM23.4063 352.749V355.562H24.4063V352.749H23.4063ZM29.5646 365.468L32.3332 365.963L32.5092 364.979L29.7406 364.484L29.5646 365.468ZM30.2972 363.927L30.7922 366.696L31.7766 366.52L31.2816 363.751L30.2972 363.927ZM23.4063 364.562V367.374H24.4063V364.562H23.4063ZM16.5309 363.751L16.0359 366.52L17.0202 366.696L17.5153 363.927L16.5309 363.751ZM15.4793 365.963L18.2479 365.468L18.0719 364.484L15.3033 364.979L15.4793 365.963ZM17.4375 357.593H14.625V358.593H17.4375V357.593ZM14.9365 353.647L17.723 354.029L17.8587 353.038L15.0723 352.656L14.9365 353.647ZM16.1612 351.869L15.6507 354.635L16.6341 354.816L17.1445 352.05L16.1612 351.869ZM5.75885 349.233L4.94245 351.924L5.8994 352.214L6.71579 349.523L5.75885 349.233ZM28.2699 378.734L28.064 377.756L28.064 377.756L28.2699 378.734ZM19.5425 378.734L19.7485 377.756L19.7484 377.756L19.5425 378.734ZM4.37104 350.122L5.2968 350.5L5.2968 350.5L4.37104 350.122ZM3.2647 362.456L2.28613 362.662L2.28613 362.662L3.2647 362.456ZM19.5425 337.451L19.7485 338.43L19.7485 338.43L19.5425 337.451ZM28.2699 337.451L28.4758 336.473L28.4758 336.473L28.2699 337.451ZM42.3892 352.07L42.6795 353.027L42.6795 353.027L42.3892 352.07ZM5.42093 352.069L5.71119 351.112L5.71118 351.112L5.42093 352.069ZM40.8398 351.19L39.9139 351.568L39.9139 351.568L40.8398 351.19ZM43.4438 350.127L44.3696 349.749L44.3696 349.749L43.4438 350.127ZM41.7956 361.877L42.7742 362.083L42.7742 362.083L41.7956 361.877ZM44.5478 362.456L43.5692 362.25L43.5692 362.251L44.5478 362.456ZM27.6908 375.982L27.4848 375.004L27.4848 375.004L27.6908 375.982ZM20.1217 375.982L19.9158 376.961L19.9158 376.961L20.1217 375.982ZM6.97474 351.185L7.90049 351.563L7.9005 351.563L6.97474 351.185ZM6.01693 361.877L5.03836 362.083L5.03836 362.083L6.01693 361.877ZM20.1217 340.203L19.9158 339.225L19.9157 339.225L20.1217 340.203ZM27.6908 340.203L27.8967 339.225L27.8967 339.225L27.6908 340.203ZM26.6407 339.255L26.3368 338.302L25.3841 338.606L25.6881 339.559L26.6407 339.255ZM30.0216 353.533L29.0308 353.669L29.0308 353.669L30.0216 353.533ZM32.808 353.151L31.8173 353.287L31.8173 353.287L32.808 353.151ZM29.3201 338.4L30.2728 338.096L29.9689 337.143L29.0161 337.447L29.3201 338.4ZM41.5729 349.379L41.8636 350.335L41.2826 348.422L41.5729 349.379ZM31.1597 351.959L31.3412 352.943L31.3412 352.943L31.1597 351.959ZM31.6701 354.725L31.8515 355.709L31.8516 355.709L31.6701 354.725ZM29.6526 364.976L28.6682 364.8L28.6682 364.8L29.6526 364.976ZM32.4212 365.471L31.4368 365.295L31.4368 365.295L32.4212 365.471ZM26.6407 376.931L25.6881 376.627L25.3841 377.579L26.3367 377.883L26.6407 376.931ZM29.3201 377.786L29.0161 378.738L29.9688 379.042L30.2728 378.09L29.3201 377.786ZM42.7442 360.827L43.6969 360.523L43.3929 359.571L42.4402 359.875L42.7442 360.827ZM30.7894 363.839L30.6134 362.855L30.6134 362.855L30.7894 363.839ZM31.2844 366.608L31.1084 365.623L31.1083 365.623L31.2844 366.608ZM43.5992 363.507L43.9032 364.459L44.8559 364.155L44.5519 363.203L43.5992 363.507ZM17.0231 363.839L17.1991 362.855L17.199 362.855L17.0231 363.839ZM16.528 366.608L16.7041 365.623L16.7041 365.623L16.528 366.608ZM5.06829 360.827L5.37228 359.875L4.4196 359.571L4.11562 360.523L5.06829 360.827ZM4.21335 363.507L3.26067 363.203L2.9567 364.155L3.90935 364.459L4.21335 363.507ZM15.3913 365.471L14.4069 365.647L14.4069 365.647L15.3913 365.471ZM18.1599 364.976L19.1443 364.8L19.1442 364.8L18.1599 364.976ZM18.4924 377.786L17.5397 378.09L17.8437 379.042L18.7964 378.738L18.4924 377.786ZM21.1718 376.931L21.4758 377.883L22.4284 377.579L22.1244 376.627L21.1718 376.931ZM18.4924 338.4L18.7964 337.447L17.8437 337.143L17.5397 338.096L18.4924 338.4ZM15.0044 353.151L14.0137 353.016L14.0137 353.016L15.0044 353.151ZM17.7909 353.533L16.8001 353.397L16.8001 353.397L17.7909 353.533ZM21.1718 339.255L22.1244 339.559L22.4284 338.606L21.4757 338.302L21.1718 339.255ZM16.6529 351.959L16.4714 352.943L16.4714 352.943L16.6529 351.959ZM16.1424 354.725L15.9609 355.709L15.961 355.709L16.1424 354.725ZM6.23732 349.378L6.52759 348.421L5.94702 350.335L6.23732 349.378ZM41.4937 349.411L41.0317 348.524L40.1461 348.985L40.6062 349.871L41.4937 349.411ZM42.7897 351.907L43.2506 352.794L44.138 352.333L43.6773 351.446L42.7897 351.907ZM4.93922 351.853L4.0861 351.331L3.56436 352.184L4.41753 352.706L4.93922 351.853ZM6.40656 349.454L7.25967 349.975L7.78131 349.122L6.92841 348.601L6.40656 349.454ZM39.9139 351.568C40.7343 353.578 41.1875 355.779 41.1875 358.093H43.1875C43.1875 355.516 42.6822 353.058 41.7656 350.812L39.9139 351.568ZM46 358.093C46 355.145 45.4214 352.327 44.3696 349.749L42.5179 350.505C43.4735 352.847 44 355.409 44 358.093H46ZM41.1875 358.093C41.1875 359.322 41.0596 360.519 40.8171 361.671L42.7742 362.083C43.0451 360.796 43.1875 359.461 43.1875 358.093H41.1875ZM45.5263 362.662C45.8371 361.186 46 359.657 46 358.093H44C44 359.518 43.8516 360.909 43.5692 362.25L45.5263 362.662ZM40.8171 361.671C39.4135 368.341 34.1551 373.6 27.4848 375.004L27.8967 376.961C35.3429 375.394 41.2074 369.529 42.7742 362.083L40.8171 361.671ZM28.4758 379.713C37.0129 377.917 43.73 371.199 45.5263 362.662L43.5692 362.251C41.9361 370.012 35.8252 376.123 28.064 377.756L28.4758 379.713ZM27.4848 375.004C26.3323 375.246 25.1355 375.374 23.9063 375.374V377.374C25.2746 377.374 26.6095 377.232 27.8967 376.961L27.4848 375.004ZM23.9063 380.187C25.4706 380.187 26.9993 380.024 28.4759 379.713L28.064 377.756C26.7221 378.038 25.3314 378.187 23.9063 378.187V380.187ZM23.9063 375.374C22.6768 375.374 21.4802 375.246 20.3276 375.004L19.9158 376.961C21.203 377.232 22.5377 377.374 23.9063 377.374V375.374ZM19.3365 379.713C20.813 380.024 22.3419 380.187 23.9063 380.187V378.187C22.4811 378.187 21.0902 378.038 19.7485 377.756L19.3365 379.713ZM6.625 358.093C6.625 355.778 7.07896 353.574 7.90049 351.563L6.04898 350.807C5.13108 353.054 4.625 355.514 4.625 358.093H6.625ZM3.44528 349.743C2.39187 352.323 1.8125 355.143 1.8125 358.093H3.8125C3.8125 355.407 4.33975 352.843 5.2968 350.5L3.44528 349.743ZM20.3276 375.004C13.6574 373.6 8.39904 368.341 6.9955 361.671L5.03836 362.083C6.60516 369.529 12.4697 375.394 19.9158 376.961L20.3276 375.004ZM2.28613 362.662C4.08252 371.199 10.7995 377.917 19.3366 379.713L19.7484 377.756C11.9872 376.123 5.8764 370.012 4.24327 362.251L2.28613 362.662ZM6.9955 361.671C6.75298 360.519 6.625 359.322 6.625 358.093H4.625C4.625 359.461 4.76751 360.796 5.03836 362.083L6.9955 361.671ZM1.8125 358.093C1.8125 359.657 1.97545 361.186 2.28613 362.662L4.24327 362.251C3.96091 360.909 3.8125 359.518 3.8125 358.093H1.8125ZM7.9005 351.563C10.0405 346.324 14.6803 342.37 20.3276 341.182L19.9157 339.225C13.609 340.552 8.43602 344.963 6.04898 350.807L7.9005 351.563ZM19.3366 336.473C12.1024 337.995 6.17965 343.049 3.44528 349.743L5.2968 350.5C7.78419 344.41 13.1738 339.813 19.7485 338.43L19.3366 336.473ZM20.3276 341.182C21.4802 340.939 22.6769 340.812 23.9062 340.812V338.812C22.5376 338.812 21.203 338.954 19.9158 339.225L20.3276 341.182ZM23.9062 335.999C22.3419 335.999 20.813 336.162 19.3366 336.473L19.7485 338.43C21.0902 338.147 22.4811 337.999 23.9062 337.999V335.999ZM23.9062 340.812C25.1355 340.812 26.3323 340.939 27.4848 341.182L27.8967 339.225C26.6095 338.954 25.2747 338.812 23.9062 338.812V340.812ZM28.4758 336.473C26.9993 336.162 25.4706 335.999 23.9062 335.999V337.999C25.3314 337.999 26.7221 338.147 28.064 338.43L28.4758 336.473ZM27.4848 341.182C33.1338 342.371 37.7748 346.326 39.9139 351.568L41.7656 350.812C39.3796 344.965 34.2053 340.552 27.8967 339.225L27.4848 341.182ZM44.3696 349.749C41.6364 343.052 35.7123 337.995 28.4758 336.473L28.064 338.43C34.6407 339.814 40.0315 344.412 42.5179 350.505L44.3696 349.749ZM25.6881 339.559C26.2287 341.253 28.2182 347.737 29.0308 353.669L31.0123 353.397C30.1749 347.284 28.1395 340.662 27.5934 338.951L25.6881 339.559ZM33.7987 353.016C32.9265 346.648 30.8266 339.832 30.2728 338.096L28.3674 338.704C28.9158 340.423 30.9698 347.1 31.8173 353.287L33.7987 353.016ZM29.0161 337.447L26.3368 338.302L26.9447 340.207L29.6241 339.353L29.0161 337.447ZM29.0308 353.669C29.2481 355.254 29.375 356.758 29.375 358.093H31.375C31.375 356.64 31.2375 355.041 31.0123 353.397L29.0308 353.669ZM34.1875 358.093C34.1875 356.474 34.035 354.74 33.7987 353.016L31.8173 353.287C32.0456 354.954 32.1875 356.592 32.1875 358.093H34.1875ZM41.2826 348.422C39.1365 349.073 35.1158 350.212 30.9782 350.976L31.3412 352.943C35.5841 352.16 39.6855 350.996 41.8631 350.336L41.2826 348.422ZM31.8516 355.709C36.2428 354.898 40.4574 353.701 42.6795 353.027L42.099 351.113C39.9085 351.777 35.7744 352.951 31.4885 353.742L31.8516 355.709ZM30.9782 350.976C28.4645 351.44 25.9909 351.749 23.9063 351.749V353.749C26.1637 353.749 28.7714 353.417 31.3412 352.943L30.9782 350.976ZM23.9063 356.562C26.4065 356.562 29.2028 356.197 31.8515 355.709L31.4886 353.742C28.896 354.22 26.2338 354.562 23.9063 354.562V356.562ZM29.375 358.093C29.375 360.074 29.0956 362.409 28.6682 364.8L30.6369 365.152C31.0746 362.704 31.375 360.24 31.375 358.093H29.375ZM33.4056 365.647C33.8577 363.119 34.1875 360.473 34.1875 358.093H32.1875C32.1875 360.307 31.8787 362.824 31.4368 365.295L33.4056 365.647ZM28.6682 364.8C27.7319 370.037 26.1551 375.163 25.6881 376.627L27.5934 377.235C28.0688 375.745 29.6773 370.52 30.637 365.152L28.6682 364.8ZM26.3367 377.883L29.0161 378.738L29.6241 376.833L26.9448 375.978L26.3367 377.883ZM30.2728 378.09C30.76 376.563 32.4129 371.199 33.4056 365.647L31.4368 365.295C30.4675 370.716 28.8462 375.981 28.3674 377.482L30.2728 378.09ZM42.4402 359.875C40.9766 360.342 35.8509 361.918 30.6134 362.855L30.9654 364.823C36.3336 363.864 41.5583 362.255 43.0482 361.78L42.4402 359.875ZM31.4604 367.592C37.0125 366.599 42.3763 364.947 43.9032 364.459L43.2952 362.554C41.7947 363.033 36.5299 364.654 31.1084 365.623L31.4604 367.592ZM44.5519 363.203L43.6969 360.523L41.7915 361.131L42.6465 363.811L44.5519 363.203ZM30.6134 362.855C28.2228 363.282 25.8875 363.562 23.9063 363.562V365.562C26.0534 365.562 28.5177 365.261 30.9654 364.823L30.6134 362.855ZM23.9063 368.374C26.2864 368.374 28.9322 368.044 31.4604 367.592L31.1083 365.623C28.6374 366.065 26.1206 366.374 23.9063 366.374V368.374ZM23.9063 363.562C21.925 363.562 19.5898 363.282 17.1991 362.855L16.8471 364.823C19.2948 365.261 21.7591 365.562 23.9063 365.562V363.562ZM16.352 367.592C18.8802 368.044 21.5261 368.374 23.9063 368.374V366.374C21.6919 366.374 19.175 366.065 16.7041 365.623L16.352 367.592ZM17.199 362.855C11.9615 361.918 6.83586 360.342 5.37228 359.875L4.76431 361.78C6.25411 362.255 11.4788 363.864 16.8471 364.823L17.199 362.855ZM4.11562 360.523L3.26067 363.203L5.16603 363.811L6.02097 361.131L4.11562 360.523ZM3.90935 364.459C5.43613 364.947 10.8 366.599 16.352 367.592L16.7041 365.623C11.2827 364.654 6.01776 363.033 4.51735 362.554L3.90935 364.459ZM13.625 358.093C13.625 360.473 13.9548 363.119 14.4069 365.647L16.3756 365.295C15.9339 362.824 15.625 360.307 15.625 358.093H13.625ZM19.1442 364.8C18.7168 362.409 18.4375 360.074 18.4375 358.093H16.4375C16.4375 360.24 16.7378 362.704 17.1755 365.152L19.1442 364.8ZM14.4069 365.647C15.3996 371.199 17.0526 376.563 17.5397 378.09L19.4451 377.482C18.9663 375.981 17.345 370.716 16.3756 365.295L14.4069 365.647ZM18.7964 378.738L21.4758 377.883L20.8677 375.978L18.1884 376.833L18.7964 378.738ZM22.1244 376.627C21.6574 375.163 20.0807 370.037 19.1443 364.8L17.1755 365.152C18.1353 370.52 19.7437 375.745 20.2191 377.235L22.1244 376.627ZM17.5397 338.096C16.9858 339.832 14.886 346.648 14.0137 353.016L15.9952 353.287C16.8427 347.1 18.8967 340.422 19.4451 338.704L17.5397 338.096ZM18.7816 353.669C19.5942 347.737 21.5838 341.253 22.1244 339.559L20.2191 338.951C19.673 340.662 17.6376 347.284 16.8001 353.397L18.7816 353.669ZM21.4757 338.302L18.7964 337.447L18.1884 339.353L20.8678 340.207L21.4757 338.302ZM14.0137 353.016C13.7774 354.74 13.625 356.474 13.625 358.093H15.625C15.625 356.592 15.7668 354.954 15.9952 353.287L14.0137 353.016ZM18.4375 358.093C18.4375 356.758 18.5644 355.254 18.7816 353.669L16.8001 353.397C16.575 355.041 16.4375 356.64 16.4375 358.093H18.4375ZM23.9063 351.749C21.8216 351.749 19.348 351.44 16.8343 350.976L16.4714 352.943C19.0411 353.417 21.6488 353.749 23.9063 353.749V351.749ZM15.961 355.709C18.6097 356.197 21.406 356.562 23.9063 356.562V354.562C21.5787 354.562 18.9165 354.22 16.3239 353.742L15.961 355.709ZM16.8343 350.976C12.6952 350.212 8.673 349.072 6.52759 348.421L5.94705 350.335C8.12404 350.995 12.2268 352.159 16.4714 352.943L16.8343 350.976ZM5.13066 353.026C7.3521 353.7 11.5681 354.898 15.9609 355.709L16.3239 353.742C12.0365 352.951 7.90103 351.777 5.71119 351.112L5.13066 353.026ZM41.9558 350.297C41.9233 350.314 41.8933 350.326 41.8636 350.335L41.2822 348.422C41.1936 348.449 41.1088 348.484 41.0317 348.524L41.9558 350.297ZM42.6795 353.027C42.8818 352.966 43.0718 352.887 43.2506 352.794L42.3289 351.019C42.2554 351.057 42.1794 351.089 42.099 351.113L42.6795 353.027ZM43.6773 351.446L42.3813 348.95L40.6062 349.871L41.9022 352.367L43.6773 351.446ZM4.41753 352.706C4.63574 352.84 4.87388 352.948 5.13067 353.026L5.71118 351.112C5.62192 351.085 5.53884 351.047 5.46091 351L4.41753 352.706ZM5.94702 350.335C5.92567 350.328 5.90556 350.319 5.8847 350.307L6.92841 348.601C6.80874 348.527 6.67369 348.465 6.52762 348.421L5.94702 350.335ZM5.55344 348.932L4.0861 351.331L5.79233 352.375L7.25967 349.975L5.55344 348.932Z" fill="#FF6900" mask="url(#path-3-outside-1_318_50)"/>
<path d="M215.091 363.054L214.375 362.712V363.505V370.699C214.375 371.026 214.504 371.338 214.69 371.615C214.878 371.895 215.142 372.169 215.465 372.433C216.111 372.96 217.037 373.484 218.2 373.949C220.531 374.88 223.876 375.599 228 375.599C232.124 375.599 235.469 374.88 237.8 373.949C238.963 373.484 239.889 372.96 240.535 372.433C240.858 372.169 241.122 371.895 241.31 371.615C241.496 371.338 241.625 371.026 241.625 370.699V363.505V362.712L240.909 363.054C236.886 364.978 232.467 365.918 228.013 365.799L228 365.799L227.987 365.799C223.533 365.918 219.114 364.978 215.091 363.054ZM215.091 349.854L214.375 349.512V350.305V357.499C214.375 357.826 214.504 358.138 214.69 358.415C214.878 358.695 215.142 358.969 215.465 359.233C216.111 359.76 217.037 360.284 218.2 360.749C220.531 361.68 223.876 362.399 228 362.399C232.124 362.399 235.469 361.68 237.8 360.749C238.963 360.284 239.889 359.76 240.535 359.233C240.858 358.969 241.122 358.695 241.31 358.415C241.496 358.138 241.625 357.826 241.625 357.499V350.305V349.512L240.909 349.854C236.886 351.778 232.467 352.718 228.013 352.599L228 352.599L227.987 352.599C223.533 352.718 219.114 351.778 215.091 349.854ZM218.314 368.185C218.591 367.998 218.917 367.899 219.25 367.899C219.697 367.899 220.126 368.077 220.442 368.396C220.759 368.715 220.938 369.147 220.938 369.599C220.938 369.936 220.838 370.265 220.652 370.545C220.467 370.824 220.203 371.042 219.895 371.17C219.587 371.298 219.248 371.332 218.921 371.266C218.595 371.201 218.294 371.04 218.058 370.802C217.822 370.565 217.66 370.262 217.595 369.931C217.53 369.601 217.563 369.259 217.691 368.948C217.819 368.637 218.036 368.371 218.314 368.185ZM211 344.299C211 341.704 212.957 339.633 216.174 338.185C219.373 336.746 223.673 335.999 228 335.999C232.327 335.999 236.627 336.746 239.826 338.185C243.043 339.633 245 341.704 245 344.299V370.699C245 373.294 243.043 375.365 239.826 376.813C236.627 378.252 232.327 378.999 228 378.999C223.673 378.999 219.373 378.252 216.174 376.813C212.957 375.365 211 373.294 211 370.699V344.299ZM214.375 344.299C214.375 344.626 214.504 344.938 214.69 345.215C214.878 345.495 215.142 345.769 215.465 346.033C216.111 346.56 217.037 347.084 218.2 347.549C220.531 348.48 223.876 349.199 228 349.199C232.124 349.199 235.469 348.48 237.8 347.549C238.963 347.084 239.889 346.56 240.535 346.033C240.858 345.769 241.122 345.495 241.31 345.215C241.496 344.938 241.625 344.626 241.625 344.299C241.625 343.972 241.496 343.66 241.31 343.383C241.122 343.103 240.858 342.829 240.535 342.565C239.889 342.038 238.963 341.514 237.8 341.049C235.469 340.118 232.124 339.399 228 339.399C223.876 339.399 220.531 340.118 218.2 341.049C217.037 341.514 216.111 342.038 215.465 342.565C215.142 342.829 214.878 343.103 214.69 343.383C214.504 343.66 214.375 343.972 214.375 344.299ZM218.314 354.985C218.591 354.798 218.917 354.699 219.25 354.699C219.697 354.699 220.126 354.877 220.442 355.196C220.759 355.515 220.938 355.947 220.938 356.399C220.938 356.736 220.838 357.065 220.652 357.345C220.467 357.624 220.203 357.842 219.895 357.97C219.587 358.098 219.248 358.132 218.921 358.066C218.595 358.001 218.294 357.84 218.058 357.602C217.822 357.365 217.66 357.062 217.595 356.731C217.53 356.401 217.563 356.059 217.691 355.748C217.819 355.437 218.036 355.171 218.314 354.985Z" stroke="#FF6900"/>
<path d="M126 120.999L126 161.499M126 161.499L228 161.499L228 208.999M126 161.499L24 161.499L24 208.999" stroke="#FF6900" stroke-width="3" stroke-linecap="round" stroke-linejoin="round" stroke-dasharray="10 10"/>
<line x1="19.5" y1="297.499" x2="19.5" y2="326.499" stroke="#FF6900" stroke-linecap="round" stroke-dasharray="2 2"/>
<line x1="29.5" y1="297.499" x2="29.5" y2="326.499" stroke="#FF6900" stroke-linecap="round" stroke-dasharray="2 2"/>
<line x1="223.5" y1="297.499" x2="223.5" y2="326.499" stroke="#FF6900" stroke-linecap="round" stroke-dasharray="2 2"/>
<line x1="233.5" y1="297.499" x2="233.5" y2="326.499" stroke="#FF6900" stroke-linecap="round" stroke-dasharray="2 2"/>
<path d="M143.987 5.5306H106.182C93.2984 5.5306 82.4721 14.335 79.3954 26.2532C79.0529 27.5798 77.898 28.5748 76.5274 28.5748C74.8242 28.5748 73.5054 27.0652 73.903 25.4095C77.4032 10.8332 90.5269 0 106.182 0H143.987C162.32 0 177.182 14.8568 177.182 33.1836V41.4795C177.182 43.0067 175.943 44.2448 174.415 44.2448C172.888 44.2448 171.649 43.0067 171.649 41.4795V33.1836C171.649 17.9113 159.264 5.5306 143.987 5.5306Z" fill="#FF6900"/>
<path d="M173.641 59.9148C172.271 59.9148 171.116 60.9098 170.773 62.2364C167.696 74.1546 156.87 82.959 143.987 82.959H106.182C90.9043 82.959 78.5194 70.5783 78.5194 55.306V47.0101C78.5194 45.4829 77.281 44.2448 75.7532 44.2448C74.2255 44.2448 72.987 45.4829 72.987 47.0101V55.306C72.987 73.6328 87.8488 88.4896 106.182 88.4896H143.987C159.642 88.4896 172.765 77.6564 176.266 63.0801C176.663 61.4244 175.344 59.9148 173.641 59.9148Z" fill="#FF6900"/>
<path d="M167.961 27.653C167.961 26.1258 166.722 24.8877 165.195 24.8877H80.3636C69.6694 24.8877 61 33.5542 61 44.2448C61 52.4548 66.113 59.4711 73.3294 62.2851C75.0143 62.9421 76.6753 61.5733 76.6753 59.7654C76.6753 58.4709 75.7953 57.3638 74.6176 56.8254C69.8471 54.6444 66.5325 49.8316 66.5325 44.2448C66.5325 36.6086 72.7249 30.4183 80.3636 30.4183H165.195C166.722 30.4183 167.961 29.1802 167.961 27.653Z" fill="#FF6900"/>
<path d="M173.493 28.3674C173.493 29.7216 174.462 30.8591 175.725 31.3487C180.894 33.3518 184.558 38.3705 184.558 44.2448C184.558 51.881 178.366 58.0713 170.727 58.0713H84.974C83.4462 58.0713 82.2078 59.3094 82.2078 60.8366C82.2078 62.3638 83.4462 63.6019 84.974 63.6019H170.727C181.421 63.6019 190.091 54.9354 190.091 44.2448C190.091 35.6342 184.467 28.3367 176.69 25.823C175.041 25.2898 173.493 26.6344 173.493 28.3674Z" fill="#FF6900"/>
<path fill-rule="evenodd" clip-rule="evenodd" d="M96.9837 82.9273C97.4205 82.8707 97.8572 82.814 98.2975 82.814L130.064 82.8091C134.012 82.8091 137.544 82.8091 137.543 83.7312L137.466 95.4617C137.466 99.416 133.154 102.094 129.252 100.563L96.9606 86.9585L90.9671 83.7312C87.7405 82.4751 88.967 82.5879 91.2979 82.8024C92.9457 82.954 95.1455 83.1564 96.7139 82.9618C96.8039 82.9506 96.8938 82.9389 96.9837 82.9273Z" fill="#FF6900"/>
<circle cx="125.545" cy="44.2446" r="4.68474" fill="#FF6900"/>
<ellipse cx="107.067" cy="44.2446" rx="4.42448" ry="4.68474" fill="#FF6900"/>
<ellipse cx="144.024" cy="44.2446" rx="4.42448" ry="4.68474" fill="#FF6900"/>
</svg>
