<svg width="1000" height="500" viewBox="0 0 1000 500" fill="none" xmlns="http://www.w3.org/2000/svg">
<rect width="1000" height="500" fill="white"/>
<rect x="111" y="47" width="778" height="406" fill="white"/>
<rect x="112.5" y="48.5" width="775" height="403" stroke="#FF6900" stroke-opacity="0.5" stroke-width="3" stroke-dasharray="6 6"/>
<path d="M172.595 419.88V423.38H173.841C174.355 422.96 174.611 422.344 174.611 421.532C174.611 421.187 174.541 420.86 174.401 420.552C174.271 420.244 174.112 420.02 173.925 419.88H172.595ZM170.705 428V418.2H174.499C175.134 418.48 175.633 418.909 175.997 419.488C176.371 420.067 176.557 420.743 176.557 421.518C176.557 422.283 176.366 422.993 175.983 423.646C175.601 424.299 175.036 424.761 174.289 425.032H172.595V428H170.705ZM179.486 426.376H180.746C181.007 426.049 181.213 425.573 181.362 424.948C181.521 424.323 181.6 423.702 181.6 423.086C181.6 421.621 181.325 420.552 180.774 419.88H179.486V426.376ZM177.582 428V418.2H181.642C182.967 419.376 183.63 420.972 183.63 422.988C183.63 424.995 183.009 426.665 181.768 428H177.582ZM184.719 428V418.2H189.829V419.88H186.637V422.33H189.409V423.954H186.637V428H184.719Z" fill="#979797"/>
<path d="M778.548 431.376H779.808C780.069 431.049 780.274 430.573 780.424 429.948C780.582 429.323 780.662 428.702 780.662 428.086C780.662 426.621 780.386 425.552 779.836 424.88H778.548V431.376ZM776.644 433V423.2H780.704C782.029 424.376 782.692 425.972 782.692 427.988C782.692 429.995 782.071 431.665 780.83 433H776.644ZM786.948 429.766H785.45C785.254 430.009 785.156 430.312 785.156 430.676C785.156 431.04 785.258 431.325 785.464 431.53H786.948V429.766ZM783.938 425.846H787.41C787.97 426.182 788.338 426.569 788.516 427.008C788.693 427.437 788.782 428.025 788.782 428.772V430.872C788.782 431.647 788.8 432.356 788.838 433H787.242L786.99 432.496C786.626 432.832 786.112 433 785.45 433H784.568C783.774 432.477 783.378 431.726 783.378 430.746C783.378 429.757 783.784 428.977 784.596 428.408H785.912C786.276 428.408 786.616 428.52 786.934 428.744V428.044C786.934 427.68 786.775 427.437 786.458 427.316H783.938V425.846ZM790.187 429.878V427.316H789.221V425.846H790.187V423.9H792.049V425.846H793.197V427.316H792.049V430.326C792.049 430.895 792.147 431.297 792.343 431.53H793.197V433H791.209C790.714 432.543 790.416 432.048 790.313 431.516C790.229 431.068 790.187 430.522 790.187 429.878ZM797.434 429.766H795.936C795.74 430.009 795.642 430.312 795.642 430.676C795.642 431.04 795.745 431.325 795.95 431.53H797.434V429.766ZM794.424 425.846H797.896C798.456 426.182 798.825 426.569 799.002 427.008C799.179 427.437 799.268 428.025 799.268 428.772V430.872C799.268 431.647 799.287 432.356 799.324 433H797.728L797.476 432.496C797.112 432.832 796.599 433 795.936 433H795.054C794.261 432.477 793.864 431.726 793.864 430.746C793.864 429.757 794.27 428.977 795.082 428.408H796.398C796.762 428.408 797.103 428.52 797.42 428.744V428.044C797.42 427.68 797.261 427.437 796.944 427.316H794.424V425.846ZM800.472 423.2H802.32V426.35C802.525 426.163 802.717 426.033 802.894 425.958C803.081 425.883 803.356 425.846 803.72 425.846H804.84C805.232 426.229 805.54 426.723 805.764 427.33C805.988 427.937 806.1 428.604 806.1 429.332C806.1 430.891 805.633 432.113 804.7 433H803.37C802.913 433 802.53 432.827 802.222 432.482L801.97 433H800.472V423.2ZM802.334 431.53H803.678C804.023 430.942 804.196 430.228 804.196 429.388C804.196 428.548 804.019 427.857 803.664 427.316H802.334V431.53ZM810.477 429.766H808.979C808.783 430.009 808.685 430.312 808.685 430.676C808.685 431.04 808.788 431.325 808.993 431.53H810.477V429.766ZM807.467 425.846H810.939C811.499 426.182 811.868 426.569 812.045 427.008C812.222 427.437 812.311 428.025 812.311 428.772V430.872C812.311 431.647 812.33 432.356 812.367 433H810.771L810.519 432.496C810.155 432.832 809.642 433 808.979 433H808.097C807.304 432.477 806.907 431.726 806.907 430.746C806.907 429.757 807.313 428.977 808.125 428.408H809.441C809.805 428.408 810.146 428.52 810.463 428.744V428.044C810.463 427.68 810.304 427.437 809.987 427.316H807.467V425.846ZM814.215 425.846H817.309V427.316H815.125L816.455 429.29C817.052 430.139 817.384 430.723 817.449 431.04C817.486 431.189 817.505 431.343 817.505 431.502C817.505 432.165 817.258 432.664 816.763 433H813.193V431.53H815.755L814.257 429.332C814.192 429.229 814.089 429.085 813.949 428.898C813.818 428.711 813.716 428.562 813.641 428.45C813.566 428.329 813.515 428.24 813.487 428.184C813.459 428.128 813.422 428.058 813.375 427.974C813.328 427.881 813.296 427.801 813.277 427.736C813.24 427.559 813.221 427.414 813.221 427.302C813.221 426.621 813.552 426.135 814.215 425.846ZM821.507 427.316H820.457C820.317 427.484 820.2 427.717 820.107 428.016C820.023 428.315 819.981 428.604 819.981 428.884H821.983C822.002 428.604 821.964 428.315 821.871 428.016C821.778 427.708 821.656 427.475 821.507 427.316ZM823.411 431.53V433H819.855C819.202 432.561 818.74 432.02 818.469 431.376C818.208 430.723 818.077 430.065 818.077 429.402C818.077 427.871 818.656 426.686 819.813 425.846H822.081C822.706 426.303 823.131 426.789 823.355 427.302C823.579 427.815 823.691 428.333 823.691 428.856C823.691 429.379 823.649 429.827 823.565 430.2H820.079C820.107 430.415 820.186 430.662 820.317 430.942C820.457 431.213 820.606 431.409 820.765 431.53H823.411Z" fill="#979797"/>
<path d="M484.746 431.376H487.21V433H483.654C483.038 432.421 482.572 431.689 482.254 430.802C481.937 429.915 481.778 429.005 481.778 428.072C481.778 427.129 481.956 426.224 482.31 425.356C482.665 424.488 483.192 423.769 483.892 423.2H487.21V424.88H484.746C484.494 425.169 484.275 425.636 484.088 426.28C483.911 426.924 483.822 427.54 483.822 428.128C483.822 428.716 483.911 429.332 484.088 429.976C484.275 430.62 484.494 431.087 484.746 431.376ZM491.429 425.846H492.759C493.17 426.369 493.45 426.891 493.599 427.414C493.749 427.937 493.823 428.59 493.823 429.374V433H491.961V429.234C491.961 428.347 491.84 427.708 491.597 427.316H490.029V433H488.167V423.2H490.029V426.35C490.235 426.163 490.426 426.033 490.603 425.958C490.79 425.883 491.065 425.846 491.429 425.846ZM497.386 433H495.916C495.505 432.477 495.225 431.955 495.076 431.432C494.926 430.909 494.852 430.256 494.852 429.472V425.846H496.714V429.612C496.714 430.461 496.882 431.101 497.218 431.53H498.52V425.846H500.382V433H498.912L498.66 432.496C498.305 432.832 497.88 433 497.386 433ZM504.688 425.846H506.172C506.582 426.369 506.862 426.891 507.012 427.414C507.161 427.937 507.236 428.59 507.236 429.374V433H505.374V429.234C505.374 428.347 505.252 427.708 505.01 427.316H503.442V433H501.58V425.846H503.036L503.288 426.35C503.493 426.163 503.684 426.033 503.862 425.958C504.048 425.883 504.324 425.846 504.688 425.846ZM508.388 433V423.2H510.25V428.394H510.446L511.762 425.846H513.582L511.93 428.968L513.596 433H511.748L510.46 429.864H510.25V433H508.388ZM515.049 425.846H518.143V427.316H515.959L517.289 429.29C517.886 430.139 518.218 430.723 518.283 431.04C518.32 431.189 518.339 431.343 518.339 431.502C518.339 432.165 518.092 432.664 517.597 433H514.027V431.53H516.589L515.091 429.332C515.026 429.229 514.923 429.085 514.783 428.898C514.652 428.711 514.55 428.562 514.475 428.45C514.4 428.329 514.349 428.24 514.321 428.184C514.293 428.128 514.256 428.058 514.209 427.974C514.162 427.881 514.13 427.801 514.111 427.736C514.074 427.559 514.055 427.414 514.055 427.302C514.055 426.621 514.386 426.135 515.049 425.846Z" fill="#979797"/>
<path d="M117.294 25.08V31.08H119.43C120.31 30.36 120.75 29.304 120.75 27.912C120.75 27.32 120.63 26.76 120.39 26.232C120.166 25.704 119.894 25.32 119.574 25.08H117.294ZM114.054 39V22.2H120.558C121.646 22.68 122.502 23.416 123.126 24.408C123.766 25.4 124.086 26.56 124.086 27.888C124.086 29.2 123.758 30.416 123.102 31.536C122.446 32.656 121.478 33.448 120.198 33.912H117.294V39H114.054ZM125.747 39V26.736H128.027L128.627 28.032C129.267 27.168 130.075 26.736 131.051 26.736H131.987V29.952H128.939V39H125.747ZM138.463 29.256H136.663C136.423 29.544 136.223 29.944 136.063 30.456C135.919 30.968 135.847 31.464 135.847 31.944H139.279C139.311 31.464 139.247 30.968 139.087 30.456C138.927 29.928 138.719 29.528 138.463 29.256ZM141.727 36.48V39H135.631C134.511 38.248 133.719 37.32 133.255 36.216C132.807 35.096 132.583 33.968 132.583 32.832C132.583 30.208 133.575 28.176 135.559 26.736H139.447C140.519 27.52 141.247 28.352 141.631 29.232C142.015 30.112 142.207 31 142.207 31.896C142.207 32.792 142.135 33.56 141.991 34.2H136.015C136.063 34.568 136.199 34.992 136.423 35.472C136.663 35.936 136.919 36.272 137.191 36.48H141.727ZM143.817 26.736H146.385L146.745 27.6C147.097 27.28 147.425 27.056 147.729 26.928C148.049 26.8 148.521 26.736 149.145 26.736H151.305C151.977 27.392 152.505 28.24 152.889 29.28C153.273 30.32 153.465 31.464 153.465 32.712C153.465 35.384 152.665 37.48 151.065 39H149.025C148.177 39 147.505 38.776 147.009 38.328V42.6H143.817V26.736ZM147.009 36.48H149.313C149.905 35.472 150.201 34.248 150.201 32.808C150.201 31.368 149.897 30.184 149.289 29.256H147.009V36.48ZM155.208 39V26.736H157.488L158.088 28.032C158.728 27.168 159.536 26.736 160.512 26.736H161.448V29.952H158.4V39H155.208ZM169.676 39H164.444C162.844 37.512 162.044 35.48 162.044 32.904C162.044 31.608 162.22 30.48 162.572 29.52C162.94 28.56 163.516 27.632 164.3 26.736H169.916C170.748 27.696 171.316 28.632 171.62 29.544C171.924 30.44 172.076 31.56 172.076 32.904C172.076 35.48 171.276 37.512 169.676 39ZM166.148 36.48H167.972C168.548 35.36 168.836 34.088 168.836 32.664C168.836 31.24 168.54 30.104 167.948 29.256H166.148C165.572 30.072 165.284 31.232 165.284 32.736C165.284 34.224 165.572 35.472 166.148 36.48ZM176.77 32.76C176.77 33.432 176.874 34.12 177.082 34.824C177.29 35.512 177.578 36.064 177.946 36.48H181.546V39H176.29C174.402 37.496 173.458 35.416 173.458 32.76C173.458 30.104 174.466 28.096 176.482 26.736H181.546V29.256H177.946C177.162 30.072 176.77 31.24 176.77 32.76ZM188.221 29.256H186.421C186.181 29.544 185.981 29.944 185.821 30.456C185.677 30.968 185.605 31.464 185.605 31.944H189.037C189.069 31.464 189.005 30.968 188.845 30.456C188.685 29.928 188.477 29.528 188.221 29.256ZM191.485 36.48V39H185.389C184.269 38.248 183.477 37.32 183.013 36.216C182.565 35.096 182.341 33.968 182.341 32.832C182.341 30.208 183.333 28.176 185.317 26.736H189.205C190.277 27.52 191.005 28.352 191.389 29.232C191.773 30.112 191.965 31 191.965 31.896C191.965 32.792 191.893 33.56 191.749 34.2H185.773C185.821 34.568 185.957 34.992 186.181 35.472C186.421 35.936 186.677 36.272 186.949 36.48H191.485ZM194.4 26.736H199.704V29.256H195.96L198.24 32.64C199.264 34.096 199.832 35.096 199.944 35.64C200.008 35.896 200.04 36.16 200.04 36.432C200.04 37.568 199.616 38.424 198.768 39H192.648V36.48H197.04L194.472 32.712C194.36 32.536 194.184 32.288 193.944 31.968C193.72 31.648 193.544 31.392 193.416 31.2C193.288 30.992 193.2 30.84 193.152 30.744C193.104 30.648 193.04 30.528 192.96 30.384C192.88 30.224 192.824 30.088 192.792 29.976C192.728 29.672 192.696 29.424 192.696 29.232C192.696 28.064 193.264 27.232 194.4 26.736ZM202.791 26.736H208.095V29.256H204.351L206.631 32.64C207.655 34.096 208.223 35.096 208.335 35.64C208.399 35.896 208.431 36.16 208.431 36.432C208.431 37.568 208.007 38.424 207.159 39H201.039V36.48H205.431L202.863 32.712C202.751 32.536 202.575 32.288 202.335 31.968C202.111 31.648 201.935 31.392 201.807 31.2C201.679 30.992 201.591 30.84 201.543 30.744C201.495 30.648 201.431 30.528 201.351 30.384C201.271 30.224 201.215 30.088 201.183 29.976C201.119 29.672 201.087 29.424 201.087 29.232C201.087 28.064 201.655 27.232 202.791 26.736ZM209.981 39V26.736H213.149V39H209.981ZM209.981 22.2H213.149V25.44H209.981V22.2ZM220.536 26.736H223.08C223.784 27.632 224.264 28.528 224.52 29.424C224.776 30.32 224.904 31.44 224.904 32.784V39H221.712V32.544C221.712 31.024 221.504 29.928 221.088 29.256H218.4V39H215.208V26.736H217.704L218.136 27.6C218.488 27.28 218.816 27.056 219.12 26.928C219.44 26.8 219.912 26.736 220.536 26.736ZM236.168 26.736V37.728C236.168 38.944 236.008 39.92 235.688 40.656C235.384 41.392 234.768 42.04 233.84 42.6H228.368V40.104H232.472C232.872 39.864 233.072 39.48 233.072 38.952V37.536C232.48 38.032 231.536 38.28 230.24 38.28H228.488C227.192 36.728 226.544 34.928 226.544 32.88C226.544 31.408 226.752 30.208 227.168 29.28C227.584 28.336 228.192 27.488 228.992 26.736H230.768C231.808 26.736 232.632 27.072 233.24 27.744L233.672 26.736H236.168ZM232.976 29.256H230.648C230.072 30.248 229.784 31.392 229.784 32.688C229.784 33.968 230.032 35.024 230.528 35.856H232.976V29.256Z" fill="#979797"/>
<path d="M748.061 342.061C748.646 341.475 748.646 340.525 748.061 339.939L738.515 330.393C737.929 329.808 736.979 329.808 736.393 330.393C735.808 330.979 735.808 331.929 736.393 332.515L744.879 341L736.393 349.485C735.808 350.071 735.808 351.021 736.393 351.607C736.979 352.192 737.929 352.192 738.515 351.607L748.061 342.061ZM687 342.5H747V339.5H687V342.5Z" fill="#0D0C0C"/>
<path d="M622.061 342.061C622.646 341.475 622.646 340.525 622.061 339.939L612.515 330.393C611.929 329.808 610.979 329.808 610.393 330.393C609.808 330.979 609.808 331.929 610.393 332.515L618.879 341L610.393 349.485C609.808 350.071 609.808 351.021 610.393 351.607C610.979 352.192 611.929 352.192 612.515 351.607L622.061 342.061ZM561 342.5H621V339.5H561V342.5Z" fill="#0D0C0C"/>
<path d="M437.061 346.061C437.646 345.475 437.646 344.525 437.061 343.939L427.515 334.393C426.929 333.808 425.979 333.808 425.393 334.393C424.808 334.979 424.808 335.929 425.393 336.515L433.879 345L425.393 353.485C424.808 354.071 424.808 355.021 425.393 355.607C425.979 356.192 426.929 356.192 427.515 355.607L437.061 346.061ZM376 346.5H436V343.5H376V346.5Z" fill="#0D0C0C"/>
<g clip-path="url(#clip0_12_2)">
<path d="M213.878 378.059H151.143C149.948 378.059 148.98 377.093 148.98 375.902V283.157C148.98 281.966 149.948 281 151.143 281H198.735C199.308 281 199.859 281.227 200.264 281.632L215.407 296.73C215.813 297.134 216.041 297.683 216.041 298.255V324.137C216.041 325.328 215.072 326.294 213.878 326.294C212.683 326.294 211.714 325.328 211.714 324.137V299.148L197.838 285.314H153.306V373.745H211.714V362.961C211.714 361.77 212.683 360.804 213.878 360.804C215.072 360.804 216.041 361.77 216.041 362.961V375.902C216.041 377.093 215.072 378.059 213.878 378.059Z" fill="black"/>
<path d="M198.735 391H138.163C136.968 391 136 390.034 136 388.843V300.412C136 299.221 136.968 298.255 138.163 298.255H151.143C152.338 298.255 153.306 299.221 153.306 300.412C153.306 301.603 152.338 302.569 151.143 302.569H140.327V386.686H196.571V375.902C196.571 374.711 197.54 373.745 198.735 373.745C199.929 373.745 200.898 374.711 200.898 375.902V388.843C200.898 390.034 199.929 391 198.735 391ZM213.878 300.412H198.735C197.54 300.412 196.571 299.446 196.571 298.255V283.157C196.571 281.966 197.54 281 198.735 281C199.929 281 200.898 281.966 200.898 283.157V296.098H213.878C215.072 296.098 216.041 297.064 216.041 298.255C216.041 299.446 215.072 300.412 213.878 300.412Z" fill="black"/>
<path d="M239.837 365.118H172.776C171.581 365.118 170.612 364.152 170.612 362.961V324.137C170.612 322.946 171.581 321.98 172.776 321.98H239.837C241.031 321.98 242 322.946 242 324.137V362.961C242 364.152 241.031 365.118 239.837 365.118ZM174.939 360.804H237.673V326.294H174.939V360.804Z" fill="black"/>
<path d="M181.429 356.49C180.234 356.49 179.265 355.524 179.265 354.333V332.765C179.265 331.573 180.234 330.608 181.429 330.608H186.837C191.012 330.608 194.408 333.994 194.408 338.157C194.408 342.319 191.012 345.706 186.837 345.706H183.592V354.333C183.592 355.524 182.623 356.49 181.429 356.49ZM183.592 341.392H186.837C188.626 341.392 190.082 339.941 190.082 338.157C190.082 336.373 188.626 334.922 186.837 334.922H183.592V341.392ZM204.576 356.49H200.898C199.703 356.49 198.735 355.524 198.735 354.333V332.765C198.735 331.573 199.703 330.608 200.898 330.608H204.576C210.898 330.608 216.041 335.736 216.041 342.039V345.059C216.041 351.362 210.898 356.49 204.576 356.49ZM203.061 352.176H204.576C208.512 352.176 211.714 348.983 211.714 345.059V342.039C211.714 338.115 208.512 334.922 204.576 334.922H203.061V352.176ZM222.531 356.49C221.336 356.49 220.367 355.524 220.367 354.333V332.765C220.367 331.573 221.336 330.608 222.531 330.608H231.184C232.378 330.608 233.347 331.573 233.347 332.765C233.347 333.956 232.378 334.922 231.184 334.922H224.694V354.333C224.694 355.524 223.725 356.49 222.531 356.49Z" fill="black"/>
<path d="M229.02 345.706H222.531C221.336 345.706 220.367 344.74 220.367 343.549C220.367 342.358 221.336 341.392 222.531 341.392H229.02C230.215 341.392 231.184 342.358 231.184 343.549C231.184 344.74 230.215 345.706 229.02 345.706ZM205.224 317.667H159.796C158.601 317.667 157.633 316.701 157.633 315.51C157.633 314.319 158.601 313.353 159.796 313.353H205.224C206.419 313.353 207.388 314.319 207.388 315.51C207.388 316.701 206.419 317.667 205.224 317.667ZM205.224 309.039H159.796C158.601 309.039 157.633 308.074 157.633 306.882C157.633 305.691 158.601 304.725 159.796 304.725H205.224C206.419 304.725 207.388 305.691 207.388 306.882C207.388 308.074 206.419 309.039 205.224 309.039ZM181.429 300.412H159.796C158.601 300.412 157.633 299.446 157.633 298.255C157.633 297.064 158.601 296.098 159.796 296.098H181.429C182.623 296.098 183.592 297.064 183.592 298.255C183.592 299.446 182.623 300.412 181.429 300.412Z" fill="black"/>
</g>
<path d="M837.006 275C823.559 275 812.287 283.91 808.494 296.079H760.575C757.03 296.079 754.148 298.965 754.148 302.491V321.325C754.148 323.141 754.925 324.76 756.154 325.928C755.484 326.517 754.946 327.241 754.575 328.051C754.204 328.861 754.008 329.739 754 330.63V349.464C754.004 350.338 754.191 351.203 754.547 352.002C754.903 352.802 755.421 353.519 756.069 354.109C755.422 354.701 754.904 355.419 754.548 356.22C754.192 357.02 754.005 357.886 754 358.761V377.595C754 381.128 756.896 384 760.441 384H839.329C841.034 384 842.668 383.325 843.874 382.124C845.079 380.923 845.756 379.294 845.756 377.595V358.761C845.751 357.886 845.564 357.02 845.208 356.22C844.852 355.419 844.334 354.701 843.687 354.109C844.335 353.519 844.853 352.802 845.209 352.002C845.565 351.203 845.752 350.338 845.756 349.464V333.325C858.009 329.581 867 318.334 867 304.898C866.993 296.972 863.83 289.373 858.207 283.768C852.584 278.163 844.959 275.009 837.006 275ZM837.006 278.519C844.022 278.528 850.749 281.311 855.71 286.256C860.671 291.201 863.461 297.905 863.469 304.898C863.459 311.89 860.668 318.592 855.708 323.536C850.747 328.479 844.021 331.261 837.006 331.27C829.989 331.263 823.261 328.482 818.299 323.538C813.337 318.594 810.545 311.891 810.535 304.898C810.543 297.904 813.334 291.199 818.297 286.254C823.259 281.308 829.988 278.527 837.006 278.519ZM848.517 293.714L830.579 311.591L823.481 304.511L820.981 307.01L829.322 315.322C829.484 315.487 829.678 315.618 829.892 315.708C830.106 315.798 830.336 315.844 830.568 315.844C830.8 315.844 831.03 315.798 831.244 315.708C831.458 315.618 831.652 315.487 831.815 315.322L851.011 296.199L848.51 293.714H848.517ZM760.568 299.591H807.534C807.197 301.341 807.017 303.117 806.997 304.898C806.997 312.302 809.822 318.989 814.307 324.211H760.568C759.8 324.211 759.064 323.907 758.521 323.366C757.978 322.824 757.673 322.09 757.673 321.325V302.498C757.673 300.9 758.972 299.591 760.568 299.591ZM766.388 310.149V313.668H794.616V310.149H766.388ZM760.441 327.723H817.894C823.107 332.058 829.703 334.782 837.006 334.782C838.792 334.782 840.53 334.55 842.232 334.247V349.45C842.232 350.215 841.927 350.949 841.384 351.49C840.841 352.031 840.104 352.335 839.336 352.335H760.434C759.665 352.335 758.927 352.032 758.381 351.491C757.836 350.95 757.528 350.216 757.524 349.45V330.637C757.524 329.039 758.838 327.737 760.434 327.737L760.441 327.723ZM829.872 337.928C829.34 337.969 828.843 338.208 828.481 338.598C828.118 338.989 827.916 339.501 827.916 340.033C827.916 340.591 828.138 341.127 828.534 341.523C828.93 341.919 829.467 342.142 830.028 342.144C830.59 342.144 831.129 341.922 831.526 341.526C831.923 341.13 832.147 340.593 832.147 340.033C832.145 339.474 831.921 338.939 831.524 338.544C831.126 338.15 830.589 337.928 830.028 337.928C829.976 337.926 829.924 337.926 829.872 337.928ZM768.16 338.273V341.792H796.389V338.273H768.16ZM760.441 355.861H839.329C840.932 355.861 842.225 357.171 842.225 358.761V377.595C842.225 377.974 842.15 378.349 842.004 378.7C841.859 379.05 841.646 379.368 841.377 379.636C841.108 379.904 840.789 380.116 840.437 380.261C840.086 380.406 839.709 380.481 839.329 380.481H760.441C759.672 380.481 758.934 380.177 758.388 379.637C757.843 379.096 757.535 378.362 757.531 377.595V358.761C757.531 357.163 758.845 355.861 760.441 355.861ZM829.682 366.067C829.148 366.108 828.65 366.348 828.288 366.74C827.925 367.131 827.724 367.645 827.725 368.178C827.725 368.737 827.948 369.273 828.344 369.669C828.739 370.065 829.276 370.288 829.837 370.29C830.399 370.29 830.938 370.067 831.335 369.671C831.733 369.275 831.956 368.738 831.956 368.178C831.956 367.618 831.733 367.081 831.335 366.685C830.938 366.289 830.399 366.067 829.837 366.067C829.785 366.065 829.734 366.065 829.682 366.067ZM768.16 366.419V369.938H796.389V366.419H768.16Z" fill="#231F20"/>
<rect x="237.5" y="67.5" width="210" height="141" rx="13.5" fill="#FFC59C" stroke="#FF6900" stroke-width="3" stroke-linejoin="round" stroke-dasharray="6 6"/>
<path d="M286.085 89.144H287.525C287.823 88.7707 288.058 88.2267 288.229 87.512C288.41 86.7973 288.501 86.088 288.501 85.384C288.501 83.7093 288.186 82.488 287.557 81.72H286.085V89.144ZM283.909 91V79.8H288.549C290.063 81.144 290.821 82.968 290.821 85.272C290.821 87.5653 290.111 89.4747 288.693 91H283.909ZM296.849 91H293.361C292.294 90.008 291.761 88.6533 291.761 86.936C291.761 86.072 291.878 85.32 292.113 84.68C292.358 84.04 292.742 83.4213 293.265 82.824H297.009C297.564 83.464 297.942 84.088 298.145 84.696C298.348 85.2933 298.449 86.04 298.449 86.936C298.449 88.6533 297.916 90.008 296.849 91ZM294.497 89.32H295.713C296.097 88.5733 296.289 87.7253 296.289 86.776C296.289 85.8267 296.092 85.0693 295.697 84.504H294.497C294.113 85.048 293.921 85.8213 293.921 86.824C293.921 87.816 294.113 88.648 294.497 89.32ZM301.578 86.84C301.578 87.288 301.648 87.7467 301.786 88.216C301.925 88.6747 302.117 89.0427 302.362 89.32H304.762V91H301.258C300 89.9973 299.37 88.6107 299.37 86.84C299.37 85.0693 300.042 83.7307 301.386 82.824H304.762V84.504H302.362C301.84 85.048 301.578 85.8267 301.578 86.84ZM308.661 91H306.981C306.511 90.4027 306.191 89.8053 306.021 89.208C305.85 88.6107 305.765 87.864 305.765 86.968V82.824H307.893V87.128C307.893 88.0987 308.085 88.8293 308.469 89.32H309.957V82.824H312.085V91H310.405L310.117 90.424C309.711 90.808 309.226 91 308.661 91ZM317.006 82.824H318.142L318.542 83.384C318.766 83.1813 318.979 83.0373 319.182 82.952C319.395 82.8667 319.71 82.824 320.126 82.824H321.902C322.371 83.4213 322.691 84.0187 322.862 84.616C323.032 85.2133 323.118 85.96 323.118 86.856V91H320.99V86.696C320.99 85.7147 320.84 84.984 320.542 84.504H319.006C319.24 84.9627 319.358 85.5867 319.358 86.376V91H317.23V86.696C317.23 85.6827 317.091 84.952 316.814 84.504H315.582V91H313.454V82.824H315.118L315.406 83.4C315.64 83.1867 315.859 83.0373 316.062 82.952C316.275 82.8667 316.59 82.824 317.006 82.824ZM328.118 84.504H326.918C326.758 84.696 326.625 84.9627 326.518 85.304C326.422 85.6453 326.374 85.976 326.374 86.296H328.662C328.684 85.976 328.641 85.6453 328.534 85.304C328.428 84.952 328.289 84.6853 328.118 84.504ZM330.294 89.32V91H326.23C325.484 90.4987 324.956 89.88 324.646 89.144C324.348 88.3973 324.198 87.6453 324.198 86.888C324.198 85.1387 324.86 83.784 326.182 82.824H328.774C329.489 83.3467 329.974 83.9013 330.23 84.488C330.486 85.0747 330.614 85.6667 330.614 86.264C330.614 86.8613 330.566 87.3733 330.47 87.8H326.486C326.518 88.0453 326.609 88.328 326.758 88.648C326.918 88.9573 327.089 89.1813 327.27 89.32H330.294ZM335.24 82.824H336.936C337.405 83.4213 337.725 84.0187 337.896 84.616C338.067 85.2133 338.152 85.96 338.152 86.856V91H336.024V86.696C336.024 85.6827 335.885 84.952 335.608 84.504H333.816V91H331.688V82.824H333.352L333.64 83.4C333.875 83.1867 334.093 83.0373 334.296 82.952C334.509 82.8667 334.824 82.824 335.24 82.824ZM339.699 87.432V84.504H338.595V82.824H339.699V80.6H341.827V82.824H343.139V84.504H341.827V87.944C341.827 88.5947 341.939 89.0533 342.163 89.32H343.139V91H340.867C340.302 90.4773 339.961 89.912 339.843 89.304C339.747 88.792 339.699 88.168 339.699 87.432ZM349.95 89.144H352.766V91H348.702C347.998 90.3387 347.465 89.5013 347.102 88.488C346.739 87.4747 346.558 86.4347 346.558 85.368C346.558 84.2907 346.761 83.256 347.166 82.264C347.571 81.272 348.174 80.4507 348.974 79.8H352.766V81.72H349.95C349.662 82.0507 349.411 82.584 349.198 83.32C348.995 84.056 348.894 84.76 348.894 85.432C348.894 86.104 348.995 86.808 349.198 87.544C349.411 88.28 349.662 88.8133 349.95 89.144ZM357.588 82.824H359.108C359.577 83.4213 359.897 84.0187 360.068 84.616C360.239 85.2133 360.324 85.96 360.324 86.856V91H358.196V86.696C358.196 85.6827 358.057 84.952 357.78 84.504H355.988V91H353.86V79.8H355.988V83.4C356.223 83.1867 356.441 83.0373 356.644 82.952C356.857 82.8667 357.172 82.824 357.588 82.824ZM364.395 91H362.715C362.246 90.4027 361.926 89.8053 361.755 89.208C361.584 88.6107 361.499 87.864 361.499 86.968V82.824H363.627V87.128C363.627 88.0987 363.819 88.8293 364.203 89.32H365.691V82.824H367.819V91H366.139L365.851 90.424C365.446 90.808 364.96 91 364.395 91ZM372.74 82.824H374.436C374.905 83.4213 375.225 84.0187 375.396 84.616C375.567 85.2133 375.652 85.96 375.652 86.856V91H373.524V86.696C373.524 85.6827 373.385 84.952 373.108 84.504H371.316V91H369.188V82.824H370.852L371.14 83.4C371.375 83.1867 371.593 83.0373 371.796 82.952C372.009 82.8667 372.324 82.824 372.74 82.824ZM376.969 91V79.8H379.097V85.736H379.321L380.825 82.824H382.905L381.017 86.392L382.921 91H380.809L379.337 87.416H379.097V91H376.969ZM383.782 91V82.824H385.894V91H383.782ZM383.782 79.8H385.894V81.96H383.782V79.8ZM390.818 82.824H392.514C392.983 83.4213 393.303 84.0187 393.474 84.616C393.645 85.2133 393.73 85.96 393.73 86.856V91H391.602V86.696C391.602 85.6827 391.463 84.952 391.186 84.504H389.394V91H387.266V82.824H388.93L389.218 83.4C389.453 83.1867 389.671 83.0373 389.874 82.952C390.087 82.8667 390.402 82.824 390.818 82.824ZM401.239 82.824V90.152C401.239 90.9627 401.133 91.6133 400.919 92.104C400.717 92.5947 400.306 93.0267 399.687 93.4H396.039V91.736H398.775C399.042 91.576 399.175 91.32 399.175 90.968V90.024C398.781 90.3547 398.151 90.52 397.287 90.52H396.119C395.255 89.4853 394.823 88.2853 394.823 86.92C394.823 85.9387 394.962 85.1387 395.239 84.52C395.517 83.8907 395.922 83.3253 396.455 82.824H397.639C398.333 82.824 398.882 83.048 399.287 83.496L399.575 82.824H401.239ZM399.111 84.504H397.559C397.175 85.1653 396.983 85.928 396.983 86.792C396.983 87.6453 397.149 88.3493 397.479 88.904H399.111V84.504Z" fill="black"/>
<path d="M250.76 126.04H248.948V124.6H254.204V126.04H252.392V133H250.76V126.04ZM257.636 126.868H258.776C259.128 127.316 259.368 127.764 259.496 128.212C259.624 128.66 259.688 129.22 259.688 129.892V133H258.092V129.772C258.092 129.012 257.988 128.464 257.78 128.128H256.436V133H254.84V124.6H256.436V127.3C256.612 127.14 256.776 127.028 256.928 126.964C257.088 126.9 257.324 126.868 257.636 126.868ZM263.448 128.128H262.548C262.428 128.272 262.328 128.472 262.248 128.728C262.176 128.984 262.14 129.232 262.14 129.472H263.856C263.872 129.232 263.84 128.984 263.76 128.728C263.68 128.464 263.576 128.264 263.448 128.128ZM265.08 131.74V133H262.032C261.472 132.624 261.076 132.16 260.844 131.608C260.62 131.048 260.508 130.484 260.508 129.916C260.508 128.604 261.004 127.588 261.996 126.868H263.94C264.476 127.26 264.84 127.676 265.032 128.116C265.224 128.556 265.32 129 265.32 129.448C265.32 129.896 265.284 130.28 265.212 130.6H262.224C262.248 130.784 262.316 130.996 262.428 131.236C262.548 131.468 262.676 131.636 262.812 131.74H265.08ZM268.047 126.868H269.331L269.511 127.3C269.687 127.14 269.851 127.028 270.003 126.964C270.163 126.9 270.399 126.868 270.711 126.868H271.791C272.127 127.196 272.391 127.62 272.583 128.14C272.775 128.66 272.871 129.232 272.871 129.856C272.871 131.192 272.471 132.24 271.671 133H270.651C270.227 133 269.891 132.888 269.643 132.664V134.8H268.047V126.868ZM269.643 131.74H270.795C271.091 131.236 271.239 130.624 271.239 129.904C271.239 129.184 271.087 128.592 270.783 128.128H269.643V131.74ZM273.743 133V126.868H274.883L275.183 127.516C275.503 127.084 275.907 126.868 276.395 126.868H276.863V128.476H275.339V133H273.743ZM280.977 133H278.361C277.561 132.256 277.161 131.24 277.161 129.952C277.161 129.304 277.249 128.74 277.425 128.26C277.609 127.78 277.897 127.316 278.289 126.868H281.097C281.513 127.348 281.797 127.816 281.949 128.272C282.101 128.72 282.177 129.28 282.177 129.952C282.177 131.24 281.777 132.256 280.977 133ZM279.213 131.74H280.125C280.413 131.18 280.557 130.544 280.557 129.832C280.557 129.12 280.409 128.552 280.113 128.128H279.213C278.925 128.536 278.781 129.116 278.781 129.868C278.781 130.612 278.925 131.236 279.213 131.74ZM284.524 129.88C284.524 130.216 284.576 130.56 284.68 130.912C284.784 131.256 284.928 131.532 285.112 131.74H286.912V133H284.284C283.34 132.248 282.868 131.208 282.868 129.88C282.868 128.552 283.372 127.548 284.38 126.868H286.912V128.128H285.112C284.72 128.536 284.524 129.12 284.524 129.88ZM290.249 128.128H289.349C289.229 128.272 289.129 128.472 289.049 128.728C288.977 128.984 288.941 129.232 288.941 129.472H290.657C290.673 129.232 290.641 128.984 290.561 128.728C290.481 128.464 290.377 128.264 290.249 128.128ZM291.881 131.74V133H288.833C288.273 132.624 287.877 132.16 287.645 131.608C287.421 131.048 287.309 130.484 287.309 129.916C287.309 128.604 287.805 127.588 288.797 126.868H290.741C291.277 127.26 291.641 127.676 291.833 128.116C292.025 128.556 292.121 129 292.121 129.448C292.121 129.896 292.085 130.28 292.013 130.6H289.025C289.049 130.784 289.117 130.996 289.229 131.236C289.349 131.468 289.477 131.636 289.613 131.74H291.881ZM293.339 126.868H295.991V128.128H294.119L295.259 129.82C295.771 130.548 296.055 131.048 296.111 131.32C296.143 131.448 296.159 131.58 296.159 131.716C296.159 132.284 295.947 132.712 295.523 133H292.463V131.74H294.659L293.375 129.856C293.319 129.768 293.231 129.644 293.111 129.484C292.999 129.324 292.911 129.196 292.847 129.1C292.783 128.996 292.739 128.92 292.715 128.872C292.691 128.824 292.659 128.764 292.619 128.692C292.579 128.612 292.551 128.544 292.535 128.488C292.503 128.336 292.487 128.212 292.487 128.116C292.487 127.532 292.771 127.116 293.339 126.868ZM297.534 126.868H300.186V128.128H298.314L299.454 129.82C299.966 130.548 300.25 131.048 300.306 131.32C300.338 131.448 300.354 131.58 300.354 131.716C300.354 132.284 300.142 132.712 299.718 133H296.658V131.74H298.854L297.57 129.856C297.514 129.768 297.426 129.644 297.306 129.484C297.194 129.324 297.106 129.196 297.042 129.1C296.978 128.996 296.934 128.92 296.91 128.872C296.886 128.824 296.854 128.764 296.814 128.692C296.774 128.612 296.746 128.544 296.73 128.488C296.698 128.336 296.682 128.212 296.682 128.116C296.682 127.532 296.966 127.116 297.534 126.868ZM303.051 133V126.868H304.635V133H303.051ZM303.051 124.6H304.635V126.22H303.051V124.6ZM308.328 126.868H309.6C309.952 127.316 310.192 127.764 310.32 128.212C310.448 128.66 310.512 129.22 310.512 129.892V133H308.916V129.772C308.916 129.012 308.812 128.464 308.604 128.128H307.26V133H305.664V126.868H306.912L307.128 127.3C307.304 127.14 307.468 127.028 307.62 126.964C307.78 126.9 308.016 126.868 308.328 126.868ZM314.932 133H312.712C312.328 132.688 312.024 132.276 311.8 131.764C311.576 131.252 311.464 130.684 311.464 130.06V126.868H313.06V130.012C313.06 130.716 313.192 131.292 313.456 131.74H314.188C314.452 131.268 314.584 130.696 314.584 130.024V126.868H316.18V130C316.18 130.632 316.068 131.212 315.844 131.74C315.62 132.268 315.316 132.688 314.932 133ZM320.762 133H318.146C317.346 132.256 316.946 131.24 316.946 129.952C316.946 129.304 317.034 128.74 317.21 128.26C317.394 127.78 317.682 127.316 318.074 126.868H320.882C321.298 127.348 321.582 127.816 321.734 128.272C321.886 128.72 321.962 129.28 321.962 129.952C321.962 131.24 321.562 132.256 320.762 133ZM318.998 131.74H319.91C320.198 131.18 320.342 130.544 320.342 129.832C320.342 129.12 320.194 128.552 319.898 128.128H318.998C318.71 128.536 318.566 129.116 318.566 129.868C318.566 130.612 318.71 131.236 318.998 131.74ZM324.405 124.6V133H322.821V124.6H324.405ZM328.866 133H326.646C326.262 132.688 325.958 132.276 325.734 131.764C325.51 131.252 325.398 130.684 325.398 130.06V126.868H326.994V130.012C326.994 130.716 327.126 131.292 327.39 131.74H328.122C328.386 131.268 328.518 130.696 328.518 130.024V126.868H330.114V130C330.114 130.632 330.002 131.212 329.778 131.74C329.554 132.268 329.25 132.688 328.866 133ZM333.819 128.128H332.919C332.799 128.272 332.699 128.472 332.619 128.728C332.547 128.984 332.511 129.232 332.511 129.472H334.227C334.243 129.232 334.211 128.984 334.131 128.728C334.051 128.464 333.947 128.264 333.819 128.128ZM335.451 131.74V133H332.403C331.843 132.624 331.447 132.16 331.215 131.608C330.991 131.048 330.879 130.484 330.879 129.916C330.879 128.604 331.375 127.588 332.367 126.868H334.311C334.847 127.26 335.211 127.676 335.403 128.116C335.595 128.556 335.691 129 335.691 129.448C335.691 129.896 335.655 130.28 335.583 130.6H332.595C332.619 130.784 332.687 130.996 332.799 131.236C332.919 131.468 333.047 131.636 333.183 131.74H335.451ZM336.909 126.868H339.561V128.128H337.689L338.829 129.82C339.341 130.548 339.625 131.048 339.681 131.32C339.713 131.448 339.729 131.58 339.729 131.716C339.729 132.284 339.517 132.712 339.093 133H336.033V131.74H338.229L336.945 129.856C336.889 129.768 336.801 129.644 336.681 129.484C336.569 129.324 336.481 129.196 336.417 129.1C336.353 128.996 336.309 128.92 336.285 128.872C336.261 128.824 336.229 128.764 336.189 128.692C336.149 128.612 336.121 128.544 336.105 128.488C336.073 128.336 336.057 128.212 336.057 128.116C336.057 127.532 336.341 127.116 336.909 126.868ZM343.026 126.868H345.678V128.128H343.806L344.946 129.82C345.458 130.548 345.742 131.048 345.798 131.32C345.83 131.448 345.846 131.58 345.846 131.716C345.846 132.284 345.634 132.712 345.21 133H342.15V131.74H344.346L343.062 129.856C343.006 129.768 342.918 129.644 342.798 129.484C342.686 129.324 342.598 129.196 342.534 129.1C342.47 128.996 342.426 128.92 342.402 128.872C342.378 128.824 342.346 128.764 342.306 128.692C342.266 128.612 342.238 128.544 342.222 128.488C342.19 128.336 342.174 128.212 342.174 128.116C342.174 127.532 342.458 127.116 343.026 126.868ZM346.621 126.868H347.905L348.085 127.3C348.261 127.14 348.425 127.028 348.577 126.964C348.737 126.9 348.973 126.868 349.285 126.868H350.365C350.701 127.196 350.965 127.62 351.157 128.14C351.349 128.66 351.445 129.232 351.445 129.856C351.445 131.192 351.045 132.24 350.245 133H349.225C348.801 133 348.465 132.888 348.217 132.664V134.8H346.621V126.868ZM348.217 131.74H349.369C349.665 131.236 349.813 130.624 349.813 129.904C349.813 129.184 349.661 128.592 349.357 128.128H348.217V131.74ZM353.889 124.6V133H352.305V124.6H353.889ZM354.918 133V126.868H356.502V133H354.918ZM354.918 124.6H356.502V126.22H354.918V124.6ZM360.928 130.324V128.128H359.488V130.708C359.488 131.196 359.572 131.54 359.74 131.74H360.472V133H358.768C358.344 132.608 358.088 132.184 358 131.728C357.928 131.344 357.892 130.876 357.892 130.324V128.128H357.064V126.868H357.892V125.2H359.488V126.868H360.928V125.2H362.524V126.868H363.508V128.128H362.524V130.708C362.524 131.196 362.608 131.54 362.776 131.74H363.508V133H361.804C361.38 132.608 361.124 132.184 361.036 131.728C360.964 131.344 360.928 130.876 360.928 130.324ZM364.317 133V126.868H365.901V133H364.317ZM364.317 124.6H365.901V126.22H364.317V124.6ZM369.594 126.868H370.866C371.218 127.316 371.458 127.764 371.586 128.212C371.714 128.66 371.778 129.22 371.778 129.892V133H370.182V129.772C370.182 129.012 370.078 128.464 369.87 128.128H368.526V133H366.93V126.868H368.178L368.394 127.3C368.57 127.14 368.734 127.028 368.886 126.964C369.046 126.9 369.282 126.868 369.594 126.868ZM377.41 126.868V132.364C377.41 132.972 377.33 133.46 377.17 133.828C377.018 134.196 376.71 134.52 376.246 134.8H373.51V133.552H375.562C375.762 133.432 375.862 133.24 375.862 132.976V132.268C375.566 132.516 375.094 132.64 374.446 132.64H373.57C372.922 131.864 372.598 130.964 372.598 129.94C372.598 129.204 372.702 128.604 372.91 128.14C373.118 127.668 373.422 127.244 373.822 126.868H374.71C375.23 126.868 375.642 127.036 375.946 127.372L376.162 126.868H377.41ZM375.814 128.128H374.65C374.362 128.624 374.218 129.196 374.218 129.844C374.218 130.484 374.342 131.012 374.59 131.428H375.814V128.128ZM381.993 126.04V129.04H383.061C383.501 128.68 383.721 128.152 383.721 127.456C383.721 127.16 383.661 126.88 383.541 126.616C383.429 126.352 383.293 126.16 383.133 126.04H381.993ZM380.373 133V124.6H383.625C384.169 124.84 384.597 125.208 384.909 125.704C385.229 126.2 385.389 126.78 385.389 127.444C385.389 128.1 385.225 128.708 384.897 129.268C384.569 129.828 384.085 130.224 383.445 130.456H381.993V133H380.373ZM387.899 131.608H388.979C389.203 131.328 389.379 130.92 389.507 130.384C389.643 129.848 389.711 129.316 389.711 128.788C389.711 127.532 389.475 126.616 389.003 126.04H387.899V131.608ZM386.267 133V124.6H389.747C390.883 125.608 391.451 126.976 391.451 128.704C391.451 130.424 390.919 131.856 389.855 133H386.267ZM392.385 133V124.6H396.765V126.04H394.029V128.14H396.405V129.532H394.029V133H392.385ZM396.402 133V131.224H398.13V131.932C398.13 132.532 398.062 133.016 397.926 133.384C397.79 133.752 397.518 134.22 397.11 134.788L396.414 134.452C396.798 133.86 397.03 133.376 397.11 133H396.402ZM402.423 124.6L403.275 128.02H403.323L404.175 124.6H405.831L404.679 128.608L405.915 133H404.211L403.323 129.4H403.275L402.387 133H400.683L401.919 128.608L400.767 124.6H402.423ZM406.646 133V124.6H408.29V131.608H410.786V133H406.646ZM412.254 124.6H415.134V126.04H412.83L412.794 126.112L414.714 129.616C415.106 130.32 415.302 130.856 415.302 131.224C415.302 132.032 415.034 132.624 414.498 133H411.318V131.608H413.802L413.838 131.536L411.678 127.66C411.366 127.1 411.21 126.644 411.21 126.292C411.21 125.46 411.558 124.896 412.254 124.6ZM416.043 133V131.224H417.771V131.932C417.771 132.532 417.703 133.016 417.567 133.384C417.431 133.752 417.159 134.22 416.751 134.788L416.055 134.452C416.439 133.86 416.671 133.376 416.751 133H416.043ZM423.576 130.228H422.292C422.124 130.436 422.04 130.696 422.04 131.008C422.04 131.32 422.128 131.564 422.304 131.74H423.576V130.228ZM420.996 126.868H423.972C424.452 127.156 424.768 127.488 424.92 127.864C425.072 128.232 425.148 128.736 425.148 129.376V131.176C425.148 131.84 425.164 132.448 425.196 133H423.828L423.612 132.568C423.3 132.856 422.86 133 422.292 133H421.536C420.856 132.552 420.516 131.908 420.516 131.068C420.516 130.22 420.864 129.552 421.56 129.064H422.688C423 129.064 423.292 129.16 423.564 129.352V128.752C423.564 128.44 423.428 128.232 423.156 128.128H420.996V126.868ZM428.844 126.868H430.116C430.468 127.316 430.708 127.764 430.836 128.212C430.964 128.66 431.028 129.22 431.028 129.892V133H429.432V129.772C429.432 129.012 429.328 128.464 429.12 128.128H427.776V133H426.18V126.868H427.428L427.644 127.3C427.82 127.14 427.984 127.028 428.136 126.964C428.296 126.9 428.532 126.868 428.844 126.868ZM436.66 133H435.448L435.232 132.568C435.056 132.728 434.888 132.84 434.728 132.904C434.576 132.968 434.344 133 434.032 133H432.988C432.636 132.664 432.356 132.224 432.148 131.68C431.948 131.136 431.848 130.528 431.848 129.856C431.848 129.176 431.948 128.6 432.148 128.128C432.356 127.656 432.648 127.236 433.024 126.868H434.056C434.48 126.868 434.816 126.98 435.064 127.204V124.6H436.66V133ZM435.064 128.128H433.912C433.616 128.632 433.468 129.252 433.468 129.988C433.468 130.716 433.612 131.3 433.9 131.74H435.064V128.128ZM264.706 150L263.866 145.044H263.818L262.954 150H261.274L260.11 141.6H261.718L262.054 144.072L262.306 146.856H262.366L262.81 144.084L263.182 141.6H264.538L264.898 144.084L265.354 146.856H265.414L265.654 144.072L265.99 141.6H267.598L266.434 150H264.706ZM271.643 150H269.027C268.227 149.256 267.827 148.24 267.827 146.952C267.827 146.304 267.915 145.74 268.091 145.26C268.275 144.78 268.563 144.316 268.955 143.868H271.763C272.179 144.348 272.463 144.816 272.615 145.272C272.767 145.72 272.843 146.28 272.843 146.952C272.843 148.24 272.443 149.256 271.643 150ZM269.879 148.74H270.791C271.079 148.18 271.223 147.544 271.223 146.832C271.223 146.12 271.075 145.552 270.779 145.128H269.879C269.591 145.536 269.447 146.116 269.447 146.868C269.447 147.612 269.591 148.236 269.879 148.74ZM273.714 150V143.868H274.854L275.154 144.516C275.474 144.084 275.878 143.868 276.366 143.868H276.834V145.476H275.31V150H273.714ZM281.943 150H280.731L280.515 149.568C280.339 149.728 280.171 149.84 280.011 149.904C279.859 149.968 279.627 150 279.315 150H278.271C277.919 149.664 277.639 149.224 277.431 148.68C277.231 148.136 277.131 147.528 277.131 146.856C277.131 146.176 277.231 145.6 277.431 145.128C277.639 144.656 277.931 144.236 278.307 143.868H279.339C279.763 143.868 280.099 143.98 280.347 144.204V141.6H281.943V150ZM280.347 145.128H279.195C278.899 145.632 278.751 146.252 278.751 146.988C278.751 147.716 278.895 148.3 279.183 148.74H280.347V145.128ZM286.501 141.6H287.749V142.86H287.149C286.877 143.028 286.741 143.364 286.741 143.868H289.813V150H288.229V145.128H286.741V150H285.145V145.128H284.485V143.868H285.145C285.145 142.828 285.597 142.072 286.501 141.6ZM288.229 141.6H289.813V143.22H288.229V141.6ZM292.43 141.6V150H290.846V141.6H292.43ZM296.231 145.128H295.331C295.211 145.272 295.111 145.472 295.031 145.728C294.959 145.984 294.923 146.232 294.923 146.472H296.639C296.655 146.232 296.623 145.984 296.543 145.728C296.463 145.464 296.359 145.264 296.231 145.128ZM297.863 148.74V150H294.815C294.255 149.624 293.859 149.16 293.627 148.608C293.403 148.048 293.291 147.484 293.291 146.916C293.291 145.604 293.787 144.588 294.779 143.868H296.723C297.259 144.26 297.623 144.676 297.815 145.116C298.007 145.556 298.103 146 298.103 146.448C298.103 146.896 298.067 147.28 297.995 147.6H295.007C295.031 147.784 295.099 147.996 295.211 148.236C295.331 148.468 295.459 148.636 295.595 148.74H297.863ZM299.321 143.868H301.973V145.128H300.101L301.241 146.82C301.753 147.548 302.037 148.048 302.093 148.32C302.125 148.448 302.141 148.58 302.141 148.716C302.141 149.284 301.929 149.712 301.505 150H298.445V148.74H300.641L299.357 146.856C299.301 146.768 299.213 146.644 299.093 146.484C298.981 146.324 298.893 146.196 298.829 146.1C298.765 145.996 298.721 145.92 298.697 145.872C298.673 145.824 298.641 145.764 298.601 145.692C298.561 145.612 298.533 145.544 298.517 145.488C298.485 145.336 298.469 145.212 298.469 145.116C298.469 144.532 298.753 144.116 299.321 143.868ZM304.838 150V143.868H306.422V150H304.838ZM304.838 141.6H306.422V143.22H304.838V141.6ZM310.116 143.868H311.388C311.74 144.316 311.98 144.764 312.108 145.212C312.236 145.66 312.3 146.22 312.3 146.892V150H310.704V146.772C310.704 146.012 310.6 145.464 310.392 145.128H309.048V150H307.452V143.868H308.7L308.916 144.3C309.092 144.14 309.256 144.028 309.408 143.964C309.568 143.9 309.804 143.868 310.116 143.868ZM313.46 147.324V145.128H312.632V143.868H313.46V142.2H315.056V143.868H316.04V145.128H315.056V147.708C315.056 148.196 315.14 148.54 315.308 148.74H316.04V150H314.336C313.912 149.608 313.656 149.184 313.568 148.728C313.496 148.344 313.46 147.876 313.46 147.324ZM320.369 150H317.753C316.953 149.256 316.553 148.24 316.553 146.952C316.553 146.304 316.641 145.74 316.817 145.26C317.001 144.78 317.289 144.316 317.681 143.868H320.489C320.905 144.348 321.189 144.816 321.341 145.272C321.493 145.72 321.569 146.28 321.569 146.952C321.569 148.24 321.169 149.256 320.369 150ZM318.605 148.74H319.517C319.805 148.18 319.949 147.544 319.949 146.832C319.949 146.12 319.801 145.552 319.505 145.128H318.605C318.317 145.536 318.173 146.116 318.173 146.868C318.173 147.612 318.317 148.236 318.605 148.74ZM324.95 143.868H327.602V145.128H325.73L326.87 146.82C327.382 147.548 327.666 148.048 327.722 148.32C327.754 148.448 327.77 148.58 327.77 148.716C327.77 149.284 327.558 149.712 327.134 150H324.074V148.74H326.27L324.986 146.856C324.93 146.768 324.842 146.644 324.722 146.484C324.61 146.324 324.522 146.196 324.458 146.1C324.394 145.996 324.35 145.92 324.326 145.872C324.302 145.824 324.27 145.764 324.23 145.692C324.19 145.612 324.162 145.544 324.146 145.488C324.114 145.336 324.098 145.212 324.098 145.116C324.098 144.532 324.382 144.116 324.95 143.868ZM331.209 143.868H332.061L332.361 144.288C332.529 144.136 332.689 144.028 332.841 143.964C333.001 143.9 333.237 143.868 333.549 143.868H334.881C335.233 144.316 335.473 144.764 335.601 145.212C335.729 145.66 335.793 146.22 335.793 146.892V150H334.197V146.772C334.197 146.036 334.085 145.488 333.861 145.128H332.709C332.885 145.472 332.973 145.94 332.973 146.532V150H331.377V146.772C331.377 146.012 331.273 145.464 331.065 145.128H330.141V150H328.545V143.868H329.793L330.009 144.3C330.185 144.14 330.349 144.028 330.501 143.964C330.661 143.9 330.897 143.868 331.209 143.868ZM339.664 147.228H338.38C338.212 147.436 338.128 147.696 338.128 148.008C338.128 148.32 338.216 148.564 338.392 148.74H339.664V147.228ZM337.084 143.868H340.06C340.54 144.156 340.856 144.488 341.008 144.864C341.16 145.232 341.236 145.736 341.236 146.376V148.176C341.236 148.84 341.252 149.448 341.284 150H339.916L339.7 149.568C339.388 149.856 338.948 150 338.38 150H337.624C336.944 149.552 336.604 148.908 336.604 148.068C336.604 147.22 336.952 146.552 337.648 146.064H338.776C339.088 146.064 339.38 146.16 339.652 146.352V145.752C339.652 145.44 339.516 145.232 339.244 145.128H337.084V143.868ZM343.852 141.6V150H342.268V141.6H343.852ZM346.465 141.6V150H344.881V141.6H346.465ZM350.267 145.128H349.367C349.247 145.272 349.147 145.472 349.067 145.728C348.995 145.984 348.959 146.232 348.959 146.472H350.675C350.691 146.232 350.659 145.984 350.579 145.728C350.499 145.464 350.395 145.264 350.267 145.128ZM351.899 148.74V150H348.851C348.291 149.624 347.895 149.16 347.663 148.608C347.439 148.048 347.327 147.484 347.327 146.916C347.327 145.604 347.823 144.588 348.815 143.868H350.759C351.295 144.26 351.659 144.676 351.851 145.116C352.043 145.556 352.139 146 352.139 146.448C352.139 146.896 352.103 147.28 352.031 147.6H349.043C349.067 147.784 349.135 147.996 349.247 148.236C349.367 148.468 349.495 148.636 349.631 148.74H351.899ZM352.956 150V143.868H354.096L354.396 144.516C354.716 144.084 355.12 143.868 355.608 143.868H356.076V145.476H354.552V150H352.956ZM360.174 146.88C360.174 147.216 360.226 147.56 360.33 147.912C360.434 148.256 360.578 148.532 360.762 148.74H362.562V150H359.934C358.99 149.248 358.518 148.208 358.518 146.88C358.518 145.552 359.022 144.548 360.03 143.868H362.562V145.128H360.762C360.37 145.536 360.174 146.12 360.174 146.88ZM366.158 143.868H367.298C367.65 144.316 367.89 144.764 368.018 145.212C368.146 145.66 368.21 146.22 368.21 146.892V150H366.614V146.772C366.614 146.012 366.51 145.464 366.302 145.128H364.958V150H363.362V141.6H364.958V144.3C365.134 144.14 365.298 144.028 365.45 143.964C365.61 143.9 365.846 143.868 366.158 143.868ZM371.263 150H370.003C369.651 149.552 369.411 149.104 369.283 148.656C369.155 148.208 369.091 147.648 369.091 146.976V143.868H370.687V147.096C370.687 147.824 370.831 148.372 371.119 148.74H372.235V143.868H373.831V150H372.571L372.355 149.568C372.051 149.856 371.687 150 371.263 150ZM377.522 143.868H378.794C379.146 144.316 379.386 144.764 379.514 145.212C379.642 145.66 379.706 146.22 379.706 146.892V150H378.11V146.772C378.11 146.012 378.006 145.464 377.798 145.128H376.454V150H374.858V143.868H376.106L376.322 144.3C376.498 144.14 376.662 144.028 376.814 143.964C376.974 143.9 377.21 143.868 377.522 143.868ZM380.694 150V141.6H382.29V146.052H382.458L383.586 143.868H385.146L383.73 146.544L385.158 150H383.574L382.47 147.312H382.29V150H380.694ZM386.403 143.868H389.055V145.128H387.183L388.323 146.82C388.835 147.548 389.119 148.048 389.175 148.32C389.207 148.448 389.223 148.58 389.223 148.716C389.223 149.284 389.011 149.712 388.587 150H385.527V148.74H387.723L386.439 146.856C386.383 146.768 386.295 146.644 386.175 146.484C386.063 146.324 385.975 146.196 385.911 146.1C385.847 145.996 385.803 145.92 385.779 145.872C385.755 145.824 385.723 145.764 385.683 145.692C385.643 145.612 385.615 145.544 385.599 145.488C385.567 145.336 385.551 145.212 385.551 145.116C385.551 144.532 385.835 144.116 386.403 143.868ZM389.962 150V148.224H391.69V148.932C391.69 149.532 391.622 150.016 391.486 150.384C391.35 150.752 391.078 151.22 390.67 151.788L389.974 151.452C390.358 150.86 390.59 150.376 390.67 150H389.962ZM395.204 143.868H397.856V145.128H395.984L397.124 146.82C397.636 147.548 397.92 148.048 397.976 148.32C398.008 148.448 398.024 148.58 398.024 148.716C398.024 149.284 397.812 149.712 397.388 150H394.328V148.74H396.524L395.24 146.856C395.184 146.768 395.096 146.644 394.976 146.484C394.864 146.324 394.776 146.196 394.712 146.1C394.648 145.996 394.604 145.92 394.58 145.872C394.556 145.824 394.524 145.764 394.484 145.692C394.444 145.612 394.416 145.544 394.4 145.488C394.368 145.336 394.352 145.212 394.352 145.116C394.352 144.532 394.636 144.116 395.204 143.868ZM400.806 150H399.546C399.194 149.552 398.954 149.104 398.826 148.656C398.698 148.208 398.634 147.648 398.634 146.976V143.868H400.23V147.096C400.23 147.824 400.374 148.372 400.662 148.74H401.778V143.868H403.374V150H402.114L401.898 149.568C401.594 149.856 401.23 150 400.806 150ZM405.889 146.88C405.889 147.216 405.941 147.56 406.045 147.912C406.149 148.256 406.293 148.532 406.477 148.74H408.277V150H405.649C404.705 149.248 404.233 148.208 404.233 146.88C404.233 145.552 404.737 144.548 405.745 143.868H408.277V145.128H406.477C406.085 145.536 405.889 146.12 405.889 146.88ZM411.873 143.868H413.013C413.365 144.316 413.605 144.764 413.733 145.212C413.861 145.66 413.925 146.22 413.925 146.892V150H412.329V146.772C412.329 146.012 412.225 145.464 412.017 145.128H410.673V150H409.077V141.6H410.673V144.3C410.849 144.14 411.013 144.028 411.165 143.964C411.325 143.9 411.561 143.868 411.873 143.868ZM419.726 147.228H418.442C418.274 147.436 418.19 147.696 418.19 148.008C418.19 148.32 418.278 148.564 418.454 148.74H419.726V147.228ZM417.146 143.868H420.122C420.602 144.156 420.918 144.488 421.07 144.864C421.222 145.232 421.298 145.736 421.298 146.376V148.176C421.298 148.84 421.314 149.448 421.346 150H419.978L419.762 149.568C419.45 149.856 419.01 150 418.442 150H417.686C417.006 149.552 416.666 148.908 416.666 148.068C416.666 147.22 417.014 146.552 417.71 146.064H418.838C419.15 146.064 419.442 146.16 419.714 146.352V145.752C419.714 145.44 419.578 145.232 419.306 145.128H417.146V143.868ZM422.93 143.868H425.582V145.128H423.71L424.85 146.82C425.362 147.548 425.646 148.048 425.702 148.32C425.734 148.448 425.75 148.58 425.75 148.716C425.75 149.284 425.538 149.712 425.114 150H422.054V148.74H424.25L422.966 146.856C422.91 146.768 422.822 146.644 422.702 146.484C422.59 146.324 422.502 146.196 422.438 146.1C422.374 145.996 422.33 145.92 422.306 145.872C422.282 145.824 422.25 145.764 422.21 145.692C422.17 145.612 422.142 145.544 422.126 145.488C422.094 145.336 422.078 145.212 422.078 145.116C422.078 144.532 422.362 144.116 422.93 143.868ZM297.016 160.868H298.3L298.48 161.3C298.656 161.14 298.82 161.028 298.972 160.964C299.132 160.9 299.368 160.868 299.68 160.868H300.76C301.096 161.196 301.36 161.62 301.552 162.14C301.744 162.66 301.84 163.232 301.84 163.856C301.84 165.192 301.44 166.24 300.64 167H299.62C299.196 167 298.86 166.888 298.612 166.664V168.8H297.016V160.868ZM298.612 165.74H299.764C300.06 165.236 300.208 164.624 300.208 163.904C300.208 163.184 300.056 162.592 299.752 162.128H298.612V165.74ZM305.592 164.228H304.308C304.14 164.436 304.056 164.696 304.056 165.008C304.056 165.32 304.144 165.564 304.32 165.74H305.592V164.228ZM303.012 160.868H305.988C306.468 161.156 306.784 161.488 306.936 161.864C307.088 162.232 307.164 162.736 307.164 163.376V165.176C307.164 165.84 307.18 166.448 307.212 167H305.844L305.628 166.568C305.316 166.856 304.876 167 304.308 167H303.552C302.872 166.552 302.532 165.908 302.532 165.068C302.532 164.22 302.88 163.552 303.576 163.064H304.704C305.016 163.064 305.308 163.16 305.58 163.352V162.752C305.58 162.44 305.444 162.232 305.172 162.128H303.012V160.868ZM308.208 167V160.868H309.348L309.648 161.516C309.968 161.084 310.372 160.868 310.86 160.868H311.328V162.476H309.804V167H308.208ZM314.674 164.228H313.39C313.222 164.436 313.138 164.696 313.138 165.008C313.138 165.32 313.226 165.564 313.402 165.74H314.674V164.228ZM312.094 160.868H315.07C315.55 161.156 315.866 161.488 316.018 161.864C316.17 162.232 316.246 162.736 316.246 163.376V165.176C316.246 165.84 316.262 166.448 316.294 167H314.926L314.71 166.568C314.398 166.856 313.958 167 313.39 167H312.634C311.954 166.552 311.614 165.908 311.614 165.068C311.614 164.22 311.962 163.552 312.658 163.064H313.786C314.098 163.064 314.39 163.16 314.662 163.352V162.752C314.662 162.44 314.526 162.232 314.254 162.128H312.094V160.868ZM321.922 160.868V166.364C321.922 166.972 321.842 167.46 321.682 167.828C321.53 168.196 321.222 168.52 320.758 168.8H318.022V167.552H320.074C320.274 167.432 320.374 167.24 320.374 166.976V166.268C320.078 166.516 319.606 166.64 318.958 166.64H318.082C317.434 165.864 317.11 164.964 317.11 163.94C317.11 163.204 317.214 162.604 317.422 162.14C317.63 161.668 317.934 161.244 318.334 160.868H319.222C319.742 160.868 320.154 161.036 320.458 161.372L320.674 160.868H321.922ZM320.326 162.128H319.162C318.874 162.624 318.73 163.196 318.73 163.844C318.73 164.484 318.854 165.012 319.102 165.428H320.326V162.128ZM322.915 167V160.868H324.055L324.355 161.516C324.675 161.084 325.079 160.868 325.567 160.868H326.035V162.476H324.511V167H322.915ZM329.381 164.228H328.097C327.929 164.436 327.845 164.696 327.845 165.008C327.845 165.32 327.933 165.564 328.109 165.74H329.381V164.228ZM326.801 160.868H329.777C330.257 161.156 330.573 161.488 330.725 161.864C330.877 162.232 330.953 162.736 330.953 163.376V165.176C330.953 165.84 330.969 166.448 331.001 167H329.633L329.417 166.568C329.105 166.856 328.665 167 328.097 167H327.341C326.661 166.552 326.321 165.908 326.321 165.068C326.321 164.22 326.669 163.552 327.365 163.064H328.493C328.805 163.064 329.097 163.16 329.369 163.352V162.752C329.369 162.44 329.233 162.232 328.961 162.128H326.801V160.868ZM331.985 160.868H333.269L333.449 161.3C333.625 161.14 333.789 161.028 333.941 160.964C334.101 160.9 334.337 160.868 334.649 160.868H335.729C336.065 161.196 336.329 161.62 336.521 162.14C336.713 162.66 336.809 163.232 336.809 163.856C336.809 165.192 336.409 166.24 335.609 167H334.589C334.165 167 333.829 166.888 333.581 166.664V168.8H331.985V160.868ZM333.581 165.74H334.733C335.029 165.236 335.177 164.624 335.177 163.904C335.177 163.184 335.025 162.592 334.721 162.128H333.581V165.74ZM340.464 160.868H341.604C341.956 161.316 342.196 161.764 342.324 162.212C342.452 162.66 342.516 163.22 342.516 163.892V167H340.92V163.772C340.92 163.012 340.816 162.464 340.608 162.128H339.264V167H337.668V158.6H339.264V161.3C339.44 161.14 339.604 161.028 339.756 160.964C339.916 160.9 340.152 160.868 340.464 160.868ZM344.104 160.868H346.756V162.128H344.884L346.024 163.82C346.536 164.548 346.82 165.048 346.876 165.32C346.908 165.448 346.924 165.58 346.924 165.716C346.924 166.284 346.712 166.712 346.288 167H343.228V165.74H345.424L344.14 163.856C344.084 163.768 343.996 163.644 343.876 163.484C343.764 163.324 343.676 163.196 343.612 163.1C343.548 162.996 343.504 162.92 343.48 162.872C343.456 162.824 343.424 162.764 343.384 162.692C343.344 162.612 343.316 162.544 343.3 162.488C343.268 162.336 343.252 162.212 343.252 162.116C343.252 161.532 343.536 161.116 344.104 160.868ZM353.269 167H350.653C349.853 166.256 349.453 165.24 349.453 163.952C349.453 163.304 349.541 162.74 349.717 162.26C349.901 161.78 350.189 161.316 350.581 160.868H353.389C353.805 161.348 354.089 161.816 354.241 162.272C354.393 162.72 354.469 163.28 354.469 163.952C354.469 165.24 354.069 166.256 353.269 167ZM351.505 165.74H352.417C352.705 165.18 352.849 164.544 352.849 163.832C352.849 163.12 352.701 162.552 352.405 162.128H351.505C351.217 162.536 351.073 163.116 351.073 163.868C351.073 164.612 351.217 165.236 351.505 165.74ZM355.341 167V160.868H356.481L356.781 161.516C357.101 161.084 357.505 160.868 357.993 160.868H358.461V162.476H356.937V167H355.341ZM361.071 160.868H362.355L362.535 161.3C362.711 161.14 362.875 161.028 363.027 160.964C363.187 160.9 363.423 160.868 363.735 160.868H364.815C365.151 161.196 365.415 161.62 365.607 162.14C365.799 162.66 365.895 163.232 365.895 163.856C365.895 165.192 365.495 166.24 364.695 167H363.675C363.251 167 362.915 166.888 362.667 166.664V168.8H361.071V160.868ZM362.667 165.74H363.819C364.115 165.236 364.263 164.624 364.263 163.904C364.263 163.184 364.111 162.592 363.807 162.128H362.667V165.74ZM369.646 164.228H368.362C368.194 164.436 368.11 164.696 368.11 165.008C368.11 165.32 368.198 165.564 368.374 165.74H369.646V164.228ZM367.066 160.868H370.042C370.522 161.156 370.838 161.488 370.99 161.864C371.142 162.232 371.218 162.736 371.218 163.376V165.176C371.218 165.84 371.234 166.448 371.266 167H369.898L369.682 166.568C369.37 166.856 368.93 167 368.362 167H367.606C366.926 166.552 366.586 165.908 366.586 165.068C366.586 164.22 366.934 163.552 367.63 163.064H368.758C369.07 163.064 369.362 163.16 369.634 163.352V162.752C369.634 162.44 369.498 162.232 369.226 162.128H367.066V160.868ZM376.894 160.868V166.364C376.894 166.972 376.814 167.46 376.654 167.828C376.502 168.196 376.194 168.52 375.73 168.8H372.994V167.552H375.046C375.246 167.432 375.346 167.24 375.346 166.976V166.268C375.05 166.516 374.578 166.64 373.93 166.64H373.054C372.406 165.864 372.082 164.964 372.082 163.94C372.082 163.204 372.186 162.604 372.394 162.14C372.602 161.668 372.906 161.244 373.306 160.868H374.194C374.714 160.868 375.126 161.036 375.43 161.372L375.646 160.868H376.894ZM375.298 162.128H374.134C373.846 162.624 373.702 163.196 373.702 163.844C373.702 164.484 373.826 165.012 374.074 165.428H375.298V162.128ZM380.647 162.128H379.747C379.627 162.272 379.527 162.472 379.447 162.728C379.375 162.984 379.339 163.232 379.339 163.472H381.055C381.071 163.232 381.039 162.984 380.959 162.728C380.879 162.464 380.775 162.264 380.647 162.128ZM382.279 165.74V167H379.231C378.671 166.624 378.275 166.16 378.043 165.608C377.819 165.048 377.707 164.484 377.707 163.916C377.707 162.604 378.203 161.588 379.195 160.868H381.139C381.675 161.26 382.039 161.676 382.231 162.116C382.423 162.556 382.519 163 382.519 163.448C382.519 163.896 382.483 164.28 382.411 164.6H379.423C379.447 164.784 379.515 164.996 379.627 165.236C379.747 165.468 379.875 165.636 380.011 165.74H382.279ZM383.737 160.868H386.389V162.128H384.517L385.657 163.82C386.169 164.548 386.453 165.048 386.509 165.32C386.541 165.448 386.557 165.58 386.557 165.716C386.557 166.284 386.345 166.712 385.921 167H382.861V165.74H385.057L383.773 163.856C383.717 163.768 383.629 163.644 383.509 163.484C383.397 163.324 383.309 163.196 383.245 163.1C383.181 162.996 383.137 162.92 383.113 162.872C383.089 162.824 383.057 162.764 383.017 162.692C382.977 162.612 382.949 162.544 382.933 162.488C382.901 162.336 382.885 162.212 382.885 162.116C382.885 161.532 383.169 161.116 383.737 160.868ZM387.296 165.224H389.024V167H387.296V165.224Z" fill="black"/>
<line x1="342.5" y1="213" x2="342.5" y2="319" stroke="#FF6900" stroke-width="3" stroke-dasharray="10 10"/>
<circle cx="343" cy="343" r="23.5" fill="#FFC59C" stroke="#FF6900" stroke-width="3"/>
<rect x="547.5" y="67.5" width="210" height="141" rx="13.5" fill="#80C8FF" stroke="#1B1D57" stroke-width="3" stroke-linejoin="round" stroke-dasharray="6 6"/>
<path d="M604.1 89.144H605.54C605.839 88.7707 606.074 88.2267 606.244 87.512C606.426 86.7973 606.516 86.088 606.516 85.384C606.516 83.7093 606.202 82.488 605.572 81.72H604.1V89.144ZM601.924 91V79.8H606.564C608.079 81.144 608.836 82.968 608.836 85.272C608.836 87.5653 608.127 89.4747 606.708 91H601.924ZM613.7 87.304H611.988C611.764 87.5813 611.652 87.928 611.652 88.344C611.652 88.76 611.77 89.0853 612.004 89.32H613.7V87.304ZM610.26 82.824H614.228C614.868 83.208 615.29 83.6507 615.492 84.152C615.695 84.6427 615.796 85.3147 615.796 86.168V88.568C615.796 89.4533 615.818 90.264 615.86 91H614.036L613.748 90.424C613.332 90.808 612.746 91 611.988 91H610.98C610.074 90.4027 609.62 89.544 609.62 88.424C609.62 87.2933 610.084 86.4027 611.012 85.752H612.516C612.932 85.752 613.322 85.88 613.684 86.136V85.336C613.684 84.92 613.503 84.6427 613.14 84.504H610.26V82.824ZM617.402 87.432V84.504H616.298V82.824H617.402V80.6H619.53V82.824H620.842V84.504H619.53V87.944C619.53 88.5947 619.642 89.0533 619.866 89.32H620.842V91H618.57C618.005 90.4773 617.664 89.912 617.546 89.304C617.45 88.792 617.402 88.168 617.402 87.432ZM625.685 87.304H623.973C623.749 87.5813 623.637 87.928 623.637 88.344C623.637 88.76 623.754 89.0853 623.989 89.32H625.685V87.304ZM622.245 82.824H626.213C626.853 83.208 627.274 83.6507 627.477 84.152C627.679 84.6427 627.781 85.3147 627.781 86.168V88.568C627.781 89.4533 627.802 90.264 627.845 91H626.021L625.733 90.424C625.317 90.808 624.73 91 623.973 91H622.965C622.058 90.4027 621.605 89.544 621.605 88.424C621.605 87.2933 622.069 86.4027 622.997 85.752H624.501C624.917 85.752 625.306 85.88 625.669 86.136V85.336C625.669 84.92 625.487 84.6427 625.125 84.504H622.245V82.824ZM629.157 79.8H631.269V83.4C631.503 83.1867 631.722 83.0373 631.925 82.952C632.138 82.8667 632.453 82.824 632.869 82.824H634.149C634.597 83.2613 634.949 83.8267 635.205 84.52C635.461 85.2133 635.589 85.976 635.589 86.808C635.589 88.5893 635.055 89.9867 633.989 91H632.469C631.946 91 631.509 90.8027 631.157 90.408L630.869 91H629.157V79.8ZM631.285 89.32H632.821C633.215 88.648 633.413 87.832 633.413 86.872C633.413 85.912 633.21 85.1227 632.805 84.504H631.285V89.32ZM640.591 87.304H638.879C638.655 87.5813 638.543 87.928 638.543 88.344C638.543 88.76 638.66 89.0853 638.895 89.32H640.591V87.304ZM637.151 82.824H641.119C641.759 83.208 642.18 83.6507 642.383 84.152C642.586 84.6427 642.687 85.3147 642.687 86.168V88.568C642.687 89.4533 642.708 90.264 642.751 91H640.927L640.639 90.424C640.223 90.808 639.636 91 638.879 91H637.871C636.964 90.4027 636.511 89.544 636.511 88.424C636.511 87.2933 636.975 86.4027 637.903 85.752H639.407C639.823 85.752 640.212 85.88 640.575 86.136V85.336C640.575 84.92 640.394 84.6427 640.031 84.504H637.151V82.824ZM644.863 82.824H648.399V84.504H645.903L647.423 86.76C648.106 87.7307 648.484 88.3973 648.559 88.76C648.602 88.9307 648.623 89.1067 648.623 89.288C648.623 90.0453 648.34 90.616 647.775 91H643.695V89.32H646.623L644.911 86.808C644.836 86.6907 644.719 86.5253 644.559 86.312C644.41 86.0987 644.292 85.928 644.207 85.8C644.122 85.6613 644.063 85.56 644.031 85.496C643.999 85.432 643.956 85.352 643.903 85.256C643.85 85.1493 643.812 85.0587 643.791 84.984C643.748 84.7813 643.727 84.616 643.727 84.488C643.727 83.7093 644.106 83.1547 644.863 82.824ZM653.197 84.504H651.997C651.837 84.696 651.703 84.9627 651.597 85.304C651.501 85.6453 651.453 85.976 651.453 86.296H653.741C653.762 85.976 653.719 85.6453 653.613 85.304C653.506 84.952 653.367 84.6853 653.197 84.504ZM655.373 89.32V91H651.309C650.562 90.4987 650.034 89.88 649.725 89.144C649.426 88.3973 649.277 87.6453 649.277 86.888C649.277 85.1387 649.938 83.784 651.261 82.824H653.853C654.567 83.3467 655.053 83.9013 655.309 84.488C655.565 85.0747 655.693 85.6667 655.693 86.264C655.693 86.8613 655.645 87.3733 655.549 87.8H651.565C651.597 88.0453 651.687 88.328 651.837 88.648C651.997 88.9573 652.167 89.1813 652.349 89.32H655.373ZM660.433 79.8H664.273V81.72H661.201L661.153 81.816L663.713 86.488C664.235 87.4267 664.497 88.1413 664.497 88.632C664.497 89.7093 664.139 90.4987 663.425 91H659.185V89.144H662.497L662.545 89.048L659.665 83.88C659.249 83.1333 659.041 82.5253 659.041 82.056C659.041 80.9467 659.505 80.1947 660.433 79.8ZM665.699 87.432V84.504H664.595V82.824H665.699V80.6H667.827V82.824H669.139V84.504H667.827V87.944C667.827 88.5947 667.939 89.0533 668.163 89.32H669.139V91H666.867C666.302 90.4773 665.961 89.912 665.843 89.304C665.747 88.792 665.699 88.168 665.699 87.432ZM674.911 91H671.423C670.357 90.008 669.823 88.6533 669.823 86.936C669.823 86.072 669.941 85.32 670.175 84.68C670.421 84.04 670.805 83.4213 671.327 82.824H675.071C675.626 83.464 676.005 84.088 676.207 84.696C676.41 85.2933 676.511 86.04 676.511 86.936C676.511 88.6533 675.978 90.008 674.911 91ZM672.559 89.32H673.775C674.159 88.5733 674.351 87.7253 674.351 86.776C674.351 85.8267 674.154 85.0693 673.759 84.504H672.559C672.175 85.048 671.983 85.8213 671.983 86.824C671.983 87.816 672.175 88.648 672.559 89.32ZM677.673 91V82.824H679.193L679.593 83.688C680.019 83.112 680.558 82.824 681.209 82.824H681.833V84.968H679.801V91H677.673ZM686.294 87.304H684.582C684.358 87.5813 684.246 87.928 684.246 88.344C684.246 88.76 684.363 89.0853 684.598 89.32H686.294V87.304ZM682.854 82.824H686.822C687.462 83.208 687.883 83.6507 688.086 84.152C688.289 84.6427 688.39 85.3147 688.39 86.168V88.568C688.39 89.4533 688.411 90.264 688.454 91H686.63L686.342 90.424C685.926 90.808 685.339 91 684.582 91H683.574C682.667 90.4027 682.214 89.544 682.214 88.424C682.214 87.2933 682.678 86.4027 683.606 85.752H685.11C685.526 85.752 685.915 85.88 686.278 86.136V85.336C686.278 84.92 686.097 84.6427 685.734 84.504H682.854V82.824ZM695.958 82.824V90.152C695.958 90.9627 695.851 91.6133 695.638 92.104C695.435 92.5947 695.025 93.0267 694.406 93.4H690.758V91.736H693.494C693.761 91.576 693.894 91.32 693.894 90.968V90.024C693.499 90.3547 692.87 90.52 692.006 90.52H690.838C689.974 89.4853 689.542 88.2853 689.542 86.92C689.542 85.9387 689.681 85.1387 689.958 84.52C690.235 83.8907 690.641 83.3253 691.174 82.824H692.358C693.051 82.824 693.601 83.048 694.006 83.496L694.294 82.824H695.958ZM693.83 84.504H692.278C691.894 85.1653 691.702 85.928 691.702 86.792C691.702 87.6453 691.867 88.3493 692.198 88.904H693.83V84.504ZM700.962 84.504H699.762C699.602 84.696 699.469 84.9627 699.362 85.304C699.266 85.6453 699.218 85.976 699.218 86.296H701.506C701.527 85.976 701.485 85.6453 701.378 85.304C701.271 84.952 701.133 84.6853 700.962 84.504ZM703.138 89.32V91H699.074C698.327 90.4987 697.799 89.88 697.49 89.144C697.191 88.3973 697.042 87.6453 697.042 86.888C697.042 85.1387 697.703 83.784 699.026 82.824H701.618C702.333 83.3467 702.818 83.9013 703.074 84.488C703.33 85.0747 703.458 85.6667 703.458 86.264C703.458 86.8613 703.41 87.3733 703.314 87.8H699.33C699.362 88.0453 699.453 88.328 699.602 88.648C699.762 88.9573 699.933 89.1813 700.114 89.32H703.138Z" fill="black"/>
<path d="M575.385 126.04H573.573V124.6H578.829V126.04H577.017V133H575.385V126.04ZM582.261 126.868H583.401C583.753 127.316 583.993 127.764 584.121 128.212C584.249 128.66 584.313 129.22 584.313 129.892V133H582.717V129.772C582.717 129.012 582.613 128.464 582.405 128.128H581.061V133H579.465V124.6H581.061V127.3C581.237 127.14 581.401 127.028 581.553 126.964C581.713 126.9 581.949 126.868 582.261 126.868ZM585.301 133V126.868H586.885V133H585.301ZM585.301 124.6H586.885V126.22H585.301V124.6ZM588.514 126.868H591.166V128.128H589.294L590.434 129.82C590.946 130.548 591.23 131.048 591.286 131.32C591.318 131.448 591.334 131.58 591.334 131.716C591.334 132.284 591.122 132.712 590.698 133H587.638V131.74H589.834L588.55 129.856C588.494 129.768 588.406 129.644 588.286 129.484C588.174 129.324 588.086 129.196 588.022 129.1C587.958 128.996 587.914 128.92 587.89 128.872C587.866 128.824 587.834 128.764 587.794 128.692C587.754 128.612 587.726 128.544 587.71 128.488C587.678 128.336 587.662 128.212 587.662 128.116C587.662 127.532 587.946 127.116 588.514 126.868ZM594.032 126.868H595.316L595.496 127.3C595.672 127.14 595.836 127.028 595.988 126.964C596.148 126.9 596.384 126.868 596.696 126.868H597.776C598.112 127.196 598.376 127.62 598.568 128.14C598.76 128.66 598.856 129.232 598.856 129.856C598.856 131.192 598.456 132.24 597.656 133H596.636C596.212 133 595.876 132.888 595.628 132.664V134.8H594.032V126.868ZM595.628 131.74H596.78C597.076 131.236 597.224 130.624 597.224 129.904C597.224 129.184 597.072 128.592 596.768 128.128H595.628V131.74ZM599.727 133V126.868H600.867L601.167 127.516C601.487 127.084 601.891 126.868 602.379 126.868H602.847V128.476H601.323V133H599.727ZM606.961 133H604.345C603.545 132.256 603.145 131.24 603.145 129.952C603.145 129.304 603.233 128.74 603.409 128.26C603.593 127.78 603.881 127.316 604.273 126.868H607.081C607.497 127.348 607.781 127.816 607.933 128.272C608.085 128.72 608.161 129.28 608.161 129.952C608.161 131.24 607.761 132.256 606.961 133ZM605.197 131.74H606.109C606.397 131.18 606.541 130.544 606.541 129.832C606.541 129.12 606.393 128.552 606.097 128.128H605.197C604.909 128.536 604.765 129.116 604.765 129.868C604.765 130.612 604.909 131.236 605.197 131.74ZM610.508 129.88C610.508 130.216 610.56 130.56 610.664 130.912C610.768 131.256 610.912 131.532 611.096 131.74H612.896V133H610.268C609.324 132.248 608.852 131.208 608.852 129.88C608.852 128.552 609.356 127.548 610.364 126.868H612.896V128.128H611.096C610.704 128.536 610.508 129.12 610.508 129.88ZM616.233 128.128H615.333C615.213 128.272 615.113 128.472 615.033 128.728C614.961 128.984 614.925 129.232 614.925 129.472H616.641C616.657 129.232 616.625 128.984 616.545 128.728C616.465 128.464 616.361 128.264 616.233 128.128ZM617.865 131.74V133H614.817C614.257 132.624 613.861 132.16 613.629 131.608C613.405 131.048 613.293 130.484 613.293 129.916C613.293 128.604 613.789 127.588 614.781 126.868H616.725C617.261 127.26 617.625 127.676 617.817 128.116C618.009 128.556 618.105 129 618.105 129.448C618.105 129.896 618.069 130.28 617.997 130.6H615.009C615.033 130.784 615.101 130.996 615.213 131.236C615.333 131.468 615.461 131.636 615.597 131.74H617.865ZM619.323 126.868H621.975V128.128H620.103L621.243 129.82C621.755 130.548 622.039 131.048 622.095 131.32C622.127 131.448 622.143 131.58 622.143 131.716C622.143 132.284 621.931 132.712 621.507 133H618.447V131.74H620.643L619.359 129.856C619.303 129.768 619.215 129.644 619.095 129.484C618.983 129.324 618.895 129.196 618.831 129.1C618.767 128.996 618.723 128.92 618.699 128.872C618.675 128.824 618.643 128.764 618.603 128.692C618.563 128.612 618.535 128.544 618.519 128.488C618.487 128.336 618.471 128.212 618.471 128.116C618.471 127.532 618.755 127.116 619.323 126.868ZM623.518 126.868H626.17V128.128H624.298L625.438 129.82C625.95 130.548 626.234 131.048 626.29 131.32C626.322 131.448 626.338 131.58 626.338 131.716C626.338 132.284 626.126 132.712 625.702 133H622.642V131.74H624.838L623.554 129.856C623.498 129.768 623.41 129.644 623.29 129.484C623.178 129.324 623.09 129.196 623.026 129.1C622.962 128.996 622.918 128.92 622.894 128.872C622.87 128.824 622.838 128.764 622.798 128.692C622.758 128.612 622.73 128.544 622.714 128.488C622.682 128.336 622.666 128.212 622.666 128.116C622.666 127.532 622.95 127.116 623.518 126.868ZM629.036 133V126.868H630.62V133H629.036ZM629.036 124.6H630.62V126.22H629.036V124.6ZM634.313 126.868H635.585C635.937 127.316 636.177 127.764 636.305 128.212C636.433 128.66 636.497 129.22 636.497 129.892V133H634.901V129.772C634.901 129.012 634.797 128.464 634.589 128.128H633.245V133H631.649V126.868H632.897L633.113 127.3C633.289 127.14 633.453 127.028 633.605 126.964C633.765 126.9 634.001 126.868 634.313 126.868ZM640.917 133H638.697C638.313 132.688 638.009 132.276 637.785 131.764C637.561 131.252 637.449 130.684 637.449 130.06V126.868H639.045V130.012C639.045 130.716 639.177 131.292 639.441 131.74H640.173C640.437 131.268 640.569 130.696 640.569 130.024V126.868H642.165V130C642.165 130.632 642.053 131.212 641.829 131.74C641.605 132.268 641.301 132.688 640.917 133ZM646.746 133H644.13C643.33 132.256 642.93 131.24 642.93 129.952C642.93 129.304 643.018 128.74 643.194 128.26C643.378 127.78 643.666 127.316 644.058 126.868H646.866C647.282 127.348 647.566 127.816 647.718 128.272C647.87 128.72 647.946 129.28 647.946 129.952C647.946 131.24 647.546 132.256 646.746 133ZM644.982 131.74H645.894C646.182 131.18 646.326 130.544 646.326 129.832C646.326 129.12 646.178 128.552 645.882 128.128H644.982C644.694 128.536 644.55 129.116 644.55 129.868C644.55 130.612 644.694 131.236 644.982 131.74ZM650.389 124.6V133H648.805V124.6H650.389ZM654.85 133H652.63C652.246 132.688 651.942 132.276 651.718 131.764C651.494 131.252 651.382 130.684 651.382 130.06V126.868H652.978V130.012C652.978 130.716 653.11 131.292 653.374 131.74H654.106C654.37 131.268 654.502 130.696 654.502 130.024V126.868H656.098V130C656.098 130.632 655.986 131.212 655.762 131.74C655.538 132.268 655.234 132.688 654.85 133ZM659.804 128.128H658.904C658.784 128.272 658.684 128.472 658.604 128.728C658.532 128.984 658.496 129.232 658.496 129.472H660.212C660.228 129.232 660.196 128.984 660.116 128.728C660.036 128.464 659.932 128.264 659.804 128.128ZM661.436 131.74V133H658.388C657.828 132.624 657.432 132.16 657.2 131.608C656.976 131.048 656.864 130.484 656.864 129.916C656.864 128.604 657.36 127.588 658.352 126.868H660.296C660.832 127.26 661.196 127.676 661.388 128.116C661.58 128.556 661.676 129 661.676 129.448C661.676 129.896 661.64 130.28 661.568 130.6H658.58C658.604 130.784 658.672 130.996 658.784 131.236C658.904 131.468 659.032 131.636 659.168 131.74H661.436ZM662.893 126.868H665.545V128.128H663.673L664.813 129.82C665.325 130.548 665.609 131.048 665.665 131.32C665.697 131.448 665.713 131.58 665.713 131.716C665.713 132.284 665.501 132.712 665.077 133H662.017V131.74H664.213L662.929 129.856C662.873 129.768 662.785 129.644 662.665 129.484C662.553 129.324 662.465 129.196 662.401 129.1C662.337 128.996 662.293 128.92 662.269 128.872C662.245 128.824 662.213 128.764 662.173 128.692C662.133 128.612 662.105 128.544 662.089 128.488C662.057 128.336 662.041 128.212 662.041 128.116C662.041 127.532 662.325 127.116 662.893 126.868ZM669.011 126.868H671.663V128.128H669.791L670.931 129.82C671.443 130.548 671.727 131.048 671.783 131.32C671.815 131.448 671.831 131.58 671.831 131.716C671.831 132.284 671.619 132.712 671.195 133H668.135V131.74H670.331L669.047 129.856C668.991 129.768 668.903 129.644 668.783 129.484C668.671 129.324 668.583 129.196 668.519 129.1C668.455 128.996 668.411 128.92 668.387 128.872C668.363 128.824 668.331 128.764 668.291 128.692C668.251 128.612 668.223 128.544 668.207 128.488C668.175 128.336 668.159 128.212 668.159 128.116C668.159 127.532 668.443 127.116 669.011 126.868ZM672.966 130.324V128.128H672.138V126.868H672.966V125.2H674.562V126.868H675.546V128.128H674.562V130.708C674.562 131.196 674.646 131.54 674.814 131.74H675.546V133H673.842C673.418 132.608 673.162 132.184 673.074 131.728C673.002 131.344 672.966 130.876 672.966 130.324ZM679.875 133H677.259C676.459 132.256 676.059 131.24 676.059 129.952C676.059 129.304 676.147 128.74 676.323 128.26C676.507 127.78 676.795 127.316 677.187 126.868H679.995C680.411 127.348 680.695 127.816 680.847 128.272C680.999 128.72 681.075 129.28 681.075 129.952C681.075 131.24 680.675 132.256 679.875 133ZM678.111 131.74H679.023C679.311 131.18 679.455 130.544 679.455 129.832C679.455 129.12 679.307 128.552 679.011 128.128H678.111C677.823 128.536 677.679 129.116 677.679 129.868C677.679 130.612 677.823 131.236 678.111 131.74ZM681.946 133V126.868H683.086L683.386 127.516C683.706 127.084 684.11 126.868 684.598 126.868H685.066V128.476H683.542V133H681.946ZM685.754 133V126.868H687.338V133H685.754ZM685.754 124.6H687.338V126.22H685.754V124.6ZM691.032 126.868H692.304C692.656 127.316 692.896 127.764 693.024 128.212C693.152 128.66 693.216 129.22 693.216 129.892V133H691.62V129.772C691.62 129.012 691.516 128.464 691.308 128.128H689.964V133H688.368V126.868H689.616L689.832 127.3C690.008 127.14 690.172 127.028 690.324 126.964C690.484 126.9 690.72 126.868 691.032 126.868ZM698.848 126.868V132.364C698.848 132.972 698.768 133.46 698.608 133.828C698.456 134.196 698.148 134.52 697.684 134.8H694.948V133.552H697C697.2 133.432 697.3 133.24 697.3 132.976V132.268C697.004 132.516 696.532 132.64 695.884 132.64H695.008C694.36 131.864 694.036 130.964 694.036 129.94C694.036 129.204 694.14 128.604 694.348 128.14C694.556 127.668 694.86 127.244 695.26 126.868H696.148C696.668 126.868 697.08 127.036 697.384 127.372L697.6 126.868H698.848ZM697.252 128.128H696.088C695.8 128.624 695.656 129.196 695.656 129.844C695.656 130.484 695.78 131.012 696.028 131.428H697.252V128.128ZM703.238 129.88C703.238 130.216 703.29 130.56 703.394 130.912C703.498 131.256 703.642 131.532 703.826 131.74H705.626V133H702.998C702.054 132.248 701.582 131.208 701.582 129.88C701.582 128.552 702.086 127.548 703.094 126.868H705.626V128.128H703.826C703.434 128.536 703.238 129.12 703.238 129.88ZM709.222 126.868H710.362C710.714 127.316 710.954 127.764 711.082 128.212C711.21 128.66 711.274 129.22 711.274 129.892V133H709.678V129.772C709.678 129.012 709.574 128.464 709.366 128.128H708.022V133H706.426V124.6H708.022V127.3C708.198 127.14 708.362 127.028 708.514 126.964C708.674 126.9 708.91 126.868 709.222 126.868ZM714.328 133H713.068C712.716 132.552 712.476 132.104 712.348 131.656C712.22 131.208 712.156 130.648 712.156 129.976V126.868H713.752V130.096C713.752 130.824 713.896 131.372 714.184 131.74H715.3V126.868H716.896V133H715.636L715.42 132.568C715.116 132.856 714.752 133 714.328 133ZM720.586 126.868H721.858C722.21 127.316 722.45 127.764 722.578 128.212C722.706 128.66 722.77 129.22 722.77 129.892V133H721.174V129.772C721.174 129.012 721.07 128.464 720.862 128.128H719.518V133H717.922V126.868H719.17L719.386 127.3C719.562 127.14 719.726 127.028 719.878 126.964C720.038 126.9 720.274 126.868 720.586 126.868ZM723.758 133V124.6H725.354V129.052H725.522L726.65 126.868H728.21L726.794 129.544L728.222 133H726.638L725.534 130.312H725.354V133H723.758ZM729.468 126.868H732.12V128.128H730.248L731.388 129.82C731.9 130.548 732.184 131.048 732.24 131.32C732.272 131.448 732.288 131.58 732.288 131.716C732.288 132.284 732.076 132.712 731.652 133H728.592V131.74H730.788L729.504 129.856C729.448 129.768 729.36 129.644 729.24 129.484C729.128 129.324 729.04 129.196 728.976 129.1C728.912 128.996 728.868 128.92 728.844 128.872C728.82 128.824 728.788 128.764 728.748 128.692C728.708 128.612 728.68 128.544 728.664 128.488C728.632 128.336 728.616 128.212 728.616 128.116C728.616 127.532 728.9 127.116 729.468 126.868ZM561.149 145.128H560.249C560.129 145.272 560.029 145.472 559.949 145.728C559.877 145.984 559.841 146.232 559.841 146.472H561.557C561.573 146.232 561.541 145.984 561.461 145.728C561.381 145.464 561.277 145.264 561.149 145.128ZM562.781 148.74V150H559.733C559.173 149.624 558.777 149.16 558.545 148.608C558.321 148.048 558.209 147.484 558.209 146.916C558.209 145.604 558.705 144.588 559.697 143.868H561.641C562.177 144.26 562.541 144.676 562.733 145.116C562.925 145.556 563.021 146 563.021 146.448C563.021 146.896 562.985 147.28 562.913 147.6H559.925C559.949 147.784 560.017 147.996 560.129 148.236C560.249 148.468 560.377 148.636 560.513 148.74H562.781ZM568.519 141.6H569.767V142.86H569.167C568.895 143.028 568.759 143.364 568.759 143.868H571.831V150H570.247V145.128H568.759V150H567.163V145.128H565.675V150H564.079V145.128H563.419V143.868H564.079C564.079 142.828 564.531 142.072 565.435 141.6H566.803V142.86H566.083C565.811 143.028 565.675 143.364 565.675 143.868H567.163C567.163 142.828 567.615 142.072 568.519 141.6ZM570.247 141.6H571.831V143.22H570.247V141.6ZM574.35 146.88C574.35 147.216 574.402 147.56 574.506 147.912C574.61 148.256 574.754 148.532 574.938 148.74H576.738V150H574.11C573.166 149.248 572.694 148.208 572.694 146.88C572.694 145.552 573.198 144.548 574.206 143.868H576.738V145.128H574.938C574.546 145.536 574.35 146.12 574.35 146.88ZM577.537 150V143.868H579.121V150H577.537ZM577.537 141.6H579.121V143.22H577.537V141.6ZM582.923 145.128H582.023C581.903 145.272 581.803 145.472 581.723 145.728C581.651 145.984 581.615 146.232 581.615 146.472H583.331C583.347 146.232 583.315 145.984 583.235 145.728C583.155 145.464 583.051 145.264 582.923 145.128ZM584.555 148.74V150H581.507C580.947 149.624 580.551 149.16 580.319 148.608C580.095 148.048 579.983 147.484 579.983 146.916C579.983 145.604 580.479 144.588 581.471 143.868H583.415C583.951 144.26 584.315 144.676 584.507 145.116C584.699 145.556 584.795 146 584.795 146.448C584.795 146.896 584.759 147.28 584.687 147.6H581.699C581.723 147.784 581.791 147.996 581.903 148.236C582.023 148.468 582.151 148.636 582.287 148.74H584.555ZM588.264 143.868H589.536C589.888 144.316 590.128 144.764 590.256 145.212C590.384 145.66 590.448 146.22 590.448 146.892V150H588.852V146.772C588.852 146.012 588.748 145.464 588.54 145.128H587.196V150H585.6V143.868H586.848L587.064 144.3C587.24 144.14 587.404 144.028 587.556 143.964C587.716 143.9 587.952 143.868 588.264 143.868ZM591.608 147.324V145.128H590.78V143.868H591.608V142.2H593.204V143.868H594.188V145.128H593.204V147.708C593.204 148.196 593.288 148.54 593.456 148.74H594.188V150H592.484C592.06 149.608 591.804 149.184 591.716 148.728C591.644 148.344 591.608 147.876 591.608 147.324ZM596.571 141.6V150H594.987V141.6H596.571ZM597.564 146.628V143.868H599.16V146.64C599.16 147.336 599.3 147.916 599.58 148.38H600.288C600.552 147.924 600.684 147.344 600.684 146.64V143.868H602.28V146.544C602.28 147.144 602.2 147.672 602.04 148.128C601.888 148.584 601.636 149.1 601.284 149.676L600.48 150.984C600.336 151.232 600.184 151.416 600.024 151.536C599.864 151.656 599.656 151.744 599.4 151.8H597.504V150.54H598.8C598.968 150.492 599.108 150.408 599.22 150.288C599.332 150.168 599.448 149.996 599.568 149.772L599.64 149.64H598.812C598.428 149.328 598.124 148.908 597.9 148.38C597.676 147.844 597.564 147.26 597.564 146.628ZM605.194 150V143.868H606.778V150H605.194ZM605.194 141.6H606.778V143.22H605.194V141.6ZM610.471 143.868H611.743C612.095 144.316 612.335 144.764 612.463 145.212C612.591 145.66 612.655 146.22 612.655 146.892V150H611.059V146.772C611.059 146.012 610.955 145.464 610.747 145.128H609.403V150H607.807V143.868H609.055L609.271 144.3C609.447 144.14 609.611 144.028 609.763 143.964C609.923 143.9 610.159 143.868 610.471 143.868ZM618.457 147.228H617.173C617.005 147.436 616.921 147.696 616.921 148.008C616.921 148.32 617.009 148.564 617.185 148.74H618.457V147.228ZM615.877 143.868H618.853C619.333 144.156 619.649 144.488 619.801 144.864C619.953 145.232 620.029 145.736 620.029 146.376V148.176C620.029 148.84 620.045 149.448 620.077 150H618.709L618.493 149.568C618.181 149.856 617.741 150 617.173 150H616.417C615.737 149.552 615.397 148.908 615.397 148.068C615.397 147.22 615.745 146.552 616.441 146.064H617.569C617.881 146.064 618.173 146.16 618.445 146.352V145.752C618.445 145.44 618.309 145.232 618.037 145.128H615.877V143.868ZM627.627 150H626.415L626.199 149.568C626.023 149.728 625.855 149.84 625.695 149.904C625.543 149.968 625.311 150 624.999 150H623.955C623.603 149.664 623.323 149.224 623.115 148.68C622.915 148.136 622.815 147.528 622.815 146.856C622.815 146.176 622.915 145.6 623.115 145.128C623.323 144.656 623.615 144.236 623.991 143.868H625.023C625.447 143.868 625.783 143.98 626.031 144.204V141.6H627.627V150ZM626.031 145.128H624.879C624.583 145.632 624.435 146.252 624.435 146.988C624.435 147.716 624.579 148.3 624.867 148.74H626.031V145.128ZM631.547 147.228H630.263C630.095 147.436 630.011 147.696 630.011 148.008C630.011 148.32 630.099 148.564 630.275 148.74H631.547V147.228ZM628.967 143.868H631.943C632.423 144.156 632.739 144.488 632.891 144.864C633.043 145.232 633.119 145.736 633.119 146.376V148.176C633.119 148.84 633.135 149.448 633.167 150H631.799L631.583 149.568C631.271 149.856 630.831 150 630.263 150H629.507C628.827 149.552 628.487 148.908 628.487 148.068C628.487 147.22 628.835 146.552 629.531 146.064H630.659C630.971 146.064 631.263 146.16 631.535 146.352V145.752C631.535 145.44 631.399 145.232 631.127 145.128H628.967V143.868ZM634.323 147.324V145.128H633.495V143.868H634.323V142.2H635.919V143.868H636.903V145.128H635.919V147.708C635.919 148.196 636.003 148.54 636.171 148.74H636.903V150H635.199C634.775 149.608 634.519 149.184 634.431 148.728C634.359 148.344 634.323 147.876 634.323 147.324ZM640.535 147.228H639.251C639.083 147.436 638.999 147.696 638.999 148.008C638.999 148.32 639.087 148.564 639.263 148.74H640.535V147.228ZM637.955 143.868H640.931C641.411 144.156 641.727 144.488 641.879 144.864C642.031 145.232 642.107 145.736 642.107 146.376V148.176C642.107 148.84 642.123 149.448 642.155 150H640.787L640.571 149.568C640.259 149.856 639.819 150 639.251 150H638.495C637.815 149.552 637.475 148.908 637.475 148.068C637.475 147.22 637.823 146.552 638.519 146.064H639.647C639.959 146.064 640.251 146.16 640.523 146.352V145.752C640.523 145.44 640.387 145.232 640.115 145.128H637.955V143.868ZM643.139 141.6H644.723V144.3C644.899 144.14 645.063 144.028 645.215 143.964C645.375 143.9 645.611 143.868 645.923 143.868H646.883C647.219 144.196 647.483 144.62 647.675 145.14C647.867 145.66 647.963 146.232 647.963 146.856C647.963 148.192 647.563 149.24 646.763 150H645.623C645.231 150 644.903 149.852 644.639 149.556L644.423 150H643.139V141.6ZM644.735 148.74H645.887C646.183 148.236 646.331 147.624 646.331 146.904C646.331 146.184 646.179 145.592 645.875 145.128H644.735V148.74ZM651.715 147.228H650.431C650.263 147.436 650.179 147.696 650.179 148.008C650.179 148.32 650.267 148.564 650.443 148.74H651.715V147.228ZM649.135 143.868H652.111C652.591 144.156 652.907 144.488 653.059 144.864C653.211 145.232 653.287 145.736 653.287 146.376V148.176C653.287 148.84 653.303 149.448 653.335 150H651.967L651.751 149.568C651.439 149.856 650.999 150 650.431 150H649.675C648.995 149.552 648.655 148.908 648.655 148.068C648.655 147.22 649.003 146.552 649.699 146.064H650.827C651.139 146.064 651.431 146.16 651.703 146.352V145.752C651.703 145.44 651.567 145.232 651.295 145.128H649.135V143.868ZM654.919 143.868H657.571V145.128H655.699L656.839 146.82C657.351 147.548 657.635 148.048 657.691 148.32C657.723 148.448 657.739 148.58 657.739 148.716C657.739 149.284 657.527 149.712 657.103 150H654.043V148.74H656.239L654.955 146.856C654.899 146.768 654.811 146.644 654.691 146.484C654.579 146.324 654.491 146.196 654.427 146.1C654.363 145.996 654.319 145.92 654.295 145.872C654.271 145.824 654.239 145.764 654.199 145.692C654.159 145.612 654.131 145.544 654.115 145.488C654.083 145.336 654.067 145.212 654.067 145.116C654.067 144.532 654.351 144.116 654.919 143.868ZM661.169 145.128H660.269C660.149 145.272 660.049 145.472 659.969 145.728C659.897 145.984 659.861 146.232 659.861 146.472H661.577C661.593 146.232 661.561 145.984 661.481 145.728C661.401 145.464 661.297 145.264 661.169 145.128ZM662.801 148.74V150H659.753C659.193 149.624 658.797 149.16 658.565 148.608C658.341 148.048 658.229 147.484 658.229 146.916C658.229 145.604 658.725 144.588 659.717 143.868H661.661C662.197 144.26 662.561 144.676 662.753 145.116C662.945 145.556 663.041 146 663.041 146.448C663.041 146.896 663.005 147.28 662.933 147.6H659.945C659.969 147.784 660.037 147.996 660.149 148.236C660.269 148.468 660.397 148.636 660.533 148.74H662.801ZM667.376 141.6H669.104V142.86H668.024C667.752 143.028 667.616 143.364 667.616 143.868H668.864V145.128H667.616V150H666.02V145.128H665.36V143.868H666.02C666.02 142.828 666.472 142.072 667.376 141.6ZM672.896 150H670.28C669.48 149.256 669.08 148.24 669.08 146.952C669.08 146.304 669.168 145.74 669.344 145.26C669.528 144.78 669.816 144.316 670.208 143.868H673.016C673.432 144.348 673.716 144.816 673.868 145.272C674.02 145.72 674.096 146.28 674.096 146.952C674.096 148.24 673.696 149.256 672.896 150ZM671.132 148.74H672.044C672.332 148.18 672.476 147.544 672.476 146.832C672.476 146.12 672.328 145.552 672.032 145.128H671.132C670.844 145.536 670.7 146.116 670.7 146.868C670.7 147.612 670.844 148.236 671.132 148.74ZM674.967 150V143.868H676.107L676.407 144.516C676.727 144.084 677.131 143.868 677.619 143.868H678.087V145.476H676.563V150H674.967ZM682.306 141.6H684.034V142.86H682.954C682.682 143.028 682.546 143.364 682.546 143.868H683.794V145.128H682.546V150H680.95V145.128H680.29V143.868H680.95C680.95 142.828 681.402 142.072 682.306 141.6ZM686.536 150H685.276C684.924 149.552 684.684 149.104 684.556 148.656C684.428 148.208 684.364 147.648 684.364 146.976V143.868H685.96V147.096C685.96 147.824 686.104 148.372 686.392 148.74H687.508V143.868H689.104V150H687.844L687.628 149.568C687.324 149.856 686.96 150 686.536 150ZM690.491 147.324V145.128H689.663V143.868H690.491V142.2H692.087V143.868H693.071V145.128H692.087V147.708C692.087 148.196 692.171 148.54 692.339 148.74H693.071V150H691.367C690.943 149.608 690.687 149.184 690.599 148.728C690.527 148.344 690.491 147.876 690.491 147.324ZM695.994 150H694.734C694.382 149.552 694.142 149.104 694.014 148.656C693.886 148.208 693.822 147.648 693.822 146.976V143.868H695.418V147.096C695.418 147.824 695.562 148.372 695.85 148.74H696.966V143.868H698.562V150H697.302L697.086 149.568C696.782 149.856 696.418 150 695.994 150ZM699.6 150V143.868H700.74L701.04 144.516C701.36 144.084 701.764 143.868 702.252 143.868H702.72V145.476H701.196V150H699.6ZM705.958 145.128H705.058C704.938 145.272 704.838 145.472 704.758 145.728C704.686 145.984 704.65 146.232 704.65 146.472H706.366C706.382 146.232 706.35 145.984 706.27 145.728C706.19 145.464 706.086 145.264 705.958 145.128ZM707.59 148.74V150H704.542C703.982 149.624 703.586 149.16 703.354 148.608C703.13 148.048 703.018 147.484 703.018 146.916C703.018 145.604 703.514 144.588 704.506 143.868H706.45C706.986 144.26 707.35 144.676 707.542 145.116C707.734 145.556 707.83 146 707.83 146.448C707.83 146.896 707.794 147.28 707.722 147.6H704.734C704.758 147.784 704.826 147.996 704.938 148.236C705.058 148.468 705.186 148.636 705.322 148.74H707.59ZM710.569 150V143.868H711.709L712.009 144.516C712.329 144.084 712.733 143.868 713.221 143.868H713.689V145.476H712.165V150H710.569ZM716.927 145.128H716.027C715.907 145.272 715.807 145.472 715.727 145.728C715.655 145.984 715.619 146.232 715.619 146.472H717.335C717.351 146.232 717.319 145.984 717.239 145.728C717.159 145.464 717.055 145.264 716.927 145.128ZM718.559 148.74V150H715.511C714.951 149.624 714.555 149.16 714.323 148.608C714.099 148.048 713.987 147.484 713.987 146.916C713.987 145.604 714.483 144.588 715.475 143.868H717.419C717.955 144.26 718.319 144.676 718.511 145.116C718.703 145.556 718.799 146 718.799 146.448C718.799 146.896 718.763 147.28 718.691 147.6H715.703C715.727 147.784 715.795 147.996 715.907 148.236C716.027 148.468 716.155 148.636 716.291 148.74H718.559ZM719.847 147.324V145.128H719.019V143.868H719.847V142.2H721.443V143.868H722.427V145.128H721.443V147.708C721.443 148.196 721.527 148.54 721.695 148.74H722.427V150H720.723C720.299 149.608 720.043 149.184 719.955 148.728C719.883 148.344 719.847 147.876 719.847 147.324ZM723.237 150V143.868H724.377L724.677 144.516C724.997 144.084 725.401 143.868 725.889 143.868H726.357V145.476H724.833V150H723.237ZM727.045 150V143.868H728.629V150H727.045ZM727.045 141.6H728.629V143.22H727.045V141.6ZM732.431 145.128H731.531C731.411 145.272 731.311 145.472 731.231 145.728C731.159 145.984 731.123 146.232 731.123 146.472H732.839C732.855 146.232 732.823 145.984 732.743 145.728C732.663 145.464 732.559 145.264 732.431 145.128ZM734.063 148.74V150H731.015C730.455 149.624 730.059 149.16 729.827 148.608C729.603 148.048 729.491 147.484 729.491 146.916C729.491 145.604 729.987 144.588 730.979 143.868H732.923C733.459 144.26 733.823 144.676 734.015 145.116C734.207 145.556 734.303 146 734.303 146.448C734.303 146.896 734.267 147.28 734.195 147.6H731.207C731.231 147.784 731.299 147.996 731.411 148.236C731.531 148.468 731.659 148.636 731.795 148.74H734.063ZM738.481 150H736.261C735.877 149.688 735.573 149.276 735.349 148.764C735.125 148.252 735.013 147.684 735.013 147.06V143.868H736.609V147.012C736.609 147.716 736.741 148.292 737.005 148.74H737.737C738.001 148.268 738.133 147.696 738.133 147.024V143.868H739.729V147C739.729 147.632 739.617 148.212 739.393 148.74C739.169 149.268 738.865 149.688 738.481 150ZM743.437 147.228H742.153C741.985 147.436 741.901 147.696 741.901 148.008C741.901 148.32 741.989 148.564 742.165 148.74H743.437V147.228ZM740.857 143.868H743.833C744.313 144.156 744.629 144.488 744.781 144.864C744.933 145.232 745.009 145.736 745.009 146.376V148.176C745.009 148.84 745.025 149.448 745.057 150H743.689L743.473 149.568C743.161 149.856 742.721 150 742.153 150H741.397C740.717 149.552 740.377 148.908 740.377 148.068C740.377 147.22 740.725 146.552 741.421 146.064H742.549C742.861 146.064 743.153 146.16 743.425 146.352V145.752C743.425 145.44 743.289 145.232 743.017 145.128H740.857V143.868ZM747.625 141.6V150H746.041V141.6H747.625ZM627.633 164.228H626.349C626.181 164.436 626.097 164.696 626.097 165.008C626.097 165.32 626.185 165.564 626.361 165.74H627.633V164.228ZM625.053 160.868H628.029C628.509 161.156 628.825 161.488 628.977 161.864C629.129 162.232 629.205 162.736 629.205 163.376V165.176C629.205 165.84 629.221 166.448 629.253 167H627.885L627.669 166.568C627.357 166.856 626.917 167 626.349 167H625.593C624.913 166.552 624.573 165.908 624.573 165.068C624.573 164.22 624.921 163.552 625.617 163.064H626.745C627.057 163.064 627.349 163.16 627.621 163.352V162.752C627.621 162.44 627.485 162.232 627.213 162.128H625.053V160.868ZM632.901 160.868H634.173C634.525 161.316 634.765 161.764 634.893 162.212C635.021 162.66 635.085 163.22 635.085 163.892V167H633.489V163.772C633.489 163.012 633.385 162.464 633.177 162.128H631.833V167H630.237V160.868H631.485L631.701 161.3C631.877 161.14 632.041 161.028 632.193 160.964C632.353 160.9 632.589 160.868 632.901 160.868ZM640.717 167H639.505L639.289 166.568C639.113 166.728 638.945 166.84 638.785 166.904C638.633 166.968 638.401 167 638.089 167H637.045C636.693 166.664 636.413 166.224 636.205 165.68C636.005 165.136 635.905 164.528 635.905 163.856C635.905 163.176 636.005 162.6 636.205 162.128C636.413 161.656 636.705 161.236 637.081 160.868H638.113C638.537 160.868 638.873 160.98 639.121 161.204V158.6H640.717V167ZM639.121 162.128H637.969C637.673 162.632 637.525 163.252 637.525 163.988C637.525 164.716 637.669 165.3 637.957 165.74H639.121V162.128ZM646.558 164.228H645.274C645.106 164.436 645.022 164.696 645.022 165.008C645.022 165.32 645.11 165.564 645.286 165.74H646.558V164.228ZM643.978 160.868H646.954C647.434 161.156 647.75 161.488 647.902 161.864C648.054 162.232 648.13 162.736 648.13 163.376V165.176C648.13 165.84 648.146 166.448 648.178 167H646.81L646.594 166.568C646.282 166.856 645.842 167 645.274 167H644.518C643.838 166.552 643.498 165.908 643.498 165.068C643.498 164.22 643.846 163.552 644.542 163.064H645.67C645.982 163.064 646.274 163.16 646.546 163.352V162.752C646.546 162.44 646.41 162.232 646.138 162.128H643.978V160.868ZM651.826 160.868H653.098C653.45 161.316 653.69 161.764 653.818 162.212C653.946 162.66 654.01 163.22 654.01 163.892V167H652.414V163.772C652.414 163.012 652.31 162.464 652.102 162.128H650.758V167H649.162V160.868H650.41L650.626 161.3C650.802 161.14 650.966 161.028 651.118 160.964C651.278 160.9 651.514 160.868 651.826 160.868ZM657.89 164.228H656.606C656.438 164.436 656.354 164.696 656.354 165.008C656.354 165.32 656.442 165.564 656.618 165.74H657.89V164.228ZM655.31 160.868H658.286C658.766 161.156 659.082 161.488 659.234 161.864C659.386 162.232 659.462 162.736 659.462 163.376V165.176C659.462 165.84 659.478 166.448 659.51 167H658.142L657.926 166.568C657.614 166.856 657.174 167 656.606 167H655.85C655.17 166.552 654.83 165.908 654.83 165.068C654.83 164.22 655.178 163.552 655.874 163.064H657.002C657.314 163.064 657.606 163.16 657.878 163.352V162.752C657.878 162.44 657.742 162.232 657.47 162.128H655.31V160.868ZM662.079 158.6V167H660.495V158.6H662.079ZM663.072 163.628V160.868H664.668V163.64C664.668 164.336 664.808 164.916 665.088 165.38H665.796C666.06 164.924 666.192 164.344 666.192 163.64V160.868H667.788V163.544C667.788 164.144 667.708 164.672 667.548 165.128C667.396 165.584 667.144 166.1 666.792 166.676L665.988 167.984C665.844 168.232 665.692 168.416 665.532 168.536C665.372 168.656 665.164 168.744 664.908 168.8H663.012V167.54H664.308C664.476 167.492 664.616 167.408 664.728 167.288C664.84 167.168 664.956 166.996 665.076 166.772L665.148 166.64H664.32C663.936 166.328 663.632 165.908 663.408 165.38C663.184 164.844 663.072 164.26 663.072 163.628ZM669.204 160.868H671.856V162.128H669.984L671.124 163.82C671.636 164.548 671.92 165.048 671.976 165.32C672.008 165.448 672.024 165.58 672.024 165.716C672.024 166.284 671.812 166.712 671.388 167H668.328V165.74H670.524L669.24 163.856C669.184 163.768 669.096 163.644 668.976 163.484C668.864 163.324 668.776 163.196 668.712 163.1C668.648 162.996 668.604 162.92 668.58 162.872C668.556 162.824 668.524 162.764 668.484 162.692C668.444 162.612 668.416 162.544 668.4 162.488C668.368 162.336 668.352 162.212 668.352 162.116C668.352 161.532 668.636 161.116 669.204 160.868ZM672.799 167V160.868H674.383V167H672.799ZM672.799 158.6H674.383V160.22H672.799V158.6ZM676.012 160.868H678.664V162.128H676.792L677.932 163.82C678.444 164.548 678.728 165.048 678.784 165.32C678.816 165.448 678.832 165.58 678.832 165.716C678.832 166.284 678.62 166.712 678.196 167H675.136V165.74H677.332L676.048 163.856C675.992 163.768 675.904 163.644 675.784 163.484C675.672 163.324 675.584 163.196 675.52 163.1C675.456 162.996 675.412 162.92 675.388 162.872C675.364 162.824 675.332 162.764 675.292 162.692C675.252 162.612 675.224 162.544 675.208 162.488C675.176 162.336 675.16 162.212 675.16 162.116C675.16 161.532 675.444 161.116 676.012 160.868ZM679.572 165.224H681.3V167H679.572V165.224Z" fill="black"/>
<line x1="652.5" y1="213" x2="652.5" y2="319" stroke="#1B1D57" stroke-width="3" stroke-dasharray="10 10"/>
<circle cx="653" cy="343" r="23.5" fill="#80C8FF" stroke="#1B1D57" stroke-width="3"/>
<path d="M311.061 346.061C311.646 345.475 311.646 344.525 311.061 343.939L301.515 334.393C300.929 333.808 299.979 333.808 299.393 334.393C298.808 334.979 298.808 335.929 299.393 336.515L307.879 345L299.393 353.485C298.808 354.071 298.808 355.021 299.393 355.607C299.979 356.192 300.929 356.192 301.515 355.607L311.061 346.061ZM250 346.5H310V343.5H250V346.5Z" fill="#0D0C0C"/>
<path d="M478.333 298.967H469.667V307.85H460.783V392.133H521.667V383.25H530.333V374.367H539.217V290.083H478.333V298.967ZM517.333 387.583H465.117V311.967H517.333V387.583ZM526 378.7H521.667V307.633H474V303.3H526V378.7ZM482.667 294.417H534.883V370.033H530.333V298.967H482.667V294.417Z" fill="black"/>
<path d="M472.05 376.1H511.267V380.433H472.05V376.1ZM472.05 364.833H511.267V369.167H472.05V364.833ZM472.05 353.35H511.267V357.683H472.05V353.35ZM471.4 341.867H511.267V346.2H471.4V341.867ZM471.4 330.6H511.267V334.933H471.4V330.6ZM471.4 319.117H511.267V323.45H471.4V319.117Z" fill="black"/>
<defs>
<clipPath id="clip0_12_2">
<rect width="109" height="109" fill="white" transform="translate(133 281)"/>
</clipPath>
</defs>
</svg>
