<svg width="567" height="282" viewBox="0 0 567 282" fill="none" xmlns="http://www.w3.org/2000/svg">
<path d="M406.355 88.8553C407.184 88.8553 407.855 88.1838 407.855 87.3553V73.8553C407.855 73.0269 407.184 72.3553 406.355 72.3553C405.527 72.3553 404.855 73.0269 404.855 73.8553V85.8553H392.855C392.027 85.8553 391.355 86.5269 391.355 87.3553C391.355 88.1838 392.027 88.8553 392.855 88.8553H406.355ZM369.939 53.0607L405.295 88.416L407.416 86.2947L372.061 50.9393L369.939 53.0607Z" fill="#0D0C0C"/>
<path d="M369.5 212.355C369.5 213.184 370.171 213.855 371 213.855H384.5C385.328 213.855 386 213.184 386 212.355C386 211.527 385.328 210.855 384.5 210.855H372.5V198.855C372.5 198.027 371.828 197.355 371 197.355C370.171 197.355 369.5 198.027 369.5 198.855V212.355ZM405.295 175.939L387.617 193.617L389.738 195.738L407.416 178.061L405.295 175.939ZM387.617 193.617L369.939 211.295L372.061 213.416L389.738 195.738L387.617 193.617Z" fill="#0D0C0C"/>
<path d="M160 175.5C159.171 175.5 158.5 176.172 158.5 177V190.5C158.5 191.328 159.171 192 160 192C160.828 192 161.5 191.328 161.5 190.5V178.5H173.5C174.328 178.5 175 177.828 175 177C175 176.172 174.328 175.5 173.5 175.5H160ZM196.416 211.295L161.061 175.939L158.939 178.061L194.295 213.416L196.416 211.295Z" fill="#0D0C0C"/>
<path d="M196.855 55.973C196.855 55.1445 196.184 54.473 195.355 54.473H181.855C181.027 54.473 180.355 55.1445 180.355 55.973C180.355 56.8014 181.027 57.473 181.855 57.473H193.855V69.473C193.855 70.3014 194.527 70.973 195.355 70.973C196.184 70.973 196.855 70.3014 196.855 69.473V55.973ZM161.061 92.389L196.416 57.0336L194.295 54.9123L158.939 90.2676L161.061 92.389Z" fill="#0D0C0C"/>
<path d="M343.024 173H223.075C222.018 172.996 220.971 173.202 219.994 173.604C219.016 174.006 218.127 174.598 217.377 175.345C216.627 176.093 216.031 176.981 215.623 177.959C215.216 178.938 215.004 179.987 215 181.048V273.952C215.004 275.013 215.216 276.062 215.623 277.041C216.031 278.019 216.627 278.907 217.377 279.655C218.127 280.402 219.016 280.994 219.994 281.396C220.971 281.798 222.018 282.004 223.075 282H343.024C345.142 281.985 347.169 281.131 348.662 279.624C350.156 278.116 350.996 276.078 351 273.952V181.048C350.996 178.922 350.156 176.884 348.662 175.376C347.169 173.869 345.142 173.015 343.024 173ZM217.833 181.048C217.835 180.36 217.972 179.68 218.237 179.045C218.502 178.411 218.889 177.836 219.376 177.352C219.863 176.868 220.441 176.486 221.076 176.227C221.71 175.969 222.39 175.838 223.075 175.844H343.024C344.392 175.855 345.7 176.408 346.663 177.383C347.626 178.358 348.167 179.675 348.167 181.048V189.821H217.833V181.048ZM261.991 279.156H249.963C252.663 273.355 256.823 268.361 262.033 264.667L261.991 279.156ZM264.824 279.156V262.833L265.15 262.648C270.591 259.592 276.722 257.988 282.957 257.988C289.193 257.988 295.324 259.592 300.765 262.648L301.077 262.833V279.156H264.824ZM279.798 254.985C275.849 254.5 272.051 253.165 268.664 251.069C265.277 248.974 262.382 246.168 260.176 242.844C257.971 239.521 256.508 235.758 255.887 231.813C255.266 227.869 255.502 223.837 256.579 219.993C258.406 213.516 262.553 207.945 268.224 204.352L271.667 212.187C272.139 213.258 272.911 214.168 273.89 214.807C274.868 215.445 276.01 215.785 277.177 215.784H288.822C289.99 215.785 291.132 215.445 292.11 214.807C293.089 214.168 293.861 213.258 294.333 212.187L297.776 204.338C303.008 207.695 306.953 212.733 308.966 218.629C310.979 224.525 310.943 230.932 308.862 236.805C306.781 242.677 302.779 247.669 297.509 250.965C292.238 254.262 286.01 255.669 279.841 254.956L279.798 254.985ZM253.732 219.609C252.322 224.818 252.322 230.31 253.732 235.519C251.687 235.433 249.756 234.556 248.34 233.074C246.924 231.592 246.134 229.618 246.134 227.564C246.134 225.51 246.924 223.536 248.34 222.054C249.756 220.571 251.687 219.695 253.732 219.609ZM273.905 201.551C279.397 199.674 285.331 199.536 290.905 201.153C292.432 201.595 293.912 202.186 295.325 202.916L291.769 211.035C291.518 211.601 291.108 212.082 290.591 212.42C290.073 212.758 289.469 212.939 288.851 212.94H277.177C276.56 212.939 275.956 212.758 275.438 212.42C274.92 212.082 274.511 211.601 274.259 211.035L270.703 202.916C271.734 202.379 272.805 201.923 273.905 201.551ZM312.24 219.609C314.284 219.695 316.216 220.571 317.632 222.054C319.048 223.536 319.838 225.51 319.838 227.564C319.838 229.618 319.048 231.592 317.632 233.074C316.216 234.556 314.284 235.433 312.24 235.519C313.657 230.311 313.657 224.817 312.24 219.609ZM303.952 279.156V264.653C309.172 268.343 313.335 273.344 316.022 279.156H303.952ZM348.167 273.952C348.167 275.332 347.62 276.656 346.648 277.632C345.676 278.608 344.357 279.156 342.982 279.156H319.111C316.749 273.594 313.146 268.65 308.58 264.706C304.014 260.762 298.607 257.922 292.775 256.406C297.002 254.953 300.857 252.58 304.065 249.459C307.273 246.338 309.754 242.544 311.333 238.349C311.522 238.363 311.711 238.363 311.9 238.349C314.644 238.366 317.292 237.331 319.301 235.455C321.311 233.579 322.531 231.004 322.711 228.255C322.892 225.507 322.021 222.792 320.274 220.667C318.528 218.542 316.039 217.167 313.317 216.822V198.565C313.317 198.188 313.167 197.826 312.902 197.56C312.636 197.293 312.276 197.143 311.9 197.143C311.524 197.143 311.164 197.293 310.898 197.56C310.633 197.826 310.483 198.188 310.483 198.565V214.717C308.04 209.473 304.158 205.036 299.291 201.928C294.424 198.819 288.776 197.168 283.007 197.168C277.239 197.168 271.59 198.819 266.723 201.928C261.856 205.036 257.974 209.473 255.531 214.717V198.565C255.531 198.188 255.382 197.826 255.116 197.56C254.85 197.293 254.49 197.143 254.114 197.143C253.738 197.143 253.378 197.293 253.112 197.56C252.847 197.826 252.697 198.188 252.697 198.565V216.85C249.975 217.195 247.486 218.571 245.74 220.696C243.994 222.821 243.122 225.535 243.303 228.284C243.484 231.032 244.703 233.607 246.713 235.484C248.722 237.36 251.37 238.395 254.114 238.377C254.312 238.391 254.511 238.391 254.709 238.377C256.324 242.541 258.817 246.304 262.018 249.409C265.219 252.514 269.052 254.887 273.253 256.364C267.413 257.873 261.997 260.71 257.423 264.654C252.85 268.599 249.24 273.546 246.875 279.114H223.075C221.699 279.125 220.374 278.588 219.391 277.62C218.408 276.653 217.848 275.334 217.833 273.952V192.664H348.167V273.952Z" fill="black"/>
<path d="M328.985 181.403H328.404C328.028 181.403 327.668 181.553 327.402 181.82C327.137 182.086 326.988 182.448 326.988 182.825C326.988 183.202 327.137 183.564 327.402 183.831C327.668 184.097 328.028 184.247 328.404 184.247H328.985C329.361 184.247 329.721 184.097 329.987 183.831C330.252 183.564 330.402 183.202 330.402 182.825C330.402 182.448 330.252 182.086 329.987 181.82C329.721 181.553 329.361 181.403 328.985 181.403ZM335.147 181.403H334.581C334.205 181.403 333.845 181.553 333.579 181.82C333.313 182.086 333.164 182.448 333.164 182.825C333.164 183.202 333.313 183.564 333.579 183.831C333.845 184.097 334.205 184.247 334.581 184.247H335.147C335.523 184.247 335.884 184.097 336.149 183.831C336.415 183.564 336.564 183.202 336.564 182.825C336.564 182.448 336.415 182.086 336.149 181.82C335.884 181.553 335.523 181.403 335.147 181.403ZM341.324 181.403H340.758C340.382 181.403 340.021 181.553 339.756 181.82C339.49 182.086 339.341 182.448 339.341 182.825C339.341 183.202 339.49 183.564 339.756 183.831C340.021 184.097 340.382 184.247 340.758 184.247H341.324C341.7 184.247 342.06 184.097 342.326 183.831C342.592 183.564 342.741 183.202 342.741 182.825C342.741 182.448 342.592 182.086 342.326 181.82C342.06 181.553 341.7 181.403 341.324 181.403ZM260.56 181.403H225.143C224.768 181.403 224.407 181.553 224.142 181.82C223.876 182.086 223.727 182.448 223.727 182.825C223.727 183.202 223.876 183.564 224.142 183.831C224.407 184.097 224.768 184.247 225.143 184.247H260.56C260.936 184.247 261.296 184.097 261.562 183.831C261.827 183.564 261.977 183.202 261.977 182.825C261.977 182.448 261.827 182.086 261.562 181.82C261.296 181.553 260.936 181.403 260.56 181.403ZM272.573 227.514C272.573 227.891 272.723 228.253 272.988 228.52C273.254 228.786 273.614 228.936 273.99 228.936C274.366 228.936 274.726 228.786 274.992 228.52C275.257 228.253 275.407 227.891 275.407 227.514C275.385 226.162 274.849 224.87 273.909 223.901C272.969 222.932 271.696 222.36 270.35 222.302C269.004 222.244 267.687 222.704 266.668 223.588C265.649 224.473 265.004 225.714 264.867 227.059C264.801 227.277 264.788 227.507 264.829 227.73C264.87 227.954 264.964 228.164 265.102 228.344C265.241 228.524 265.421 228.667 265.626 228.763C265.832 228.858 266.057 228.903 266.283 228.893C266.659 228.893 267.019 228.744 267.285 228.477C267.551 228.21 267.7 227.849 267.7 227.472C267.7 226.819 267.958 226.194 268.418 225.732C268.877 225.271 269.501 225.012 270.151 225.012C270.801 225.012 271.424 225.271 271.884 225.732C272.343 226.194 272.602 226.819 272.602 227.472L272.573 227.514ZM292.01 228.936C292.386 228.936 292.746 228.786 293.012 228.52C293.277 228.253 293.427 227.891 293.427 227.514C293.427 226.862 293.685 226.236 294.144 225.775C294.604 225.314 295.227 225.054 295.877 225.054C296.527 225.054 297.151 225.314 297.61 225.775C298.07 226.236 298.328 226.862 298.328 227.514C298.328 227.891 298.478 228.253 298.743 228.52C299.009 228.786 299.369 228.936 299.745 228.936C302.663 228.936 300.935 222.211 295.877 222.211C294.477 222.214 293.135 222.774 292.145 223.768C291.155 224.762 290.597 226.109 290.593 227.514C290.593 227.891 290.743 228.253 291.008 228.52C291.274 228.786 291.634 228.936 292.01 228.936ZM297.294 242.216V237.681C297.29 236.788 296.936 235.933 296.307 235.302C295.678 234.671 294.826 234.314 293.937 234.311H272.063C271.174 234.314 270.322 234.671 269.693 235.302C269.064 235.933 268.71 236.788 268.706 237.681V242.216C268.71 243.109 269.064 243.964 269.693 244.595C270.322 245.226 271.174 245.582 272.063 245.586H293.937C294.826 245.582 295.678 245.226 296.307 244.595C296.936 243.964 297.29 243.109 297.294 242.216ZM271.539 242.216V237.681C271.539 237.541 271.594 237.407 271.693 237.309C271.791 237.21 271.924 237.154 272.063 237.154H293.937C294.076 237.154 294.209 237.21 294.307 237.309C294.406 237.407 294.461 237.541 294.461 237.681V242.216C294.461 242.356 294.406 242.49 294.307 242.588C294.209 242.687 294.076 242.742 293.937 242.742H272.063C271.924 242.742 271.791 242.687 271.693 242.588C271.594 242.49 271.539 242.356 271.539 242.216Z" fill="black"/>
<g clip-path="url(#clip0_89_44)">
<path d="M432.894 97.1298L438.807 93.7898L438.906 93.4997L438.807 93.3383H438.519L437.531 93.2771L434.152 93.1851L431.222 93.0626L428.384 92.9094L427.67 92.7561L427 91.8675L427.069 91.4242L427.67 91.0177L428.53 91.0933L430.431 91.224L433.284 91.4222L435.354 91.5448L438.419 91.8655H438.906L438.975 91.6673L438.809 91.5448L438.679 91.4222L435.727 89.408L432.531 87.2794L430.857 86.0537L429.952 85.4327L429.496 84.8505L429.299 83.5799L430.121 82.6688L431.224 82.7444L431.507 82.8199L432.625 83.6861L435.013 85.5471L438.131 87.8595L438.588 88.2415L438.77 88.1108L438.793 88.0189L438.588 87.6737L436.892 84.587L435.082 81.4472L434.276 80.1459L434.063 79.3656C433.988 79.0448 433.933 78.7752 433.933 78.4463L434.869 77.1675L435.386 77L436.634 77.1675L437.159 77.6271L437.935 79.4126L439.19 82.2235L441.138 86.0455L441.709 87.1793L442.013 88.2293L442.127 88.55H442.323V88.3662L442.484 86.213L442.78 83.5697L443.068 80.1684L443.167 79.2103L443.638 78.0623L444.574 77.4412L445.304 77.7926L445.905 78.6588L445.821 79.2185L445.464 81.5555L444.764 85.2162L444.308 87.6675H444.574L444.878 87.3611L446.11 85.7146L448.179 83.11L449.092 82.0764L450.157 80.9344L450.841 80.3911H452.134L453.085 81.8149L452.659 83.2857L451.328 84.9853L450.224 86.4255L448.642 88.5704L447.654 90.2864L447.745 90.4233L447.98 90.4008L451.555 89.6347L453.487 89.2834L455.792 88.885L456.835 89.3753L456.949 89.8737L456.539 90.8931L454.074 91.506L451.182 92.0882L446.877 93.1136L446.824 93.1525L446.885 93.228L448.824 93.4119L449.654 93.4568H451.685L455.467 93.7408L456.456 94.3986L457.048 95.2034L456.949 95.8163L455.427 96.5966L453.374 96.1063L448.581 94.9583L446.937 94.5456H446.71V94.6825L448.08 96.0308L450.59 98.3126L453.733 101.254L453.893 101.981L453.489 102.555L453.063 102.494L450.302 100.402L449.236 99.4606L446.824 97.4158H446.663V97.6303L447.219 98.4494L450.155 102.893L450.308 104.255L450.095 104.698L449.334 104.966L448.498 104.813L446.779 102.384L445.006 99.6486L443.575 97.1972L443.401 97.2973L442.557 106.451L442.161 106.919L441.248 107.27L440.487 106.688L440.083 105.746L440.487 103.885L440.974 101.456L441.37 99.526L441.727 97.1277L441.94 96.3311L441.926 96.2779L441.751 96.3004L439.955 98.7824L437.224 102.498L435.063 104.827L434.546 105.033L433.649 104.566L433.732 103.73L434.234 102.987L437.224 99.1562L439.028 96.7825L440.193 95.4118L440.185 95.2136H440.116L432.172 100.406L430.758 100.59L430.149 100.016L430.224 99.0745L430.512 98.7681L432.9 97.1134L432.892 97.1216L432.894 97.1298Z" fill="#D97757"/>
<path d="M476.056 102.698C472.238 102.698 469.626 100.554 468.395 97.2523C467.751 95.5323 467.433 93.706 467.459 91.8675C467.459 86.3295 469.924 82.4829 475.372 82.4829C479.033 82.4829 481.291 84.0906 482.578 87.929H484.144L483.931 82.6361C481.74 81.2122 479 80.4911 475.669 80.4911C470.973 80.4911 466.98 82.6054 464.758 86.4194C463.61 88.4336 463.028 90.7235 463.07 93.0462C463.07 97.283 465.057 101.036 468.784 103.119C470.825 104.216 473.114 104.762 475.427 104.696C479.063 104.696 481.949 104 484.505 102.782L485.167 96.9459H483.57C482.612 99.6118 481.47 101.213 479.575 102.063C478.647 102.484 477.474 102.698 476.06 102.698H476.056ZM492.528 82.4829L492.68 79.8783H491.601L486.792 81.3328V82.1213L488.922 83.1161V101.332C488.922 102.572 488.291 102.848 486.64 103.056V104.388H494.819V103.056C493.161 102.85 492.536 102.574 492.536 101.332V82.489L492.528 82.4808V82.4829ZM525.056 104.698H525.687L531.218 103.642V102.28L530.443 102.218C529.15 102.096 528.815 101.828 528.815 100.764V91.0504L528.968 87.9331H528.093L522.866 88.691V90.0229L523.376 90.1148C524.79 90.3211 525.21 90.7195 525.21 91.7163V100.372C523.856 101.428 522.562 102.096 521.026 102.096C519.321 102.096 518.264 101.224 518.264 99.1848V91.0565L518.417 87.9392H517.52L512.285 88.6971V90.029L512.824 90.1209C514.239 90.3272 514.659 90.7256 514.659 91.7225V99.7119C514.659 103.097 516.56 104.707 519.589 104.707C521.902 104.707 523.798 103.467 525.22 101.742L525.068 104.707L525.06 104.698H525.056ZM509.854 93.9205C509.854 89.5918 507.571 87.931 503.448 87.931C499.812 87.931 497.17 89.4468 497.17 91.9594C497.17 92.7092 497.436 93.2852 497.976 93.6836L500.746 93.3159C500.624 92.4742 500.563 91.9594 500.563 91.7449C500.563 90.3211 501.316 89.6 502.846 89.6C505.106 89.6 506.246 91.2016 506.246 93.7755V94.6171L500.541 96.3413C498.639 96.8622 497.558 97.3136 496.836 98.3718C496.452 99.0194 496.267 99.765 496.304 100.517C496.304 102.968 497.978 104.698 500.839 104.698C502.909 104.698 504.743 103.757 506.34 101.971C506.91 103.757 507.784 104.698 509.345 104.698C510.607 104.698 511.749 104.186 512.768 103.183L512.463 102.126C512.023 102.249 511.597 102.31 511.146 102.31C510.272 102.31 509.854 101.614 509.854 100.249V93.9226V93.9205ZM502.549 102.247C500.989 102.247 500.023 101.336 500.023 99.7344C500.023 98.6476 500.533 98.0102 501.62 97.6425L506.246 96.1635V100.637C504.771 101.763 503.903 102.245 502.549 102.245V102.247ZM550.711 103.64V102.278L549.928 102.216C548.635 102.094 548.306 101.826 548.306 100.762V82.4849L548.459 79.8803H547.371L542.562 81.3348V82.1233L544.693 83.1182V89.1077C543.493 88.2803 542.059 87.8657 540.606 87.929C535.828 87.929 532.1 91.5897 532.1 97.0685C532.1 101.581 534.779 104.698 539.192 104.698C541.475 104.698 543.461 103.581 544.693 101.849L544.54 104.698H545.18L550.711 103.642V103.64ZM540.697 89.745C542.98 89.745 544.693 91.0769 544.693 93.5283V100.423C543.642 101.477 542.211 102.057 540.728 102.03C537.457 102.03 535.797 99.4259 535.797 95.949C535.797 92.0432 537.692 89.745 540.697 89.745ZM562.406 93.1933C561.98 91.1709 560.748 90.0229 559.036 90.0229C556.479 90.0229 554.706 91.9615 554.706 94.7417C554.706 98.8559 556.867 101.522 560.359 101.522C562.688 101.497 564.831 100.229 565.981 98.19L567 98.4658C566.543 102.035 563.333 104.7 559.391 104.7C554.765 104.7 551.577 101.254 551.577 96.3515C551.577 91.4487 555.039 87.9331 559.665 87.9331C563.118 87.9331 565.553 90.0249 566.339 93.655L554.286 97.377V95.7386L562.404 93.2035V93.1953L562.406 93.1933Z" fill="#0F0F0D"/>
</g>
<path fill-rule="evenodd" clip-rule="evenodd" d="M529.558 126.72C529.558 121.689 525.483 117.613 520.451 117.613H474.918C469.886 117.613 465.811 121.689 465.811 126.72V172.254C465.811 177.285 469.886 181.36 474.918 181.36H520.451C525.483 181.36 529.558 177.285 529.558 172.254V126.72Z" fill="#67A090"/>
<path fill-rule="evenodd" clip-rule="evenodd" d="M483.569 134.267C474.599 135.508 471.252 146.983 476.875 153.562C475.532 157.535 477.057 162.566 480.222 166.027C483.318 169.408 487.86 171.252 492.527 169.396C492.562 169.681 492.675 169.966 492.858 170.216C495.521 173.711 500.598 174.291 505.038 172.572C508.578 171.206 511.617 168.44 512.642 164.911C515.647 164.046 518.163 161.667 519.62 158.673C521.658 154.461 521.601 149.123 518.095 145.377C518.208 145.161 518.299 144.945 518.368 144.763C519.54 141.507 518.778 137.728 516.729 134.7C514.008 130.681 509.102 128.018 503.899 129.509C503.786 129.361 503.672 129.224 503.569 129.088C500.928 125.627 495.908 124.762 491.503 126.117C487.576 127.323 484.252 130.249 483.557 134.256L483.569 134.267ZM505.869 149.532L505.948 160.7C505.948 161.28 505.664 161.826 505.163 162.145C505.163 162.145 499.893 165.549 495.419 167.962C495.476 168.019 495.521 168.076 495.578 168.144C497.365 170.489 500.826 170.535 503.808 169.385C506.871 168.201 509.58 165.674 509.58 162.35V151.9L505.846 149.521L505.869 149.532ZM479.824 156.032C479.55 158.639 480.791 161.576 482.749 163.716C485.026 166.198 488.407 167.655 491.844 165.97C495.476 164.206 500.598 161.007 502.533 159.777L502.511 156.408L492.3 161.986C491.81 162.248 491.23 162.27 490.74 162.02C490.74 162.02 484.206 158.855 479.824 156.01V156.032ZM512.232 149.521C512.722 149.84 513.018 150.375 513.018 150.967V161.098C514.532 160.267 515.761 158.844 516.558 157.193C518.243 153.71 518.049 149.111 514.19 146.516C510.934 144.319 506.723 141.814 504.958 140.779L501.463 142.691L512.221 149.532L512.232 149.521ZM483.455 137.751C476.887 139.208 475.191 148.781 481.144 152.799C484.479 155.053 489.522 157.615 491.446 158.571L495.009 156.624L484.252 149.771C483.762 149.464 483.466 148.918 483.466 148.337V137.751H483.455ZM498.048 144.546C498.048 144.546 494.064 146.721 494.03 146.743V151.968L498.424 154.769C498.424 154.769 502.431 152.583 502.488 152.56L502.454 147.358L498.06 144.558L498.048 144.546ZM500.678 130.921C498.811 128.769 495.453 128.496 492.539 129.395C489.534 130.317 486.87 132.56 486.87 135.827V147.415L490.604 149.794L490.513 137.477C490.513 136.863 490.831 136.294 491.366 135.986C491.366 135.986 496.273 133.152 500.678 130.921ZM515.328 143.158C515.909 141.006 515.26 138.604 513.928 136.635C511.754 133.436 507.679 131.308 503.49 133.345C499.972 135.064 495.726 137.443 493.939 138.456L493.973 142.896L504.184 137.318C504.708 137.033 505.345 137.045 505.857 137.341C505.857 137.341 511.117 140.38 515.34 143.158H515.328Z" fill="white"/>
<mask id="mask0_89_44" style="mask-type:alpha" maskUnits="userSpaceOnUse" x="427" y="186" width="140" height="52">
<path fill-rule="evenodd" clip-rule="evenodd" d="M522.283 203.139C522.839 204.397 523.117 205.742 523.117 207.173C523.117 205.742 523.386 204.397 523.924 203.139C524.479 201.881 525.226 200.786 526.164 199.855C527.102 198.924 528.205 198.192 529.472 197.657C530.74 197.106 532.095 196.83 533.536 196.83C532.095 196.83 530.74 196.563 529.472 196.028C528.205 195.477 527.102 194.736 526.164 193.805C525.226 192.874 524.479 191.779 523.924 190.521C523.386 189.262 523.117 187.918 523.117 186.487C523.117 187.918 522.839 189.262 522.283 190.521C521.745 191.779 521.006 192.874 520.069 193.805C519.131 194.736 518.028 195.477 516.76 196.028C515.493 196.563 514.138 196.83 512.697 196.83C514.138 196.83 515.493 197.106 516.76 197.657C518.028 198.192 519.131 198.924 520.069 199.855C521.006 200.786 521.745 201.881 522.283 203.139ZM437.644 236.232C439.769 237.101 442.036 237.535 444.443 237.535C446.881 237.535 449.1 237.148 451.101 236.372C453.101 235.596 454.836 234.495 456.305 233.067C457.775 231.64 458.916 229.949 459.728 227.994C460.541 226.009 460.947 223.837 460.947 221.478V221.432C460.947 220.997 460.916 220.594 460.854 220.222C460.822 219.849 460.776 219.462 460.713 219.058H444.536V222.921H456.727C456.602 224.783 456.165 226.396 455.415 227.762C454.696 229.096 453.773 230.197 452.648 231.066C451.554 231.935 450.288 232.586 448.85 233.021C447.443 233.424 445.974 233.626 444.443 233.626C442.755 233.626 441.114 233.316 439.519 232.695C437.925 232.075 436.503 231.175 435.252 229.996C434.033 228.817 433.064 227.405 432.345 225.76C431.626 224.085 431.267 222.208 431.267 220.129C431.267 218.05 431.611 216.188 432.298 214.544C433.017 212.868 433.986 211.456 435.206 210.308C436.425 209.129 437.831 208.229 439.426 207.609C441.051 206.988 442.723 206.678 444.443 206.678C445.724 206.678 446.943 206.849 448.1 207.19C449.257 207.5 450.319 207.95 451.288 208.54C452.289 209.129 453.148 209.843 453.867 210.681L456.774 207.702C455.368 206.119 453.57 204.894 451.382 204.025C449.225 203.156 446.912 202.722 444.443 202.722C442.067 202.722 439.816 203.156 437.691 204.025C435.596 204.894 433.736 206.119 432.111 207.702C430.517 209.284 429.266 211.13 428.36 213.24C427.453 215.35 427 217.646 427 220.129C427 222.611 427.453 224.907 428.36 227.017C429.266 229.127 430.517 230.973 432.111 232.556C433.705 234.138 435.549 235.364 437.644 236.232ZM469.349 235.907C471.162 236.992 473.225 237.535 475.538 237.535C478.164 237.535 480.368 236.946 482.15 235.767C483.932 234.588 485.291 233.099 486.229 231.299L482.665 229.623C482.009 230.802 481.102 231.795 479.946 232.602C478.82 233.409 477.414 233.812 475.726 233.812C474.413 233.812 473.147 233.486 471.928 232.835C470.709 232.183 469.709 231.206 468.927 229.903C468.252 228.777 467.868 227.396 467.777 225.76H486.604C486.636 225.605 486.651 225.403 486.651 225.155C486.682 224.907 486.698 224.674 486.698 224.457C486.698 222.099 486.229 220.005 485.291 218.174C484.385 216.343 483.072 214.916 481.353 213.892C479.633 212.837 477.586 212.31 475.21 212.31C472.865 212.31 470.818 212.899 469.068 214.078C467.317 215.226 465.957 216.762 464.988 218.686C464.051 220.61 463.582 222.704 463.582 224.969C463.582 227.389 464.082 229.546 465.082 231.439C466.114 233.331 467.536 234.821 469.349 235.907ZM468.016 222.363C468.163 221.672 468.373 221.02 468.646 220.408C469.24 219.074 470.099 218.019 471.225 217.243C472.381 216.436 473.725 216.033 475.257 216.033C476.538 216.033 477.617 216.25 478.492 216.685C479.368 217.088 480.086 217.615 480.649 218.267C481.212 218.919 481.618 219.617 481.868 220.361C482.118 221.075 482.259 221.742 482.29 222.363H468.016ZM490.284 213.054V236.791H494.504V223.573C494.504 222.27 494.769 221.044 495.301 219.896C495.832 218.748 496.567 217.833 497.505 217.15C498.442 216.436 499.505 216.079 500.693 216.079C502.35 216.079 503.631 216.56 504.538 217.522C505.476 218.453 505.945 220.051 505.945 222.316V236.791H510.118V223.48C510.118 222.177 510.383 220.966 510.915 219.849C511.446 218.701 512.181 217.786 513.119 217.103C514.056 216.421 515.119 216.079 516.307 216.079C517.995 216.079 519.292 216.545 520.199 217.476C521.137 218.407 521.605 220.005 521.605 222.27V236.791H525.779V221.571C525.779 218.81 525.091 216.576 523.716 214.869C522.371 213.163 520.261 212.31 517.385 212.31C515.479 212.31 513.837 212.744 512.462 213.613C511.087 214.482 509.993 215.583 509.18 216.917C508.617 215.552 507.695 214.45 506.413 213.613C505.163 212.744 503.647 212.31 501.865 212.31C500.865 212.31 499.865 212.511 498.864 212.915C497.895 213.287 497.036 213.799 496.285 214.45C495.535 215.071 494.942 215.769 494.504 216.545H494.316V213.054H490.284ZM529.576 213.054V236.791H533.75V213.054H529.576ZM529.53 208.028C530.123 208.586 530.827 208.865 531.64 208.865C532.483 208.865 533.187 208.586 533.75 208.028C534.312 207.438 534.594 206.74 534.594 205.933C534.594 205.095 534.312 204.397 533.75 203.839C533.187 203.249 532.483 202.954 531.64 202.954C530.827 202.954 530.123 203.249 529.53 203.839C528.967 204.397 528.686 205.095 528.686 205.933C528.686 206.74 528.967 207.438 529.53 208.028ZM537.669 213.054V236.791H541.889V223.573C541.889 222.301 542.154 221.106 542.686 219.989C543.249 218.841 544.014 217.91 544.983 217.196C545.952 216.452 547.094 216.079 548.406 216.079C550.157 216.079 551.564 216.56 552.626 217.522C553.689 218.453 554.221 220.051 554.221 222.316V236.791H558.44V221.571C558.44 218.779 557.69 216.545 556.19 214.869C554.689 213.163 552.486 212.31 549.579 212.31C547.859 212.31 546.296 212.728 544.89 213.566C543.483 214.404 542.467 215.397 541.842 216.545H541.654V213.054H537.669ZM561.983 213.054V236.791H566.156V213.054H561.983ZM561.936 208.028C562.53 208.586 563.233 208.865 564.046 208.865C564.89 208.865 565.593 208.586 566.156 208.028C566.719 207.438 567 206.74 567 205.933C567 205.095 566.719 204.397 566.156 203.839C565.593 203.249 564.89 202.954 564.046 202.954C563.233 202.954 562.53 203.249 561.936 203.839C561.374 204.397 561.092 205.095 561.092 205.933C561.092 206.74 561.374 207.438 561.936 208.028Z" fill="white"/>
</mask>
<g mask="url(#mask0_89_44)">
<path d="M701.237 2.50146H362.596V279.353H701.237V2.50146Z" fill="url(#paint0_linear_89_44)"/>
</g>
<path d="M308.333 0C295.481 0 284.708 8.50158 281.083 20.1124H235.284C231.896 20.1124 229.142 22.8656 229.142 26.23V44.2002C229.142 45.9327 229.884 47.4772 231.059 48.592C230.419 49.1542 229.904 49.8442 229.55 50.617C229.195 51.3899 229.008 52.2283 229 53.0778V71.048C229.004 71.8826 229.182 72.7072 229.522 73.47C229.863 74.2328 230.358 74.9172 230.978 75.4801C230.359 76.0447 229.864 76.7304 229.523 77.4942C229.183 78.258 229.005 79.0834 229 79.9189V97.8891C229 101.26 231.767 104 235.156 104H310.553C312.183 104 313.745 103.356 314.897 102.21C316.049 101.064 316.696 99.5098 316.696 97.8891V79.9189C316.691 79.0834 316.513 78.258 316.173 77.4942C315.832 76.7304 315.337 76.0447 314.718 75.4801C315.338 74.9172 315.833 74.2328 316.174 73.47C316.514 72.7072 316.692 71.8826 316.696 71.048V55.6498C328.407 52.0772 337 41.3462 337 28.5266C336.993 20.9642 333.97 13.7135 328.596 8.36548C323.222 3.01743 315.934 0.00888941 308.333 0ZM308.333 3.35765C315.039 3.36654 321.468 6.02133 326.21 10.7397C330.951 15.4581 333.618 21.8548 333.625 28.5266C333.616 35.1974 330.948 41.5923 326.207 46.3092C321.466 51.0261 315.038 53.68 308.333 53.6889C301.626 53.6818 295.197 51.0287 290.454 46.3116C285.711 41.5945 283.043 35.1985 283.034 28.5266C283.041 21.8536 285.709 15.4559 290.452 10.7373C295.194 6.01877 301.625 3.36477 308.333 3.35765ZM319.335 17.856L302.19 34.9129L295.406 28.1573L293.017 30.5412L300.989 38.472C301.144 38.6298 301.329 38.7551 301.534 38.8407C301.739 38.9263 301.958 38.9703 302.18 38.9703C302.402 38.9703 302.622 38.9263 302.826 38.8407C303.031 38.7551 303.216 38.6298 303.371 38.472L321.718 20.2265L319.328 17.856H319.335ZM235.277 23.4633H280.165C279.843 25.1325 279.671 26.827 279.652 28.5266C279.652 35.5911 282.352 41.9707 286.638 46.9534H235.277C234.544 46.9534 233.84 46.6634 233.321 46.147C232.802 45.6307 232.51 44.9304 232.51 44.2002V26.2367C232.51 24.7123 233.752 23.4633 235.277 23.4633ZM240.839 33.5363V36.8939H267.819V33.5363H240.839ZM235.156 50.3044H290.067C295.049 54.441 301.353 57.0398 308.333 57.0398C310.04 57.0398 311.701 56.8182 313.328 56.5295V71.0345C313.328 71.7648 313.036 72.4651 312.517 72.9814C311.998 73.4977 311.294 73.7878 310.56 73.7878H235.149C234.414 73.7878 233.709 73.4982 233.188 72.9822C232.666 72.4663 232.372 71.766 232.368 71.0345V53.0845C232.368 51.5602 233.624 50.3178 235.149 50.3178L235.156 50.3044ZM301.515 60.0416C301.007 60.0805 300.532 60.3089 300.185 60.6811C299.838 61.0534 299.646 61.542 299.645 62.0495C299.645 62.5826 299.858 63.094 300.236 63.4716C300.615 63.8492 301.128 64.0623 301.664 64.0641C302.201 64.0641 302.716 63.8518 303.096 63.474C303.475 63.0962 303.689 62.5838 303.689 62.0495C303.687 61.5163 303.473 61.0056 303.093 60.6293C302.714 60.2529 302.2 60.0416 301.664 60.0416C301.614 60.0398 301.565 60.0398 301.515 60.0416ZM242.534 60.3706V63.7283H269.513V60.3706H242.534ZM235.156 77.1522H310.553C312.086 77.1522 313.321 78.4012 313.321 79.9189V97.8891C313.321 98.2506 313.249 98.6087 313.11 98.9427C312.971 99.2767 312.767 99.5803 312.51 99.8359C312.253 100.092 311.948 100.294 311.613 100.433C311.277 100.571 310.917 100.642 310.553 100.642H235.156C234.421 100.642 233.715 100.353 233.194 99.8368C232.673 99.3208 232.379 98.6205 232.375 97.8891V79.9189C232.375 78.3945 233.63 77.1522 235.156 77.1522ZM301.333 86.8894C300.823 86.9284 300.347 87.1577 300 87.5314C299.654 87.9051 299.462 88.3954 299.463 88.904C299.463 89.4371 299.676 89.9485 300.054 90.3261C300.432 90.7038 300.946 90.9168 301.482 90.9186C302.019 90.9186 302.534 90.7063 302.913 90.3285C303.293 89.9507 303.506 89.4383 303.506 88.904C303.506 88.3697 303.293 87.8573 302.913 87.4795C302.534 87.1016 302.019 86.8894 301.482 86.8894C301.432 86.8876 301.382 86.8876 301.333 86.8894ZM242.534 87.2252V90.5828H269.513V87.2252H242.534Z" fill="black"/>
<rect y="170" width="139" height="47" rx="12" fill="#1B1D57"/>
<path d="M6.25029 173C6.58189 173 6.8999 172.868 7.13438 172.634C7.36885 172.399 7.50058 172.081 7.50058 171.75V157.939C7.50058 155.206 8.95842 152.63 11.304 151.225L21.0912 145.351L26.4625 152.065C26.5726 152.202 26.7103 152.315 26.8667 152.395C27.023 152.476 27.1946 152.523 27.3702 152.533L27.4402 152.535C27.7703 152.535 28.0904 152.405 28.3254 152.17L31.2586 149.237V171.75C31.2586 172.081 31.3903 172.399 31.6248 172.634C31.8593 172.868 32.1773 173 32.5089 173C32.8405 173 33.1585 172.868 33.393 172.634C33.6275 172.399 33.7592 172.081 33.7592 171.75V146.754L33.7567 146.739L35.007 145.486L36.2598 146.739L36.2573 146.754V171.75C36.2573 172.081 36.389 172.399 36.6235 172.634C36.8579 172.868 37.176 173 37.5076 173C37.8392 173 38.1572 172.868 38.3916 172.634C38.6261 172.399 38.7579 172.081 38.7579 171.75V149.237L41.691 152.17C41.8074 152.286 41.9454 152.378 42.0973 152.441C42.2492 152.503 42.4119 152.536 42.5762 152.535L42.6463 152.533C42.8219 152.523 42.9934 152.476 43.1498 152.395C43.3062 152.315 43.4439 152.202 43.554 152.065L48.9252 145.351L58.715 151.225C59.8707 151.924 60.8271 152.909 61.4923 154.085C62.1575 155.261 62.5091 156.588 62.5134 157.939V171.75C62.5134 172.081 62.6451 172.399 62.8796 172.634C63.1141 172.868 63.4321 173 63.7637 173C64.0953 173 64.4133 172.868 64.6478 172.634C64.8822 172.399 65.014 172.081 65.014 171.75V157.939C65.014 154.331 63.091 150.937 59.9978 149.082L49.4303 142.743L45.4694 138.342C45.3045 138.166 45.0911 138.042 44.8562 137.987C44.6212 137.932 44.3752 137.947 44.1491 138.032V133.598C46.1058 132.166 47.6975 130.293 48.7953 128.13C49.8932 125.968 50.4662 123.578 50.4681 121.153V115.262L52.416 104.407C52.5981 103.419 52.5806 102.405 52.3646 101.425C52.1486 100.444 51.7384 99.5171 51.1582 98.6977C50.5829 97.8747 49.8487 97.1753 48.9988 96.6406C48.1489 96.1059 47.2005 95.7468 46.2096 95.5845L31.3111 93.1014C30.2446 92.9235 29.152 92.9802 28.1096 93.2673C27.0671 93.5545 26.0997 94.0653 25.2747 94.7643C23.8672 95.9591 22.9567 97.6366 22.7216 99.4679C21.2463 99.7429 19.911 100.531 18.9482 101.721C18.3504 102.458 17.9255 103.319 17.7048 104.242C17.4841 105.164 17.4732 106.125 17.6729 107.052L19.5134 115.667C19.5159 115.684 19.5284 115.692 19.5309 115.704V121.15C19.5309 126.254 22.0265 130.778 25.8498 133.596V138.027C25.625 137.946 25.3817 137.933 25.1495 137.989C24.9172 138.044 24.7062 138.166 24.542 138.339L20.5836 142.738L10.0162 149.079C8.48994 150.001 7.22676 151.301 6.34823 152.852C5.46969 154.404 5.00538 156.156 5 157.939V171.75C5 172.081 5.13173 172.399 5.3662 172.634C5.60068 172.868 5.91869 173 6.25029 173ZM46.9898 143.766L42.4712 149.414L37.1425 144.086L44.2366 140.707L46.9898 143.766ZM20.8912 103.296C21.2524 102.848 21.7099 102.486 22.2297 102.238C22.7495 101.99 23.3184 101.862 23.8944 101.863C24.5846 101.863 25.1447 101.136 25.1447 100.446C25.1434 99.7962 25.2703 99.153 25.5181 98.5528C25.7659 97.9525 26.1298 97.4072 26.5888 96.9479C27.0479 96.4886 27.5931 96.1244 28.1932 95.8763C28.7933 95.6282 29.4365 95.501 30.0858 95.502C30.359 95.5022 30.6316 95.5247 30.901 95.5695L45.7995 98.0525C47.1498 98.2776 48.3251 99.0178 49.1128 100.136C49.9004 101.256 50.2005 102.614 49.953 103.961L48.3951 112.641L45.7295 109.62V106.932C45.7295 106.601 45.5977 106.282 45.3633 106.048C45.1288 105.814 44.8108 105.682 44.4792 105.682H25.5198C25.1882 105.682 24.8702 105.814 24.6357 106.048C24.4012 106.282 24.2695 106.601 24.2695 106.932V109.613L21.4438 112.751L20.116 106.532C19.8735 105.387 20.156 104.206 20.8912 103.296ZM22.0315 121.15V115.837L26.45 110.928C26.6564 110.699 26.7705 110.401 26.7701 110.093V108.182H43.2289V110.093C43.2289 110.398 43.3389 110.693 43.5415 110.921L47.9675 115.934V121.15C47.9666 123.274 47.4444 125.364 46.4469 127.239C45.4493 129.113 44.0069 130.714 42.2462 131.9L42.2412 131.903C41.6277 132.307 40.9811 132.658 40.3082 132.953C40.0006 133.091 39.6806 133.198 39.363 133.311C38.6066 133.581 37.8275 133.783 37.035 133.913C36.8049 133.951 36.5698 133.961 36.3373 133.983C35.446 134.073 34.5479 134.073 33.6567 133.983C33.4266 133.958 33.1916 133.951 32.964 133.913C32.1732 133.782 31.3957 133.581 30.641 133.311C30.3209 133.198 29.9983 133.088 29.6857 132.951C29.0165 132.657 28.3732 132.307 27.7628 131.905L27.7453 131.895C25.9867 130.708 24.5461 129.108 23.55 127.235C22.5538 125.361 22.0324 123.272 22.0315 121.15ZM29.6432 135.644C29.7908 135.696 29.9333 135.756 30.0808 135.804C31.6652 136.341 33.3265 136.616 34.9995 136.619C36.6716 136.616 38.3321 136.341 39.9156 135.804C40.0657 135.754 40.2107 135.696 40.3607 135.641C40.7033 135.514 41.0434 135.379 41.376 135.229C41.466 135.189 41.561 135.159 41.651 135.116V139.167L35.007 142.333L28.3504 139.162V135.119C28.438 135.161 28.5305 135.189 28.618 135.229C28.9531 135.379 29.2956 135.516 29.6432 135.644ZM25.7773 140.707L32.8715 144.086L27.5427 149.414L23.0242 143.766L25.7773 140.707Z" fill="black"/>
<path d="M18.7533 173C19.0849 173 19.4029 172.868 19.6374 172.634C19.8719 172.399 20.0036 172.081 20.0036 171.75V165.893C20.0062 163.315 19.0416 160.829 17.3005 158.927L15.4075 156.854C15.2967 156.732 15.1631 156.634 15.0142 156.564C14.8654 156.495 14.7043 156.455 14.5401 156.448C14.376 156.44 14.212 156.465 14.0574 156.521C13.9029 156.577 13.761 156.663 13.6396 156.774C13.5183 156.885 13.42 157.018 13.3503 157.167C13.2806 157.316 13.2409 157.477 13.2335 157.641C13.226 157.805 13.251 157.969 13.307 158.124C13.3629 158.278 13.4488 158.42 13.5596 158.542L15.4525 160.615C16.773 162.055 17.5048 163.939 17.503 165.893V171.75C17.503 172.081 17.6347 172.399 17.8692 172.634C18.1037 172.868 18.4217 173 18.7533 173ZM54.6066 156.854L52.7137 158.929C50.9727 160.83 50.0081 163.315 50.0106 165.893V171.75C50.0106 172.081 50.1423 172.399 50.3768 172.634C50.6113 172.868 50.9293 173 51.2609 173C51.5925 173 51.9105 172.868 52.145 172.634C52.3794 172.399 52.5112 172.081 52.5112 171.75V165.893C52.5112 163.935 53.2388 162.06 54.5591 160.615L56.4521 158.542C56.5629 158.42 56.6488 158.279 56.7048 158.124C56.7608 157.97 56.7859 157.806 56.7786 157.642C56.7713 157.478 56.7317 157.317 56.6622 157.168C56.5926 157.019 56.4945 156.886 56.3733 156.775C56.2521 156.664 56.1103 156.578 55.956 156.522C55.8016 156.466 55.6377 156.441 55.4737 156.448C55.3096 156.456 55.1486 156.495 54.9999 156.565C54.8511 156.634 54.7175 156.733 54.6066 156.854Z" fill="black"/>
<path d="M75.2526 173C75.5841 173 75.902 172.868 76.1364 172.634C76.3709 172.399 76.5026 172.082 76.5026 171.75V161.05C76.5026 158.01 78.0426 155.233 80.6251 153.625L90.5926 147.412C92.1169 149.158 93.9955 150.559 96.1033 151.523C98.2112 152.486 100.5 152.99 102.818 153C105.134 152.99 107.422 152.487 109.53 151.524C111.637 150.562 113.515 149.162 115.04 147.418L125.008 153.625C126.273 154.407 127.316 155.501 128.038 156.801C128.761 158.101 129.137 159.565 129.133 161.053V171.75C129.133 172.082 129.264 172.399 129.499 172.634C129.733 172.868 130.051 173 130.383 173C130.714 173 131.032 172.868 131.266 172.634C131.501 172.399 131.633 172.082 131.633 171.75V161.053C131.639 159.14 131.154 157.258 130.226 155.586C129.297 153.914 127.955 152.508 126.328 151.502L111.558 142.305V135.983C113.124 134.695 114.385 133.075 115.251 131.242C116.117 129.408 116.566 127.405 116.565 125.378V122.87L116.998 122.158C117.919 120.16 118.393 117.985 118.388 115.785C118.383 112.874 117.548 110.024 115.98 107.571C114.412 105.118 112.176 103.164 109.535 101.938C110.03 101.1 110.318 100.188 110.318 99.25C110.318 95.805 106.953 93 102.818 93C98.6826 93 95.3176 95.805 95.3176 99.25C95.3176 100.278 95.6501 101.262 96.2226 102.155C92.7546 103.906 90.0831 106.912 88.7505 110.562C87.4179 114.211 87.5241 118.231 89.0476 121.805L89.0676 121.832V125.38C89.0676 129.637 91.0126 133.447 94.0601 135.972V142.307L79.3001 151.505C77.6744 152.511 76.3336 153.917 75.4057 155.588C74.4779 157.259 73.9939 159.141 74.0001 161.053V171.752C74.0004 171.917 74.033 172.079 74.0962 172.231C74.1593 172.382 74.2516 172.52 74.3679 172.636C74.4842 172.751 74.6222 172.843 74.774 172.906C74.9258 172.968 75.0884 173 75.2526 173ZM102.818 95.5C105.575 95.5 107.818 97.1825 107.818 99.25C107.818 99.9825 107.518 100.593 107.163 101.058C107.12 101.045 107.075 101.042 107.03 101.03C106.434 100.871 105.829 100.749 105.218 100.663C105.12 100.65 105.025 100.63 104.93 100.617C104.325 100.543 103.715 100.504 103.105 100.5C103.05 100.5 102.998 100.508 102.94 100.508C102.845 100.508 102.75 100.52 102.655 100.523C102.064 100.541 101.475 100.593 100.89 100.68C100.783 100.695 100.675 100.71 100.565 100.73C99.8899 100.838 99.2226 100.991 98.5676 101.188C98.0993 100.649 97.834 99.9635 97.8176 99.25C97.8176 97.1825 100.06 95.5 102.818 95.5ZM90.3176 115.787C90.3176 109.947 94.2751 105.065 99.6301 103.54C99.9876 103.438 100.34 103.313 100.7 103.243C101.443 103.1 102.208 103.018 102.99 103.01C103.233 103.008 103.475 103.05 103.718 103.06C104.268 103.088 104.813 103.13 105.343 103.225C105.69 103.288 106.03 103.385 106.375 103.475C111.835 104.93 115.89 109.873 115.89 115.785C115.89 116.723 115.79 117.643 115.603 118.52L115.58 118.515C114.926 117.453 114.012 116.577 112.923 115.968C111.835 115.359 110.609 115.039 109.363 115.037C105.011 115.049 100.769 113.675 97.2501 111.115C97.1388 110.981 97.0006 110.873 96.8444 110.796C96.6882 110.719 96.5176 110.677 96.3438 110.671C96.17 110.665 95.9968 110.695 95.8357 110.761C95.6745 110.826 95.5291 110.925 95.4087 111.051C95.2884 111.176 95.196 111.326 95.1376 111.49C95.0791 111.654 95.0559 111.828 95.0695 112.001C95.083 112.175 95.1331 112.343 95.2163 112.496C95.2996 112.649 95.4142 112.782 95.5526 112.887C93.4172 113.849 91.6445 115.466 90.4926 117.505C90.4126 116.94 90.3176 116.372 90.3176 115.787ZM91.5676 125.38V122.962C91.5596 121.035 92.204 119.162 93.396 117.648C94.588 116.134 96.2574 115.067 98.1326 114.623C101.565 116.54 105.431 117.545 109.363 117.543C111.678 117.543 113.613 119.185 114.068 121.365V125.38C114.063 127.554 113.429 129.68 112.242 131.502C111.055 133.323 109.365 134.761 107.378 135.642C106.857 135.866 106.319 136.048 105.77 136.187C105.395 136.285 105.02 136.387 104.64 136.447C104.548 136.462 104.448 136.463 104.355 136.478C103.349 136.607 102.331 136.608 101.325 136.482C101.208 136.467 101.088 136.465 100.97 136.447C100.61 136.392 100.26 136.293 99.9051 136.203C99.3555 136.066 98.8172 135.887 98.2951 135.667C96.2978 134.789 94.5988 133.348 93.4045 131.522C92.2102 129.696 91.5721 127.562 91.5676 125.38ZM99.1626 138.62C99.3651 138.672 99.5651 138.733 99.7701 138.778C100.753 139 101.77 139.13 102.82 139.13C103.88 139.13 104.905 138.998 105.898 138.77C106.048 138.738 106.195 138.692 106.343 138.655C106.608 138.585 106.873 138.512 107.133 138.427C107.79 138.22 108.44 137.98 109.063 137.672V143H109.088C109.088 143.417 109.275 143.825 109.655 144.06L112.903 146.082C111.613 147.47 110.053 148.578 108.318 149.338C106.584 150.098 104.711 150.493 102.818 150.5C98.9901 150.5 95.3176 148.863 92.7326 146.078L95.9701 144.06C96.1473 143.947 96.2924 143.79 96.3914 143.604C96.4904 143.418 96.5398 143.21 96.5351 143H96.5576V137.672C97.2026 137.99 97.8751 138.235 98.5576 138.448C98.7576 138.51 98.9601 138.565 99.1626 138.62Z" fill="black"/>
<path d="M86.5676 173C86.8991 173 87.2171 172.868 87.4515 172.634C87.6859 172.399 87.8176 172.082 87.8176 171.75V165.768C87.8176 163.433 86.9501 161.2 85.3776 159.475L83.6951 157.633C83.4713 157.388 83.1594 157.241 82.8279 157.226C82.4965 157.211 82.1726 157.329 81.9276 157.553C81.6826 157.776 81.5365 158.088 81.5215 158.42C81.5065 158.751 81.6238 159.075 81.8476 159.32L83.5301 161.163C84.6826 162.425 85.3176 164.06 85.3176 165.768V171.75C85.3176 172.082 85.4493 172.399 85.6837 172.634C85.9181 172.868 86.2361 173 86.5676 173ZM121.94 157.633L120.258 159.475C118.686 161.194 117.816 163.439 117.818 165.768V171.75C117.818 172.082 117.949 172.399 118.184 172.634C118.418 172.868 118.736 173 119.068 173C119.399 173 119.717 172.868 119.951 172.634C120.186 172.399 120.318 172.082 120.318 171.75V165.768C120.318 164.058 120.953 162.423 122.103 161.163L123.785 159.32C123.896 159.199 123.982 159.057 124.038 158.903C124.094 158.748 124.119 158.585 124.112 158.421C124.104 158.257 124.065 158.096 123.995 157.947C123.926 157.798 123.828 157.665 123.706 157.554C123.585 157.443 123.443 157.357 123.289 157.301C123.135 157.245 122.971 157.22 122.807 157.227C122.643 157.235 122.482 157.274 122.333 157.344C122.184 157.413 122.051 157.511 121.94 157.633Z" fill="black"/>
<g clip-path="url(#clip1_89_44)">
<path d="M107.822 183.355H98.5205V202.837H103.899V197.194H107.812C111.896 197.194 115 194.226 115 190.274C115.01 186.323 111.906 183.355 107.822 183.355ZM107.711 192.108H103.909V188.501H107.711C108.722 188.501 109.49 189.281 109.49 190.305C109.48 191.328 108.722 192.108 107.711 192.108Z" fill="#FF6900"/>
<path d="M83.4465 194.256L79.1701 183.355H72.2346V202.837H77.6131V192.848L81.5863 202.837H85.1956L89.1688 192.848V202.837H94.5473V183.355H87.7028L83.4465 194.256Z" fill="#FF6900"/>
<path d="M63.6412 183.355H63.5402C63.8232 184.803 63.4592 186.354 62.6404 189.271C61.8012 192.24 61.1036 194.783 61.1036 194.783L57.8381 183.355H57.7471H52.9045H52.8437H52.8135L49.6187 194.773L46.3532 183.355H46.252H40.3175H40.3074L46.8486 202.837H52.2271L55.2701 191.966L58.3436 202.837H63.722L67.8975 190.305C68.9693 187.113 69.4443 185.107 69.1411 183.355H63.6412Z" fill="#FF6900"/>
<path d="M32.8058 190.639C30.986 190.173 29.8132 189.859 29.8132 188.856C29.8132 188.015 30.7029 187.802 31.4409 187.772C31.4713 187.772 31.5016 187.772 31.5319 187.772C31.5623 187.772 31.5926 187.772 31.6229 187.772C31.633 187.772 31.633 187.772 31.6431 187.772C31.997 187.782 32.361 187.843 32.6643 187.975C32.7654 188.015 32.8563 188.066 32.9372 188.116C33.2102 188.299 33.4225 188.542 33.4933 188.866V188.876C33.5034 188.917 33.5135 188.957 33.5135 188.998C33.5236 189.048 33.5236 189.089 33.5236 189.14H39.0639C39.0639 185.644 35.9702 183.02 31.8656 183C31.8555 183 31.3803 183 31.3601 183C27.4475 183 24.2831 185.523 24.2831 189.281C24.2831 193.071 27.4475 194.722 30.1873 195.391C31.6836 195.755 34.0291 196.13 34.0291 197.204C34.0291 197.255 34.0291 197.295 34.019 197.336V197.346C33.8876 198.319 32.5126 198.41 32.0374 198.41C32.0273 198.41 32.0172 198.41 32.0071 198.41C31.9768 198.41 31.9566 198.41 31.9363 198.41H31.9262C31.7746 198.41 31.6229 198.4 31.4713 198.379C30.8546 198.339 30.3187 198.106 29.975 197.761C29.9649 197.751 29.9548 197.731 29.9346 197.721C29.9143 197.701 29.9042 197.691 29.884 197.67C29.7121 197.478 29.5908 197.245 29.5605 196.971C29.5504 196.921 29.5504 196.86 29.5504 196.809H24C24 200.385 27.1543 203.172 31.4409 203.202C31.4612 203.202 31.542 203.202 31.5623 203.202H32.1992C36.405 203.202 39.5492 200.568 39.5492 196.667C39.5492 192.757 35.6871 191.379 32.8058 190.639Z" fill="#FF6900"/>
</g>
<defs>
<linearGradient id="paint0_linear_89_44" x1="403.637" y1="239.182" x2="571.325" y2="198.186" gradientUnits="userSpaceOnUse">
<stop stop-color="#439DDF"/>
<stop offset="0.524208" stop-color="#4F87ED"/>
<stop offset="0.781452" stop-color="#9476C5"/>
<stop offset="0.888252" stop-color="#BC688E"/>
<stop offset="1" stop-color="#D6645D"/>
</linearGradient>
<clipPath id="clip0_89_44">
<rect width="140" height="30.2703" fill="white" transform="translate(427 77)"/>
</clipPath>
<clipPath id="clip1_89_44">
<rect width="91" height="20.202" fill="white" transform="translate(24 183)"/>
</clipPath>
</defs>
</svg>
