<svg version="1.1" id="Uploaded to svgrepo.com" xmlns="http://www.w3.org/2000/svg" xmlns:xlink="http://www.w3.org/1999/xlink" 
	 width="800px" height="800px" viewBox="0 0 32 32" xml:space="preserve">
<style type="text/css">
	.open_een{fill:#0B1719;}
</style>
<g>
	<g>
		<path class="open_een" d="M26.5,20h-3c-0.276,0-0.5,0.224-0.5,0.5s0.224,0.5,0.5,0.5h3c0.276,0,0.5-0.224,0.5-0.5
			S26.776,20,26.5,20z"/>
		<path class="open_een" d="M26.5,23h-3c-0.276,0-0.5,0.224-0.5,0.5s0.224,0.5,0.5,0.5h3c0.276,0,0.5-0.224,0.5-0.5
			S26.776,23,26.5,23z"/>
		<path class="open_een" d="M25.5,14H24l0-4c0-2.182-0.863-4.221-2.429-5.742c-1.566-1.52-3.631-2.323-5.816-2.255
			C11.479,2.132,8,5.86,8,10.314V14H6.5C5.673,14,5,14.673,5,15.5v13C5,29.327,5.673,30,6.5,30h19c0.827,0,1.5-0.673,1.5-1.5v-1
			c0-0.827-0.673-1.5-1.5-1.5h-2c-0.276,0-0.5,0.224-0.5,0.5s0.224,0.5,0.5,0.5h2c0.276,0,0.5,0.224,0.5,0.5v1
			c0,0.276-0.224,0.5-0.5,0.5h-19C6.224,29,6,28.776,6,28.5v-13C6,15.224,6.224,15,6.5,15h2C8.776,15,9,14.776,9,14.5v-4.186
			c0-3.919,3.043-7.199,6.785-7.311c1.909-0.065,3.72,0.643,5.09,1.973C22.245,6.306,23,8.09,23,10l0,4.5
			c0,0.132,0.053,0.26,0.146,0.354S23.367,15,23.5,15h2c0.276,0,0.5,0.224,0.5,0.5v1c0,0.276-0.224,0.5-0.5,0.5h-4
			c-0.827,0-1.5,0.673-1.5,1.5v8c0,0.276,0.224,0.5,0.5,0.5s0.5-0.224,0.5-0.5v-8c0-0.276,0.224-0.5,0.5-0.5h4
			c0.827,0,1.5-0.673,1.5-1.5v-1C27,14.673,26.327,14,25.5,14z"/>
		<path class="open_een" d="M21,14.5V10c0-2.757-2.243-5-5-5s-5,2.243-5,5v4.5c0,0.276,0.224,0.5,0.5,0.5h9
			C20.776,15,21,14.776,21,14.5z M20,14h-8v-4c0-2.206,1.794-4,4-4s4,1.794,4,4V14z"/>
	</g>
	<g>
		<path class="open_een" d="M26.5,20h-3c-0.276,0-0.5,0.224-0.5,0.5s0.224,0.5,0.5,0.5h3c0.276,0,0.5-0.224,0.5-0.5
			S26.776,20,26.5,20z"/>
		<path class="open_een" d="M26.5,23h-3c-0.276,0-0.5,0.224-0.5,0.5s0.224,0.5,0.5,0.5h3c0.276,0,0.5-0.224,0.5-0.5
			S26.776,23,26.5,23z"/>
		<path class="open_een" d="M25.5,14H24l0-4c0-2.182-0.863-4.221-2.429-5.742c-1.566-1.52-3.631-2.323-5.816-2.255
			C11.479,2.132,8,5.86,8,10.314V14H6.5C5.673,14,5,14.673,5,15.5v13C5,29.327,5.673,30,6.5,30h19c0.827,0,1.5-0.673,1.5-1.5v-1
			c0-0.827-0.673-1.5-1.5-1.5h-2c-0.276,0-0.5,0.224-0.5,0.5s0.224,0.5,0.5,0.5h2c0.276,0,0.5,0.224,0.5,0.5v1
			c0,0.276-0.224,0.5-0.5,0.5h-19C6.224,29,6,28.776,6,28.5v-13C6,15.224,6.224,15,6.5,15h2C8.776,15,9,14.776,9,14.5v-4.186
			c0-3.919,3.043-7.199,6.785-7.311c1.909-0.065,3.72,0.643,5.09,1.973C22.245,6.306,23,8.09,23,10l0,4.5
			c0,0.132,0.053,0.26,0.146,0.354S23.367,15,23.5,15h2c0.276,0,0.5,0.224,0.5,0.5v1c0,0.276-0.224,0.5-0.5,0.5h-4
			c-0.827,0-1.5,0.673-1.5,1.5v8c0,0.276,0.224,0.5,0.5,0.5s0.5-0.224,0.5-0.5v-8c0-0.276,0.224-0.5,0.5-0.5h4
			c0.827,0,1.5-0.673,1.5-1.5v-1C27,14.673,26.327,14,25.5,14z"/>
		<path class="open_een" d="M21,14.5V10c0-2.757-2.243-5-5-5s-5,2.243-5,5v4.5c0,0.276,0.224,0.5,0.5,0.5h9
			C20.776,15,21,14.776,21,14.5z M20,14h-8v-4c0-2.206,1.794-4,4-4s4,1.794,4,4V14z"/>
	</g>
</g>
</svg>