<svg width="301" height="236" viewBox="0 0 301 236" fill="none" xmlns="http://www.w3.org/2000/svg">
<path d="M193.5 12.8957H105.35C75.31 12.8957 50.0665 33.4248 42.8924 61.2144C42.0938 64.3077 39.401 66.6276 36.2053 66.6276C32.2338 66.6276 29.1587 63.1077 30.0858 59.2472C38.2473 25.2596 68.8478 0 105.35 0H193.5C236.247 0 270.9 34.6415 270.9 77.374V96.7175C270.9 100.279 268.012 103.165 264.45 103.165C260.888 103.165 258 100.279 258 96.7175V77.374C258 41.7636 229.122 12.8957 193.5 12.8957Z" fill="white"/>
<path d="M262.645 139.703C259.449 139.703 256.756 142.023 255.958 145.116C248.784 172.906 223.54 193.435 193.5 193.435H105.35C69.7276 193.435 40.85 164.567 40.85 128.957V109.613C40.85 106.052 37.9622 103.165 34.4 103.165C30.8378 103.165 27.95 106.052 27.95 109.613V128.957C27.95 171.689 62.6032 206.331 105.35 206.331H193.5C230.002 206.331 260.603 181.071 268.764 147.083C269.691 143.223 266.616 139.703 262.645 139.703Z" fill="white"/>
<path d="M249.4 64.4783C249.4 60.9173 246.512 58.0305 242.95 58.0305H45.15C20.2143 58.0305 0 78.238 0 103.165C0 122.309 11.9219 138.668 28.7484 145.23C32.6771 146.762 36.55 143.57 36.55 139.355C36.55 136.336 34.498 133.755 31.7522 132.499C20.6286 127.414 12.9 116.192 12.9 103.165C12.9 85.3601 27.3388 70.9262 45.15 70.9262H242.95C246.512 70.9262 249.4 68.0394 249.4 64.4783Z" fill="white"/>
<path d="M262.3 66.1441C262.3 69.3017 264.559 71.954 267.504 73.0955C279.555 77.7663 288.1 89.4683 288.1 103.165C288.1 120.971 273.661 135.404 255.85 135.404H55.9C52.3378 135.404 49.45 138.291 49.45 141.852C49.45 145.413 52.3378 148.3 55.9 148.3H255.85C280.786 148.3 301 128.093 301 103.165C301 83.088 287.886 66.0726 269.755 60.2113C265.909 58.9681 262.3 62.1033 262.3 66.1441Z" fill="white"/>
<path fill-rule="evenodd" clip-rule="evenodd" d="M84.3225 193.277C84.8437 193.176 85.3708 193.097 85.9018 193.097L161.037 193.086C170.241 193.086 178.478 193.086 178.477 195.236L178.295 222.588C178.295 231.808 168.242 238.051 159.144 234.482L83.8498 202.761L69.8748 195.236C62.3514 192.307 65.2112 192.57 70.646 193.07C74.8716 193.459 80.6537 193.991 84.3225 193.277Z" fill="white"/>
<circle cx="150.5" cy="103.165" r="10.9234" fill="white"/>
<ellipse cx="107.413" cy="103.165" rx="10.3165" ry="10.9234" fill="white"/>
<ellipse cx="193.586" cy="103.165" rx="10.3165" ry="10.9234" fill="white"/>
</svg>
