<svg width="950" height="236" viewBox="0 0 950 236" fill="none" xmlns="http://www.w3.org/2000/svg">
<path d="M193.5 12.8957H105.35C75.31 12.8957 50.0665 33.4248 42.8924 61.2144C42.0938 64.3077 39.401 66.6276 36.2053 66.6276C32.2338 66.6276 29.1587 63.1077 30.0858 59.2472C38.2473 25.2596 68.8478 0 105.35 0H193.5C236.247 0 270.9 34.6415 270.9 77.374V96.7175C270.9 100.279 268.012 103.165 264.45 103.165C260.888 103.165 258 100.279 258 96.7175V77.374C258 41.7636 229.122 12.8957 193.5 12.8957Z" fill="white"/>
<path d="M262.645 139.703C259.449 139.703 256.756 142.023 255.958 145.116C248.784 172.906 223.54 193.435 193.5 193.435H105.35C69.7276 193.435 40.85 164.567 40.85 128.957V109.613C40.85 106.052 37.9622 103.165 34.4 103.165C30.8378 103.165 27.95 106.052 27.95 109.613V128.957C27.95 171.689 62.6032 206.331 105.35 206.331H193.5C230.002 206.331 260.603 181.071 268.764 147.083C269.691 143.223 266.616 139.703 262.645 139.703Z" fill="white"/>
<path d="M249.4 64.4783C249.4 60.9173 246.512 58.0305 242.95 58.0305H45.15C20.2143 58.0305 0 78.238 0 103.165C0 122.309 11.9219 138.668 28.7484 145.23C32.6771 146.762 36.55 143.57 36.55 139.355C36.55 136.336 34.498 133.755 31.7522 132.499C20.6286 127.414 12.9 116.192 12.9 103.165C12.9 85.3601 27.3388 70.9262 45.15 70.9262H242.95C246.512 70.9262 249.4 68.0394 249.4 64.4783Z" fill="white"/>
<path d="M262.3 66.1441C262.3 69.3017 264.559 71.954 267.504 73.0955C279.555 77.7663 288.1 89.4683 288.1 103.165C288.1 120.971 273.661 135.404 255.85 135.404H55.9C52.3378 135.404 49.45 138.291 49.45 141.852C49.45 145.413 52.3378 148.3 55.9 148.3H255.85C280.786 148.3 301 128.093 301 103.165C301 83.088 287.886 66.0726 269.755 60.2113C265.909 58.9681 262.3 62.1033 262.3 66.1441Z" fill="white"/>
<path fill-rule="evenodd" clip-rule="evenodd" d="M84.3225 193.277C84.8437 193.176 85.3708 193.097 85.9018 193.097L161.037 193.086C170.241 193.086 178.478 193.086 178.477 195.236L178.295 222.588C178.295 231.808 168.242 238.051 159.144 234.482L83.8498 202.761L69.8748 195.236C62.3514 192.307 65.2112 192.57 70.646 193.07C74.8716 193.459 80.6537 193.991 84.3225 193.277Z" fill="white"/>
<circle cx="150.5" cy="103.165" r="10.9234" fill="white"/>
<ellipse cx="107.413" cy="103.165" rx="10.3165" ry="10.9234" fill="white"/>
<ellipse cx="193.586" cy="103.165" rx="10.3165" ry="10.9234" fill="white"/>
<path fill-rule="evenodd" clip-rule="evenodd" d="M398.184 91.1132H425.765C425.656 84.4191 423.453 77.9242 419.46 72.5266C415.467 67.129 409.883 63.0956 403.478 60.9843C398.079 58.9728 392.355 57.9616 386.588 58.0011C364.492 58.0011 347.724 71.5258 347.724 91.735C347.666 96.1574 348.603 100.537 350.465 104.555C355.854 115.943 368.356 121.872 380.319 124.692C383.817 125.471 387.255 126.489 390.611 127.739C395.038 129.472 398.435 131.673 399.443 134.636C399.648 135.238 399.753 135.87 399.751 136.506C399.751 140.564 396.102 143.794 391.015 144.848C389.816 145.093 388.595 145.215 387.371 145.212C384.958 145.23 382.569 144.722 380.376 143.722C376.364 141.851 373.738 138.409 373.738 134.485H346C346.126 141.18 348.265 147.685 352.144 153.165C356.022 158.646 361.462 162.852 367.767 165.244C373.821 167.773 380.332 169.05 386.901 168.996C394.262 169.086 401.543 167.48 408.171 164.305C413.998 161.606 418.918 157.301 422.344 151.903C425.769 146.504 427.556 140.242 427.489 133.863C427.551 129.71 426.726 125.591 425.07 121.777C420.023 110.491 407.828 104.981 395.635 101.763C394.919 101.575 394.202 101.393 393.483 101.218C383.924 98.8859 375.305 95.7768 375.305 89.5586C375.305 84.8949 380.319 81.7858 386.274 81.7858C388.198 81.7683 390.108 82.115 391.9 82.8072C393.952 83.6218 395.606 84.8856 396.703 86.4495C397.67 87.8154 398.187 89.4443 398.184 91.1132Z" fill="#FF6900"/>
<path fill-rule="evenodd" clip-rule="evenodd" d="M588.9 59.8667H561.319C561.414 60.3305 561.499 60.7965 561.572 61.2642C562.774 68.9391 560.906 76.6155 557.416 88.5949C557.307 88.9681 557.198 89.3412 557.088 89.7142L545.492 129.666L524.649 59.8667H500.359L479.83 129.511L459.301 59.8667H429.526L466.04 167.131H492.994L512.269 101.84L531.544 167.131H558.655L582.318 97.1761C583.387 94.0462 584.404 90.8988 585.366 87.7352C588.943 75.8802 590.282 67.4731 588.9 59.8667Z" fill="#FF6900"/>
<path fill-rule="evenodd" clip-rule="evenodd" d="M647.053 167H669L639.349 87H615.651L586 167H607.596L611.916 154.362H642.734L647.053 167ZM618.103 136.043L627.325 109.029L636.547 136.043H618.103Z" fill="white"/>
<path fill-rule="evenodd" clip-rule="evenodd" d="M771.959 59.8667L745.475 124.847L718.835 59.8667H684.045V167.131H710.999V106.348L736.073 167.131H754.251L779.325 106.348V167.131H806.279V59.8667H771.959Z" fill="#FF6900"/>
<path fill-rule="evenodd" clip-rule="evenodd" d="M876.171 59.8663H825.71V167.131H852.664V134.33H876.171C898.267 134.33 915.035 118.318 915.035 97.1756C915.139 88.5974 912.203 80.2552 906.74 73.6047C901.277 66.9542 893.634 62.4177 885.144 60.7866C882.193 60.1698 879.186 59.8613 876.171 59.8663ZM875.544 109.146H852.664V85.0501H875.544C878.27 85.0056 880.926 85.9115 883.048 87.61C885.17 89.3085 886.625 91.6919 887.157 94.3448C887.356 95.2754 887.456 96.2243 887.454 97.1756C887.454 103.891 882.469 108.959 875.909 109.141C875.787 109.144 875.665 109.146 875.544 109.146Z" fill="#FF6900"/>
<path fill-rule="evenodd" clip-rule="evenodd" d="M931 167H950V87H931V167Z" fill="white"/>
</svg>
