<svg viewBox="0 0 500 111" fill="#FF6900" xmlns="http://www.w3.org/2000/svg">
	<path d="M460.56 1.94836H409.454V108.996H439.006V77.9895H460.504C482.946 77.9895 500 61.6791 500 39.9689C500.055 18.2588 483.002 1.94836 460.56 1.94836ZM459.949 50.0447H439.062V30.2272H459.949C465.504 30.2272 469.725 34.5136 469.725 40.1359C469.67 45.7583 465.504 50.0447 459.949 50.0447Z"></path>
	<path d="M326.63 61.8461L303.133 1.94836H265.026V108.996H294.578V54.1083L316.409 108.996H336.24L358.071 54.1083V108.996H387.623V1.94836H350.016L326.63 61.8461Z"></path>
	<path d="M217.809 1.94836H217.254C218.809 9.90875 216.809 18.4258 212.31 34.4579C207.699 50.7683 203.866 64.7407 203.866 64.7407L185.924 1.94836H185.424H158.816H158.482H158.316L140.762 64.6851L122.82 1.94836H122.264H89.6566H89.6011L125.542 108.996H155.094L171.814 49.2653L188.701 108.996H218.253L241.195 40.1359C247.084 22.6008 249.694 11.5788 248.028 1.94836H217.809V1.94836Z"></path>
	<path d="M48.3835 41.9729C38.3846 39.4122 31.9409 37.6866 31.9409 32.1755C31.9409 27.5552 36.8292 26.3862 40.8843 26.2192C41.051 26.2192 41.2176 26.2192 41.3843 26.2192C41.5509 26.2192 41.7176 26.2192 41.8842 26.2192C41.9398 26.2192 41.9398 26.2192 41.9953 26.2192C43.9395 26.2748 45.9393 26.6088 47.6058 27.3325C48.1613 27.5552 48.6612 27.8335 49.1056 28.1118C50.6055 29.1138 51.772 30.4499 52.1609 32.2312V32.2869C52.2164 32.5095 52.272 32.7322 52.272 32.9549C52.3275 33.2332 52.3275 33.4559 52.3275 33.7342H82.7686C82.7686 14.5291 65.7704 0.111334 43.2174 0C43.1619 0 40.551 0 40.4399 0C18.9423 0 1.55538 13.8611 1.55538 34.5135C1.55538 55.333 18.9423 64.4067 33.9962 68.0807C42.2175 70.0848 55.105 72.1444 55.105 78.0451C55.105 78.3235 55.105 78.5461 55.0494 78.7688V78.8245C54.3273 84.1685 46.7726 84.6695 44.1617 84.6695C44.1062 84.6695 44.0506 84.6695 43.9951 84.6695C43.8284 84.6695 43.7174 84.6695 43.6063 84.6695H43.5507C42.7175 84.6695 41.8842 84.6138 41.051 84.5025C37.6625 84.2798 34.7184 82.9995 32.8297 81.1068C32.7741 81.0512 32.7186 80.9398 32.6075 80.8842C32.4964 80.7728 32.4408 80.7172 32.3297 80.6058C31.3854 79.5481 30.7188 78.2678 30.5522 76.7648C30.4966 76.4865 30.4966 76.1525 30.4966 75.8741H0C0 95.5246 17.3314 110.833 40.8843 111C40.9954 111 41.4398 111 41.5509 111H45.0505C68.1591 111 85.4349 96.5266 85.4349 75.0948C85.4349 53.6073 64.2151 46.0366 48.3835 41.9729Z"></path>
</svg>